<svg width="209" height="53" viewBox="0 0 209 53" fill="none" xmlns="http://www.w3.org/2000/svg">
    <path d="M9.7055 10.5C-4.2945 18.1 -0.127836 32.6667 3.7055 39C7.70583 46.6 19.7051 46.91 33.7051 47.5C77.2051 49.3333 167.705 52.9 181.705 52.5C199.205 52 209.205 41 208.705 21C208.305 5 192.205 0.333333 184.205 0C131.872 0.333333 23.7055 2.9 9.7055 10.5Z" fill="#DE5935"/>
    <path fill-rule="evenodd" clip-rule="evenodd" d="M189.886 28.0939C189.911 27.9967 189.911 27.8754 189.886 27.7291V27.5106C189.886 27.3892 189.86 27.3045 189.809 27.2555C189.732 27.1824 189.732 27.1341 189.809 27.1092C189.936 27.0361 190 26.9762 190 26.9272C190 26.9031 189.974 26.8425 189.924 26.7445L189.847 26.599L189.809 26.5259C189.784 26.5026 189.772 26.466 189.772 26.417V26.1977C189.772 26.1495 189.809 26.0888 189.886 26.0157C189.911 26.0157 189.924 25.9916 189.924 25.9433C189.924 25.8943 189.911 25.8702 189.886 25.8702C189.784 25.8212 189.706 25.724 189.657 25.5786C189.604 25.3841 189.567 25.2744 189.541 25.2503C189.465 25.2262 189.401 25.129 189.35 24.9587C189.324 24.8614 189.274 24.7759 189.197 24.7035L189.159 24.5939C189.159 24.5208 189.146 24.4967 189.121 24.5208C189.019 24.5939 188.955 24.618 188.93 24.5939V24.3753L188.7 24.2656C188.674 24.2415 188.585 24.1809 188.432 24.0836C188.406 24.0595 188.356 24.0354 188.279 24.0105C188.203 23.9864 188.151 23.9623 188.126 23.9374L187.858 23.6823C187.68 23.5127 187.553 23.4396 187.476 23.4637C187.298 23.5128 187.157 23.4147 187.056 23.1721C186.928 22.9535 186.826 22.8439 186.75 22.8439C186.469 22.8439 186.29 22.7474 186.214 22.5522C186.163 22.504 186.099 22.4915 186.023 22.5156C185.947 22.5405 185.832 22.4791 185.679 22.3336C185.551 22.1874 185.461 22.0661 185.412 21.9688L185.488 21.8957C185.513 21.8957 185.526 21.8841 185.526 21.8592C185.449 21.7627 185.36 21.7627 185.258 21.8592V21.9323C185.258 22.0054 185.245 22.042 185.22 22.042C185.169 22.042 185.143 21.993 185.143 21.8957C185.169 21.8226 185.105 21.7137 184.952 21.5675C184.926 21.5434 184.889 21.5434 184.837 21.5675C184.786 21.5924 184.748 21.6048 184.722 21.6048C184.697 21.5317 184.671 21.4827 184.646 21.4586L184.494 21.5317C184.416 21.6048 184.34 21.5799 184.264 21.4586C184.137 21.2883 183.996 21.2276 183.844 21.2758C183.766 21.3007 183.69 21.2758 183.614 21.2027C183.461 21.0822 183.256 20.9725 183.002 20.8753C182.644 20.7057 182.44 20.596 182.39 20.547C182.365 20.5229 182.276 20.5105 182.122 20.5105C181.944 20.5105 181.855 20.4257 181.855 20.2554C181.855 20.1092 181.778 20.0858 181.625 20.1823C181.523 20.2554 181.447 20.2678 181.395 20.2188C181.319 20.1457 181.243 20.1092 181.166 20.1092C181.064 20.1092 181 20.0975 180.975 20.0734C180.899 20.0003 180.796 20.0003 180.669 20.0734C180.566 20.1457 180.491 20.1582 180.44 20.1092L180.362 20.036C180.287 19.9637 180.248 20.0003 180.248 20.1457C180.248 20.4133 180.21 20.6077 180.134 20.729C180.185 20.8022 180.21 20.8753 180.21 20.9476V21.0938L180.172 21.1662C180.146 21.1662 180.134 21.1786 180.134 21.2027L180.019 21.3124C179.994 21.4096 179.994 21.4827 180.019 21.5317C180.044 21.5558 180.057 21.6406 180.057 21.7861V22.1874L180.134 22.5156L180.248 22.8439C179.968 23.2576 180.006 23.5734 180.362 23.792C180.287 23.8892 180.274 23.974 180.325 24.0471C180.376 24.1692 180.389 24.2656 180.362 24.3388C180.362 24.3629 180.389 24.3994 180.44 24.4484C180.491 24.4967 180.503 24.5457 180.477 24.5939C180.426 24.6429 180.402 24.6911 180.402 24.7393C180.402 24.7883 180.44 24.7883 180.516 24.7393C180.694 24.6911 180.809 24.716 180.86 24.8124C181.14 25.1041 181.421 25.2262 181.702 25.1772C181.727 25.1539 181.867 25.2013 182.122 25.3227C181.994 25.4689 182.02 25.5544 182.198 25.5786C182.632 25.6268 182.976 25.8096 183.231 26.1253C183.282 26.1743 183.358 26.1977 183.461 26.1977C183.537 26.1977 183.601 26.2342 183.652 26.3073C183.779 26.5757 183.92 26.7087 184.073 26.7087C184.098 26.7569 184.212 26.8238 184.416 26.9086C184.62 26.9941 184.709 27.1225 184.685 27.292C184.709 27.3651 184.774 27.3892 184.877 27.3651C185.156 27.243 185.321 27.292 185.373 27.5106C185.424 27.5837 185.488 27.6195 185.564 27.6195C185.615 27.6195 185.794 27.6926 186.099 27.8388C186.124 27.8629 186.124 27.9244 186.099 28.0216C186.048 28.0698 186.01 28.1305 185.985 28.2028C185.959 28.2759 185.895 28.3374 185.794 28.3856C185.742 28.4346 185.538 28.58 185.182 28.8227C185.182 28.9938 185.092 29.0778 184.914 29.0778C184.761 29.0778 184.659 29.1027 184.608 29.1509C184.583 29.0778 184.518 29.0662 184.416 29.1144C184.314 29.2116 184.187 29.3213 184.035 29.4434C183.754 29.6619 183.576 29.7833 183.499 29.8074C183.422 29.8564 183.193 30.0392 182.811 30.3542C182.479 30.6225 182.237 30.7796 182.084 30.8286L181.625 31.1561C181.344 31.3264 181.243 31.5823 181.319 31.9222C181.319 32.0194 181.306 32.0676 181.28 32.0676C181.23 32.0925 181.204 32.1649 181.204 32.287V32.5421C181.204 32.6144 181.217 32.6759 181.243 32.7241C181.268 32.7731 181.28 32.8579 181.28 32.9792C181.28 33.0523 181.217 33.113 181.09 33.162C181.064 33.162 181.052 33.1923 181.052 33.253C181.052 33.3137 181.064 33.344 181.09 33.344C181.166 33.393 181.204 33.4661 181.204 33.5625C181.204 33.6598 181.217 33.7212 181.243 33.7453C181.37 33.7936 181.383 33.8791 181.28 34.0004C181.204 34.0977 181.166 34.1583 181.166 34.1824C181.166 34.2314 181.204 34.4617 181.28 34.8755C181.358 35.2643 181.332 35.4829 181.204 35.5311C181.204 35.7995 181.243 35.9815 181.319 36.0779C181.344 36.1759 181.395 36.2 181.472 36.151C181.625 36.0779 181.714 36.0904 181.74 36.1876C181.842 36.3828 181.816 36.4925 181.663 36.5158C181.536 36.5158 181.472 36.5648 181.472 36.6613C181.498 36.6861 181.574 36.7227 181.702 36.7709H181.855H182.046C182.071 36.7709 182.109 36.8075 182.161 36.8798C182.186 37.026 182.288 37.0393 182.466 36.9171L182.581 36.8075C182.683 36.6861 182.772 36.5765 182.848 36.4793C183.027 36.2848 183.18 36.1277 183.308 36.0056C183.358 35.9574 183.41 35.9208 183.461 35.8967C183.562 35.8477 183.626 35.8111 183.652 35.787C183.703 35.738 183.729 35.6898 183.729 35.6408C183.779 35.5444 183.83 35.4946 183.881 35.4946C183.959 35.4946 183.996 35.4829 183.996 35.458V35.3857C184.021 35.2885 184.085 35.276 184.187 35.3491C184.212 35.325 184.239 35.276 184.264 35.2037C184.289 35.1547 184.302 35.1065 184.302 35.0575C184.302 35.0341 184.314 35.0209 184.34 35.0209C184.416 35.045 184.494 35.0575 184.57 35.0575L184.531 34.9478V34.8389C184.608 34.6686 184.69 34.5838 184.779 34.5838C184.869 34.5838 185.054 34.45 185.335 34.1824C185.436 34.0129 185.538 33.9398 185.64 33.9639C185.665 33.9639 185.717 33.9273 185.794 33.855C185.819 33.7329 185.882 33.6847 185.985 33.7088C186.01 33.6847 186.023 33.6481 186.023 33.5991C186.023 33.5758 185.997 33.5625 185.947 33.5625H185.832C185.807 33.5384 185.819 33.5019 185.87 33.4537L186.52 33.162C186.597 33.113 186.609 33.0648 186.558 33.0158C186.482 32.9427 186.469 32.9061 186.52 32.9061L186.75 32.7972L186.979 32.7241C186.826 32.651 186.813 32.5911 186.941 32.5421C187.068 32.4931 187.132 32.4449 187.132 32.3959C187.107 32.3235 187.145 32.2745 187.247 32.2504L187.4 32.2139C187.45 32.1649 187.489 32.1042 187.514 32.0311C187.539 31.9346 187.591 31.8856 187.668 31.8856C187.922 31.8615 188.114 31.7161 188.241 31.4485C188.318 31.3023 188.394 31.2292 188.471 31.2292C188.649 31.2533 188.77 31.2292 188.834 31.1561C188.897 31.0837 188.904 30.9741 188.854 30.8286C188.854 30.7073 188.866 30.6225 188.891 30.5735C188.917 30.5004 188.98 30.4522 189.082 30.4273L189.235 30.3542H189.311L189.389 30.2811C189.389 30.2079 189.446 30.1302 189.56 30.0446C189.674 29.9598 189.732 29.8805 189.732 29.8074C189.732 29.5157 189.821 29.3578 190 29.3337V29.224C189.898 29.1276 189.898 28.9573 190 28.7138C189.821 28.5443 189.784 28.3374 189.886 28.0939ZM180.631 20.6559L180.708 20.6202H180.745L180.784 20.6559L180.708 20.6925C180.708 20.7174 180.694 20.729 180.669 20.729L180.631 20.6559ZM180.631 20.4374L180.708 20.4008C180.708 20.3767 180.72 20.3643 180.745 20.3643L180.784 20.4374L180.708 20.4739H180.669L180.631 20.4374ZM182.734 21.3855C182.759 21.4096 182.772 21.4711 182.772 21.5675C182.772 21.5924 182.759 21.6165 182.734 21.6406C182.683 21.5924 182.658 21.5434 182.658 21.4952C182.658 21.4711 182.683 21.4345 182.734 21.3855ZM182.734 21.9323C182.785 21.9323 182.811 21.9688 182.811 22.042H182.658C182.658 21.9688 182.683 21.9323 182.734 21.9323ZM183.04 22.042C183.065 22.0178 183.053 21.9447 183.002 21.8226C182.95 21.7262 182.926 21.6655 182.926 21.6406C182.926 21.5675 182.963 21.5317 183.04 21.5317C183.167 21.5317 183.231 21.5558 183.231 21.6048V22.042H183.04ZM184.57 22.9535H184.416V22.8439C184.34 22.8439 184.302 22.7707 184.302 22.6253C184.302 22.6012 184.289 22.5771 184.264 22.5522V22.5156V22.3694C184.264 22.3461 184.314 22.3336 184.416 22.3336C184.57 22.3336 184.659 22.406 184.685 22.5522C184.685 22.6253 184.633 22.6743 184.531 22.6976C184.429 22.7225 184.391 22.7707 184.416 22.8439C184.518 22.8439 184.57 22.8804 184.57 22.9535ZM185.449 22.8804L185.488 22.8439L185.526 22.8804C185.5 22.8804 185.488 22.8929 185.488 22.917C185.488 22.9411 185.475 22.9535 185.449 22.9535L185.373 22.8804H185.449ZM185.717 23.3541C185.615 23.3307 185.551 23.3416 185.526 23.3906C185.475 23.4396 185.488 23.4637 185.564 23.4637C185.665 23.4637 185.73 23.4513 185.755 23.4272C185.78 23.4272 185.768 23.4031 185.717 23.3541ZM185.794 22.9535C185.794 22.8804 185.819 22.8439 185.87 22.8439C185.895 22.8439 185.908 22.8804 185.908 22.9535C185.908 23.0266 185.882 23.0624 185.832 23.0624C185.807 23.0624 185.794 23.0266 185.794 22.9535ZM182.237 35.5677L182.198 35.5311C182.198 35.4829 182.212 35.458 182.237 35.458C182.262 35.4829 182.288 35.4946 182.313 35.4946L182.237 35.5677ZM185.105 33.3074H185.182C185.207 33.3323 185.22 33.3564 185.22 33.3805C185.22 33.4537 185.194 33.4661 185.143 33.4171C185.118 33.393 185.105 33.3564 185.105 33.3074ZM185.449 33.2709L185.412 33.2343L185.449 33.162L185.488 33.2343V33.2709L185.449 33.3074V33.2709ZM186.214 28.1663C186.239 28.1429 186.29 28.1305 186.367 28.1305C186.393 28.1305 186.405 28.1546 186.405 28.2028C186.405 28.2277 186.354 28.2394 186.253 28.2394C186.227 28.2394 186.214 28.216 186.214 28.1663ZM186.75 28.2394V28.3856C186.622 28.3856 186.583 28.349 186.635 28.2759C186.635 28.2526 186.673 28.2394 186.75 28.2394ZM186.979 23.4272C186.979 23.4031 186.966 23.3906 186.941 23.3906V23.3541L186.903 23.3906V23.4272L186.941 23.4637L186.979 23.4272Z" fill="white"/>
</svg>