<svg width="209" height="53" viewBox="0 0 209 53" fill="none" xmlns="http://www.w3.org/2000/svg">
    <path d="M9.7055 10.5C-4.2945 18.1 -0.127836 32.6667 3.7055 39C7.70583 46.6 19.7051 46.91 33.7051 47.5C77.2051 49.3333 167.705 52.9 181.705 52.5C199.205 52 209.205 41 208.705 21C208.305 5 192.205 0.333333 184.205 0C131.872 0.333333 23.7055 2.9 9.7055 10.5Z" fill="#00AAE8"/>
    <path fill-rule="evenodd" clip-rule="evenodd" d="M181.319 4.35547C170.669 4.35547 156 13.0962 156 24.6777C156 36.2592 170.669 44.9999 181.319 44.9999C191.969 44.9999 200.61 36.2592 200.61 24.6777C200.61 13.0962 191.969 4.35547 181.319 4.35547Z" fill="white"/>
    <path fill-rule="evenodd" clip-rule="evenodd" d="M186.596 24.1806C186.626 24.0615 186.626 23.9129 186.596 23.7339V23.4662C186.596 23.3177 186.566 23.2138 186.505 23.1538C186.413 23.0643 186.413 23.0052 186.505 22.9748C186.656 22.8852 186.732 22.8119 186.732 22.7519C186.732 22.7224 186.701 22.6481 186.641 22.5281L186.55 22.35L186.505 22.2604C186.474 22.2318 186.46 22.1871 186.46 22.1271V21.8585C186.46 21.7994 186.505 21.7251 186.596 21.6356C186.626 21.6356 186.641 21.6061 186.641 21.547C186.641 21.487 186.626 21.4575 186.596 21.4575C186.474 21.3975 186.382 21.2784 186.323 21.1003C186.261 20.8622 186.216 20.7279 186.186 20.6984C186.095 20.6688 186.019 20.5498 185.958 20.3412C185.928 20.2221 185.868 20.1174 185.777 20.0288L185.731 19.8945C185.731 19.805 185.715 19.7754 185.685 19.805C185.564 19.8945 185.488 19.924 185.458 19.8945V19.6269L185.185 19.4926C185.155 19.463 185.049 19.3887 184.866 19.2697C184.835 19.2402 184.776 19.2106 184.685 19.1801C184.594 19.1506 184.532 19.1211 184.502 19.0906L184.184 18.7782C183.971 18.5706 183.821 18.481 183.729 18.5106C183.517 18.5706 183.349 18.4506 183.229 18.1534C183.077 17.8857 182.955 17.7515 182.865 17.7515C182.531 17.7515 182.319 17.6333 182.228 17.3943C182.167 17.3352 182.092 17.32 182 17.3495C181.91 17.38 181.773 17.3047 181.592 17.1266C181.439 16.9476 181.333 16.799 181.273 16.6799L181.364 16.5904C181.394 16.5904 181.409 16.5761 181.409 16.5456C181.318 16.4275 181.212 16.4275 181.09 16.5456V16.6352C181.09 16.7247 181.075 16.7695 181.045 16.7695C180.984 16.7695 180.954 16.7095 180.954 16.5904C180.984 16.5009 180.908 16.3675 180.727 16.1885C180.696 16.1589 180.651 16.1589 180.59 16.1885C180.529 16.2189 180.483 16.2342 180.453 16.2342C180.423 16.1446 180.392 16.0846 180.363 16.0551L180.182 16.1446C180.089 16.2342 179.998 16.2037 179.908 16.0551C179.756 15.8465 179.59 15.7722 179.408 15.8313C179.316 15.8618 179.226 15.8313 179.134 15.7417C178.953 15.5941 178.709 15.4598 178.406 15.3408C177.981 15.1331 177.739 14.9988 177.679 14.9388C177.649 14.9093 177.543 14.8941 177.36 14.8941C177.148 14.8941 177.042 14.7902 177.042 14.5816C177.042 14.4026 176.951 14.374 176.769 14.4921C176.647 14.5816 176.557 14.5969 176.496 14.5369C176.405 14.4473 176.314 14.4026 176.223 14.4026C176.101 14.4026 176.026 14.3883 175.996 14.3588C175.905 14.2692 175.783 14.2692 175.632 14.3588C175.509 14.4473 175.419 14.4626 175.359 14.4026L175.267 14.3131C175.177 14.2245 175.131 14.2692 175.131 14.4473C175.131 14.775 175.085 15.0131 174.995 15.1617C175.055 15.2512 175.085 15.3408 175.085 15.4293V15.6084L175.04 15.697C175.01 15.697 174.995 15.7122 174.995 15.7417L174.858 15.876C174.828 15.9951 174.828 16.0846 174.858 16.1446C174.888 16.1742 174.904 16.278 174.904 16.4561V16.9476L174.995 17.3495L175.131 17.7515C174.797 18.2582 174.843 18.6449 175.267 18.9125C175.177 19.0316 175.161 19.1354 175.222 19.2249C175.283 19.3745 175.298 19.4926 175.267 19.5821C175.267 19.6116 175.298 19.6564 175.359 19.7164C175.419 19.7754 175.434 19.8354 175.404 19.8945C175.343 19.9545 175.313 20.0136 175.313 20.0726C175.313 20.1326 175.359 20.1326 175.449 20.0726C175.661 20.0136 175.798 20.044 175.859 20.1621C176.192 20.5193 176.526 20.6688 176.86 20.6088C176.89 20.5803 177.056 20.6384 177.36 20.787C177.208 20.966 177.239 21.0708 177.451 21.1003C177.967 21.1594 178.375 21.3832 178.679 21.7699C178.74 21.8299 178.831 21.8585 178.953 21.8585C179.043 21.8585 179.119 21.9032 179.18 21.9928C179.331 22.3214 179.498 22.4842 179.681 22.4842C179.711 22.5433 179.847 22.6252 180.089 22.729C180.332 22.8338 180.438 22.991 180.409 23.1986C180.438 23.2881 180.514 23.3177 180.637 23.2881C180.97 23.1386 181.166 23.1986 181.227 23.4662C181.288 23.5558 181.364 23.5996 181.455 23.5996C181.515 23.5996 181.729 23.6891 182.092 23.8682C182.121 23.8977 182.121 23.973 182.092 24.092C182.03 24.1511 181.985 24.2254 181.956 24.3139C181.925 24.4035 181.849 24.4787 181.729 24.5378C181.666 24.5978 181.424 24.7759 181 25.073C181 25.2826 180.893 25.3855 180.681 25.3855C180.5 25.3855 180.378 25.4159 180.317 25.475C180.287 25.3855 180.211 25.3712 180.089 25.4302C179.968 25.5493 179.817 25.6836 179.635 25.8331C179.301 26.1008 179.09 26.2493 178.998 26.2789C178.906 26.3389 178.635 26.5627 178.179 26.9485C177.784 27.2771 177.497 27.4694 177.315 27.5295L176.769 27.9304C176.434 28.139 176.314 28.4524 176.405 28.8686C176.405 28.9877 176.39 29.0467 176.359 29.0467C176.299 29.0772 176.268 29.1658 176.268 29.3153V29.6277C176.268 29.7163 176.283 29.7916 176.314 29.8506C176.344 29.9106 176.359 30.0144 176.359 30.163C176.359 30.2526 176.283 30.3268 176.133 30.3868C176.101 30.3868 176.087 30.424 176.087 30.4983C176.087 30.5726 176.101 30.6097 176.133 30.6097C176.223 30.6697 176.268 30.7593 176.268 30.8774C176.268 30.9964 176.283 31.0717 176.314 31.1012C176.465 31.1603 176.481 31.265 176.359 31.4136C176.268 31.5327 176.223 31.607 176.223 31.6365C176.223 31.6965 176.268 31.9784 176.359 32.4851C176.451 32.9614 176.42 33.229 176.268 33.2881C176.268 33.6167 176.314 33.8395 176.405 33.9576C176.434 34.0777 176.496 34.1072 176.587 34.0472C176.769 33.9576 176.875 33.9729 176.906 34.0919C177.026 34.331 176.996 34.4653 176.814 34.4939C176.662 34.4939 176.587 34.5539 176.587 34.672C176.618 34.7025 176.708 34.7472 176.86 34.8063H177.042H177.269C177.299 34.8063 177.345 34.8511 177.406 34.9396C177.436 35.1187 177.557 35.1349 177.77 34.9853L177.906 34.8511C178.027 34.7025 178.134 34.5682 178.224 34.4491C178.437 34.211 178.618 34.0186 178.77 33.8691C178.831 33.81 178.892 33.7652 178.953 33.7357C179.073 33.6757 179.149 33.6309 179.18 33.6014C179.24 33.5414 179.271 33.4824 179.271 33.4224C179.331 33.3042 179.392 33.2433 179.453 33.2433C179.545 33.2433 179.59 33.229 179.59 33.1985V33.1099C179.62 32.9909 179.695 32.9756 179.817 33.0652C179.847 33.0357 179.878 32.9756 179.908 32.8871C179.938 32.8271 179.954 32.768 179.954 32.708C179.954 32.6794 179.968 32.6632 179.998 32.6632C180.089 32.6928 180.182 32.708 180.272 32.708L180.226 32.5737V32.4404C180.317 32.2318 180.415 32.128 180.521 32.128C180.628 32.128 180.847 31.9641 181.182 31.6365C181.303 31.4288 181.424 31.3393 181.545 31.3688C181.575 31.3688 181.636 31.3241 181.729 31.2355C181.758 31.086 181.833 31.0269 181.956 31.0564C181.985 31.0269 182 30.9821 182 30.9221C182 30.8936 181.97 30.8774 181.91 30.8774H181.773C181.743 30.8478 181.758 30.8031 181.819 30.744L182.592 30.3868C182.684 30.3268 182.698 30.2678 182.637 30.2078C182.547 30.1183 182.531 30.0735 182.592 30.0735L182.865 29.9401L183.138 29.8506C182.955 29.7611 182.941 29.6877 183.092 29.6277C183.244 29.5677 183.32 29.5087 183.32 29.4487C183.29 29.3601 183.335 29.3001 183.456 29.2706L183.639 29.2258C183.699 29.1658 183.744 29.0915 183.774 29.002C183.805 28.8839 183.866 28.8239 183.957 28.8239C184.26 28.7943 184.488 28.6162 184.639 28.2886C184.73 28.1095 184.821 28.02 184.913 28.02C185.124 28.0495 185.268 28.02 185.345 27.9304C185.419 27.8419 185.427 27.7076 185.368 27.5295C185.368 27.3809 185.383 27.2771 185.413 27.217C185.443 27.1275 185.518 27.0685 185.64 27.038L185.821 26.9485H185.913L186.005 26.8589C186.005 26.7694 186.073 26.6741 186.209 26.5694C186.344 26.4656 186.413 26.3684 186.413 26.2789C186.413 25.9217 186.519 25.7283 186.732 25.6988V25.5645C186.61 25.4464 186.61 25.2378 186.732 24.9397C186.519 24.7321 186.474 24.4787 186.596 24.1806ZM175.586 15.0722L175.677 15.0284H175.722L175.769 15.0722L175.677 15.1169C175.677 15.1474 175.661 15.1617 175.632 15.1617L175.586 15.0722ZM175.586 14.8045L175.677 14.7598C175.677 14.7302 175.692 14.715 175.722 14.715L175.769 14.8045L175.677 14.8493H175.632L175.586 14.8045ZM178.088 15.9656C178.118 15.9951 178.134 16.0703 178.134 16.1885C178.134 16.2189 178.118 16.2485 178.088 16.278C178.027 16.2189 177.998 16.1589 177.998 16.0999C177.998 16.0703 178.027 16.0256 178.088 15.9656ZM178.088 16.6352C178.148 16.6352 178.179 16.6799 178.179 16.7695H177.998C177.998 16.6799 178.027 16.6352 178.088 16.6352ZM178.452 16.7695C178.482 16.7399 178.468 16.6504 178.406 16.5009C178.345 16.3828 178.316 16.3085 178.316 16.278C178.316 16.1885 178.361 16.1446 178.452 16.1446C178.604 16.1446 178.679 16.1742 178.679 16.2342V16.7695H178.452ZM180.272 17.8857H180.089V17.7515C179.998 17.7515 179.954 17.6619 179.954 17.4838C179.954 17.4543 179.938 17.4248 179.908 17.3943V17.3495V17.1704C179.908 17.1419 179.968 17.1266 180.089 17.1266C180.272 17.1266 180.378 17.2152 180.409 17.3943C180.409 17.4838 180.348 17.5438 180.226 17.5724C180.105 17.6029 180.059 17.6619 180.089 17.7515C180.211 17.7515 180.272 17.7962 180.272 17.8857ZM181.318 17.7962L181.364 17.7515L181.409 17.7962C181.378 17.7962 181.364 17.8115 181.364 17.841C181.364 17.8705 181.349 17.8857 181.318 17.8857L181.227 17.7962H181.318ZM181.636 18.3763C181.515 18.3477 181.439 18.361 181.409 18.421C181.349 18.481 181.364 18.5106 181.455 18.5106C181.575 18.5106 181.652 18.4953 181.682 18.4658C181.712 18.4658 181.698 18.4363 181.636 18.3763ZM181.729 17.8857C181.729 17.7962 181.758 17.7515 181.819 17.7515C181.849 17.7515 181.863 17.7962 181.863 17.8857C181.863 17.9753 181.833 18.0191 181.773 18.0191C181.743 18.0191 181.729 17.9753 181.729 17.8857ZM177.497 33.3328L177.451 33.2881C177.451 33.229 177.467 33.1985 177.497 33.1985C177.526 33.229 177.557 33.2433 177.587 33.2433L177.497 33.3328ZM180.908 30.565H181C181.03 30.5954 181.045 30.625 181.045 30.6545C181.045 30.744 181.014 30.7593 180.954 30.6993C180.924 30.6697 180.908 30.625 180.908 30.565ZM181.318 30.5202L181.273 30.4754L181.318 30.3868L181.364 30.4754V30.5202L181.318 30.565V30.5202ZM182.228 24.2692C182.258 24.2406 182.319 24.2254 182.41 24.2254C182.441 24.2254 182.456 24.2549 182.456 24.3139C182.456 24.3444 182.394 24.3587 182.274 24.3587C182.243 24.3587 182.228 24.3301 182.228 24.2692ZM182.865 24.3587V24.5378C182.713 24.5378 182.667 24.493 182.728 24.4035C182.728 24.3749 182.774 24.3587 182.865 24.3587ZM183.138 18.4658C183.138 18.4363 183.122 18.421 183.092 18.421V18.3763L183.048 18.421V18.4658L183.092 18.5106L183.138 18.4658Z" fill="#00AAE8"/>
</svg>