<svg width="32" height="26" viewBox="0 0 32 26" fill="none" xmlns="http://www.w3.org/2000/svg">
    <path d="M10.2386 1.85165C11.7195 1.85165 13.0687 2.44399 14.4179 3.00342C14.6154 3.06924 14.7141 3.23377 14.8457 3.36541C14.9774 3.49704 15.109 3.56285 15.3064 3.43122C16.3595 2.64144 17.6429 2.31236 18.7946 1.72002C20.0122 1.06187 21.3614 0.930238 22.7107 0.732792C24.027 0.535345 25.2775 0.831515 26.4621 1.42385C27.1203 1.75293 27.5481 2.34527 27.943 2.93761C28.1075 3.16796 28.1075 3.46413 28.1075 3.72739C28.2062 4.97788 28.5682 6.19547 28.7657 7.44596C28.996 8.72936 29.2593 9.97985 29.4896 11.2632C29.6871 12.3821 29.8516 13.4681 30.0491 14.5869C30.2136 15.4754 30.3781 16.3639 30.5427 17.2524C30.6743 17.9435 30.8059 18.6675 31.1679 19.3585C31.3983 19.7863 31.6615 20.3129 31.2008 20.8065C31.1679 20.8394 31.1679 20.8723 31.1679 20.9052C31.3983 21.3659 31.0363 21.5634 30.773 21.7937C30.4769 22.057 30.1807 22.3202 29.9833 22.6164C29.5225 23.2416 28.9302 23.1758 28.305 23.0113C27.9101 22.9126 27.5152 22.6822 27.0874 22.6164C25.6394 22.3531 24.1915 22.386 22.7765 22.6822C21.9867 22.8467 21.1969 23.0771 20.6375 23.7353C20.5058 23.8998 20.3413 23.9327 20.1768 23.8669C19.6173 23.6365 18.9921 23.6036 18.4327 23.2745C18.0049 23.0113 17.4783 22.9784 16.9847 22.9455C16.0633 22.9126 15.1748 23.1429 14.2863 23.3733C12.7067 23.7682 11.193 24.3276 9.58049 24.6896C9.44886 24.7225 9.31723 24.7883 9.1856 24.8212C9.08688 24.8541 8.95525 24.887 8.85652 24.887C8.59326 24.9199 8.59326 24.3934 8.16546 24.5579C7.9022 24.6567 7.80348 24.2289 7.67185 23.9985C6.91497 22.6493 6.35554 21.2343 5.69738 19.8522C5.30249 19.0295 5.03923 18.141 4.74306 17.2854C4.61143 16.9234 4.51271 16.5614 4.28235 16.2323C4.08491 15.9361 4.08491 15.5742 3.98619 15.2451C3.69002 14.3566 3.42675 13.4352 3.09768 12.5466C2.57116 10.9671 2.01172 9.38751 1.41939 7.84085C1.32066 7.54468 1.25485 7.2156 1.0574 6.91944C0.958679 6.7549 0.991587 6.55745 1.12322 6.36C1.38648 5.99802 1.61683 5.60313 1.81428 5.20824C1.913 5.0437 2.01172 4.87916 2.20917 4.78044C2.3408 4.71462 2.47243 4.64881 2.40662 4.45136C2.37371 4.31973 2.53825 4.25391 2.63697 4.15519C3.32803 3.66157 4.11782 3.39831 4.87469 3.03633C6.45426 2.31236 8.13255 1.91747 9.87666 1.85165C9.97538 1.85165 10.107 1.85165 10.2386 1.85165ZM19.8477 20.3129C19.8477 20.1483 19.8477 20.1154 19.8477 20.0825C19.0908 18.4042 18.5972 16.6272 18.1365 14.8502C17.8732 13.7971 17.7087 12.6783 17.3467 11.6252C16.9518 10.4076 16.524 9.15716 16.162 7.90667C15.8988 7.05107 15.5368 6.26128 15.4052 5.33987C15.3722 5.01079 15.2735 4.6159 15.0103 4.38554C14.5825 4.02356 14.1876 3.56285 13.6281 3.36541C12.7725 3.10214 11.9169 2.77307 10.9955 2.67434C9.90957 2.57562 8.85652 2.67434 7.80348 2.83888C6.52008 3.06924 5.3354 3.62867 4.15072 4.12228C3.98619 4.1881 3.78874 4.28682 3.6242 4.38554C3.29512 4.55008 3.26222 4.6159 3.39385 4.97788C3.42675 5.0766 3.45966 5.14242 3.52548 5.24114C4.01909 6.19547 4.44689 7.14979 4.77597 8.16993C5.10505 9.19006 5.40122 10.2431 5.82902 11.2303C6.65171 13.2377 7.44149 15.278 8.16546 17.3512C8.56035 18.4371 9.11978 19.4573 9.44886 20.5761C9.58049 21.0039 9.74503 21.3988 9.90957 21.8266C10.469 21.3659 11.0942 21.1026 11.7195 20.8394C12.3776 20.5761 13.0358 20.3458 13.694 20.1483C14.7799 19.8192 15.8659 19.4902 17.0505 19.5231C18.0049 19.6547 18.9921 19.6876 19.8477 20.3129ZM30.5756 20.0496C30.5427 19.6547 30.2794 19.3914 30.1807 19.0624C29.8516 17.8448 29.6542 16.6272 29.4238 15.3767C29.1935 14.0933 29.0289 12.777 28.7657 11.4936C28.3708 9.55205 28.1075 7.6105 27.581 5.70185C27.5152 5.43859 27.4494 5.14242 27.4494 4.84625C27.4494 4.31973 27.3506 3.79321 27.2519 3.29959C27.219 3.20087 27.2519 3.06924 27.1532 2.97051C26.6596 2.54271 26.1989 2.08201 25.5407 1.88456C24.1915 1.48967 22.8752 1.52258 21.526 1.78584C20.8678 1.91747 20.2426 2.01619 19.6173 2.31236C19.1237 2.57562 18.5972 2.74016 18.0707 2.93761C17.3138 3.23378 16.5898 3.62867 15.8988 4.05647C15.6684 4.1881 15.6684 4.28682 15.8 4.51717C15.9317 4.74753 15.9975 5.01079 16.0633 5.27405C16.524 6.68908 16.9847 8.10411 17.4454 9.51914C17.4783 9.58496 17.4783 9.65077 17.5112 9.74949C18.0049 10.8025 18.301 11.9214 18.5314 13.0732C18.7617 14.2908 19.1237 15.4754 19.4528 16.6601C19.5844 17.1208 19.6831 17.5815 19.8806 18.0422C20.2097 18.7662 20.5387 19.4902 20.7691 20.28C21.3943 20.0167 22.0196 19.7863 22.6448 19.6876C23.4346 19.556 24.1915 19.1611 24.9813 19.0624C25.8369 18.9636 26.6925 18.8649 27.5152 19.0953C28.4366 19.3585 29.358 19.556 30.2136 19.9509C30.3452 20.0496 30.4111 20.0825 30.5756 20.0496ZM2.66988 5.40568C2.43952 5.63604 2.24208 5.83348 2.04463 6.06384C1.913 6.22837 1.81428 6.39291 1.913 6.59036C2.01172 6.95234 2.11045 7.31433 2.24208 7.6434C2.63697 8.76227 3.06477 9.84822 3.45966 10.9671C3.92037 12.3492 4.51271 13.6984 4.80888 15.1464C4.84179 15.3438 4.9076 15.5412 5.00632 15.6729C5.26959 16.1007 5.40122 16.5943 5.56575 17.0879C5.86192 17.8448 6.09228 18.6346 6.42135 19.3585C6.94788 20.5761 7.57312 21.7608 8.09965 22.9784C8.16546 23.1429 8.23128 23.3404 8.42872 23.4062C8.72489 23.2087 8.79071 22.7809 9.11978 22.6164C9.31723 22.5177 9.25141 22.419 9.21851 22.2544C8.7578 21.0368 8.33 19.8192 7.83638 18.6346C7.4744 17.779 7.17823 16.8905 6.84915 16.0349C6.25682 14.554 5.66448 13.0732 5.07214 11.6252C4.57852 10.3418 4.18363 9.02553 3.75583 7.70922C3.45966 6.91943 3.09768 6.16256 2.66988 5.40568ZM8.98815 23.8669C10.0083 23.7023 10.9955 23.3733 11.9498 23.0771C13.0687 22.7151 14.2205 22.386 15.3722 22.1886C16.5569 21.9582 17.7416 21.9253 18.8605 22.5506C19.0579 22.6822 19.3541 22.6822 19.5844 22.748C19.6502 22.748 19.7161 22.748 19.749 22.7151C19.9135 22.6164 20.1439 21.5304 20.0451 21.3988L20.0122 21.3659C19.5844 21.0039 19.1237 20.6419 18.5643 20.5761C17.2809 20.4445 15.9646 20.4445 14.7141 20.8723C13.1016 21.4317 11.4891 21.9253 10.0083 22.8467C9.54758 23.11 9.25141 23.4391 8.98815 23.8669ZM30.2794 21.0368C29.2922 20.5432 28.2721 20.2141 27.2519 19.9838C26.2647 19.7863 25.2445 19.8522 24.2573 20.2141C23.7308 20.3787 23.2043 20.5432 22.6777 20.6748C21.9867 20.8394 21.3614 21.0039 20.8678 21.5963C20.6704 21.8924 20.5387 22.1557 20.4071 22.4848C20.7362 22.5177 20.9336 22.3531 21.164 22.2544C21.5918 22.0241 22.0525 21.8595 22.5132 21.7937C23.9282 21.4975 25.3762 21.4317 26.8241 21.6621C27.1203 21.695 27.4494 21.7279 27.7455 21.8266C28.2062 22.0241 28.6669 22.1886 29.1277 22.3531C29.5225 22.0241 29.8516 21.5963 30.2136 21.2343C30.2465 21.1685 30.2465 21.1356 30.2794 21.0368Z" fill="white" stroke="white" stroke-width="0.453448"/>
    <path d="M14.2203 5.73448C14.2203 6.03065 14.0887 6.12937 13.8254 6.03065C13.5292 5.89902 13.2331 5.8003 13.0027 5.63576C12.6078 5.40541 12.18 5.43831 11.7851 5.33959C10.6992 5.07633 9.5803 4.91179 8.46144 5.20796C7.63875 5.43831 6.81605 5.76739 6.02627 6.16228C5.89464 6.2281 5.7301 6.42554 5.53265 6.19519C5.26939 5.89902 5.23649 5.76739 5.59847 5.56994C5.99336 5.3725 6.38825 5.17505 6.81605 4.97761C7.77038 4.58271 8.75761 4.15491 9.84356 4.18782C10.1068 4.18782 10.403 4.18782 10.6333 4.25364C11.2257 4.41818 11.8509 4.48399 12.4762 4.58271C13.0685 4.68144 13.5292 5.01051 14.0557 5.27377C14.1216 5.3725 14.2203 5.56994 14.2203 5.73448Z" fill="white" stroke="white" stroke-width="0.453448"/>
    <path d="M13.8581 7.70884C13.8581 7.97211 13.7265 8.07083 13.529 8.00501C12.3444 7.54431 11.1268 7.74175 9.9421 7.84048C9.61302 7.87338 9.28395 7.90629 8.95487 7.9392C8.19799 8.03792 7.47402 8.23537 6.88168 8.72898C6.71715 8.86061 6.48679 9.05806 6.25644 8.82771C6.0919 8.66317 6.15772 8.30118 6.38807 8.10374C6.61842 7.90629 6.88168 7.70884 7.14495 7.57721C7.60565 7.34686 8.06636 7.18232 8.55998 7.11651C9.48139 6.98488 10.4028 6.85324 11.3242 6.85324C11.9824 6.85324 12.6405 6.82034 13.2658 7.0836C13.5949 7.18232 13.7923 7.37977 13.8581 7.70884Z" fill="white" stroke="white" stroke-width="0.453448"/>
    <path d="M7.14648 11.394C7.17939 11.2624 7.17939 11.0979 7.31102 10.9991C7.87045 10.6372 8.33116 10.1106 8.95641 9.84738C9.3513 9.68284 9.7791 9.61702 10.2069 9.55121C11.227 9.38667 12.2143 9.22213 13.2673 9.41958C13.5635 9.48539 13.8597 9.58412 14.1229 9.71575C14.1887 9.74866 14.2545 9.78156 14.3204 9.84738C14.4191 9.97901 14.5178 10.1435 14.4191 10.3081C14.3204 10.4726 14.1558 10.4397 13.9913 10.4068C13.3331 10.1765 12.6421 10.1106 11.9181 10.1765C10.9638 10.2423 10.0424 10.3739 9.12095 10.6701C8.72605 10.8017 8.46279 11.065 8.16662 11.3282C7.96918 11.4599 7.80464 11.6244 7.57428 11.7231C7.31102 11.8547 7.17939 11.756 7.14648 11.394Z" fill="white" stroke="white" stroke-width="0.453448"/>
    <path d="M12.2136 11.9878C12.5427 12.0207 12.9046 11.9878 13.2666 12.0865C13.6944 12.1852 14.1551 12.0207 14.5829 12.1194C15.0107 12.1852 15.2411 12.4156 15.3398 12.7447C15.3727 12.8763 15.3727 13.0079 15.2411 13.1067C15.1095 13.2054 15.0436 13.1396 14.912 13.0737C14.8462 13.0408 14.7475 12.9421 14.6487 12.9421C13.5957 12.9421 12.5427 12.5472 11.4896 12.8105C10.6011 13.0408 9.84423 13.5345 9.05444 13.9952C8.92281 14.061 8.79118 14.1597 8.65955 14.2255C8.36338 14.3571 8.19884 14.2255 8.23175 13.9293C8.23175 13.7319 8.29757 13.5345 8.49501 13.4357C8.72537 13.2712 8.95572 13.0737 9.21898 12.9421C9.7126 12.6789 10.2062 12.4156 10.7327 12.1852C11.1934 11.9878 11.6871 11.9878 12.2136 11.9878Z" fill="white" stroke="white" stroke-width="0.453448"/>
    <path d="M14.8121 17.4171C15.3716 17.3184 15.9968 17.5487 16.5892 17.7132C16.7866 17.7791 16.984 17.8778 17.0828 18.1081C17.1815 18.3714 17.0828 18.5359 16.7866 18.5359C16.6879 18.5359 16.5562 18.503 16.4575 18.4701C14.6147 18.0423 12.8377 18.174 11.1265 18.9308C10.9949 18.9966 10.8303 19.0296 10.6987 19.0625C10.5671 19.0954 10.4025 19.1283 10.3367 18.9637C10.238 18.7992 10.238 18.6347 10.3696 18.4701C10.5341 18.3056 10.7645 18.2069 10.9619 18.1081C12.1466 17.5816 13.3971 17.3184 14.8121 17.4171Z" fill="white" stroke="white" stroke-width="0.453448"/>
    <path d="M13.4633 15.2114C12.2786 15.2773 11.2585 15.6063 10.2712 16.0999C10.2054 16.1328 10.1725 16.1658 10.1396 16.1987C9.97507 16.2974 9.81053 16.4619 9.61308 16.2316C9.48145 16.067 9.51436 15.7709 9.6789 15.6063C9.90925 15.376 10.2054 15.1785 10.5016 15.0798C10.8965 14.9482 11.2585 14.7836 11.6205 14.6191C12.1799 14.3558 12.8051 14.3558 13.3975 14.3558C13.7265 14.3558 14.0885 14.4217 14.4505 14.4546C14.8125 14.5204 15.1416 14.6191 15.3719 14.9153C15.5036 15.0469 15.5694 15.2114 15.4377 15.4089C15.339 15.5734 15.1745 15.5076 15.0099 15.4418C14.5163 15.2114 13.924 15.376 13.4633 15.2114Z" fill="white" stroke="white" stroke-width="0.453448"/>
    <path d="M22.4802 3.26636C22.9409 3.26636 23.4345 3.33217 23.8952 3.4309C24.2901 3.49671 24.5533 3.72707 24.6521 4.12196C24.685 4.25359 24.6521 4.35231 24.5862 4.45103C24.4875 4.54976 24.3888 4.54976 24.2901 4.48394C23.3028 4.02323 22.2498 4.08905 21.2297 4.25359C20.3082 4.41813 19.4526 4.7472 18.63 5.175C18.3996 5.27373 18.2351 5.47117 18.0376 5.63571C17.906 5.70153 17.7744 5.80025 17.6427 5.70153C17.4782 5.6028 17.4782 5.43826 17.5111 5.30663C17.5769 4.94465 17.8073 4.64848 18.1034 4.48394C19.4526 3.72706 20.9006 3.33217 22.4802 3.26636Z" fill="white" stroke="white" stroke-width="0.453448"/>
    <path d="M22.0186 5.86633C22.9071 5.93215 23.8285 5.96506 24.717 6.19541C25.079 6.29413 25.2764 6.49158 25.3751 6.85357C25.441 7.11683 25.2435 7.31427 24.9803 7.18264C24.0917 6.85357 23.1703 6.75484 22.2489 6.72193C21.492 6.68903 20.7681 6.91938 20.077 7.21555C19.6492 7.413 19.1885 7.64335 18.7607 7.8408C18.662 7.8737 18.5633 7.97243 18.4316 7.8737C18.3 7.77498 18.2342 7.61044 18.2671 7.4459C18.3329 7.21555 18.4316 7.0181 18.6949 6.91938C19.5176 6.5903 20.2415 6.1296 21.0971 5.93215C21.3933 5.93215 21.6895 5.83343 22.0186 5.86633Z" fill="white" stroke="white" stroke-width="0.453448"/>
    <path d="M26.2318 14.7517C25.5407 14.653 24.8497 14.5214 24.1257 14.6201C23.0727 14.7517 21.9867 14.7188 21.0324 15.2783C20.9008 15.377 20.7033 15.4757 20.5717 15.2454C20.473 15.0479 20.3742 14.8176 20.6375 14.6201C20.9995 14.3239 21.3944 14.1265 21.8222 14.0607C23.2043 13.8632 24.6193 13.6 26.0344 13.8961C26.2647 13.962 26.4622 14.0278 26.5938 14.2581C26.7583 14.5543 26.6267 14.7517 26.2318 14.7517Z" fill="white" stroke="white" stroke-width="0.453448"/>
    <path d="M24.4863 16.9234C23.532 16.9893 22.3802 17.1538 21.3271 17.779C21.1626 17.8778 20.9652 17.9765 20.8335 17.7461C20.7019 17.5487 20.7348 17.3512 20.9322 17.1867C21.0968 17.0551 21.2613 16.8905 21.4588 16.8247C23.0054 16.2324 24.5521 15.8704 26.1975 16.2653C26.5266 16.3311 26.7569 16.4956 26.8556 16.8247C26.9214 17.088 26.8227 17.2525 26.5595 17.2196C26.4278 17.2196 26.2962 17.1538 26.1646 17.1209C25.671 16.9564 25.2102 16.9234 24.4863 16.9234Z" fill="white" stroke="white" stroke-width="0.453448"/>
    <path d="M24.7501 9.58516C24.6843 9.58516 24.6184 9.58516 24.5526 9.58516C23.5325 9.32189 22.5453 9.51934 21.558 9.68388C20.9328 9.7826 20.3404 10.013 19.8139 10.4408C19.5507 10.6711 19.3861 10.6053 19.3203 10.2762C19.2545 9.94714 19.3532 9.74969 19.6494 9.55225C20.5379 8.95991 21.5251 8.76246 22.5453 8.69665C22.8085 8.66374 23.0389 8.66374 23.3021 8.63083C23.8287 8.56502 24.3223 8.76246 24.8488 8.86119C25.1121 8.927 25.3424 9.19026 25.2766 9.38771C25.2108 9.65097 24.9804 9.58516 24.7501 9.58516Z" fill="white" stroke="white" stroke-width="0.453448"/>
    <path d="M23.2374 11.0651C23.731 10.9993 24.1918 11.1638 24.7183 11.1967C25.0474 11.2296 25.2777 11.46 25.3764 11.789C25.4422 12.0523 25.2777 12.2497 25.0474 12.151C24.6196 11.9536 24.1588 12.0194 23.731 11.9536C22.6451 11.789 21.625 12.1181 20.6706 12.6776C20.5719 12.7434 20.4732 12.8092 20.3745 12.875C20.177 12.9737 20.0125 13.1383 19.815 12.9408C19.6505 12.7763 19.7492 12.3156 19.9467 12.151L19.9796 12.1181C20.9997 11.5587 22.0199 10.9993 23.2374 11.0651Z" fill="white" stroke="white" stroke-width="0.453448"/>
</svg>