<svg width="209" height="53" viewBox="0 0 209 53" fill="none" xmlns="http://www.w3.org/2000/svg">
    <path d="M9.7055 10.5C-4.2945 18.1 -0.127836 32.6667 3.7055 39C7.70583 46.6 19.7051 46.91 33.7051 47.5C77.2051 49.3333 167.705 52.9 181.705 52.5C199.205 52 209.205 41 208.705 21C208.305 5 192.205 0.333333 184.205 0C131.872 0.333333 23.7055 2.9 9.7055 10.5Z" fill="#DE5935"/>
    <path fill-rule="evenodd" clip-rule="evenodd" d="M181.319 4.35547C170.669 4.35547 156 13.0962 156 24.6777C156 36.2592 170.669 44.9999 181.319 44.9999C191.969 44.9999 200.61 36.2592 200.61 24.6777C200.61 13.0962 191.969 4.35547 181.319 4.35547Z" fill="white"/>
    <path fill-rule="evenodd" clip-rule="evenodd" d="M186.595 24.1806C186.625 24.0615 186.625 23.9129 186.595 23.7339V23.4662C186.595 23.3177 186.565 23.2138 186.504 23.1538C186.413 23.0643 186.413 23.0052 186.504 22.9748C186.655 22.8852 186.731 22.8119 186.731 22.7519C186.731 22.7224 186.7 22.6481 186.641 22.5281L186.549 22.35L186.504 22.2604C186.474 22.2318 186.459 22.1871 186.459 22.1271V21.8585C186.459 21.7994 186.504 21.7251 186.595 21.6356C186.625 21.6356 186.641 21.6061 186.641 21.547C186.641 21.487 186.625 21.4575 186.595 21.4575C186.474 21.3975 186.382 21.2784 186.322 21.1003C186.26 20.8622 186.216 20.7279 186.185 20.6984C186.094 20.6688 186.019 20.5498 185.957 20.3412C185.927 20.2221 185.867 20.1174 185.776 20.0288L185.73 19.8945C185.73 19.805 185.715 19.7754 185.685 19.805C185.563 19.8945 185.488 19.924 185.458 19.8945V19.6269L185.184 19.4926C185.154 19.463 185.048 19.3887 184.866 19.2697C184.834 19.2402 184.775 19.2106 184.684 19.1801C184.593 19.1506 184.532 19.1211 184.502 19.0906L184.183 18.7782C183.971 18.5706 183.82 18.481 183.728 18.5106C183.517 18.5706 183.349 18.4506 183.228 18.1534C183.076 17.8857 182.955 17.7515 182.864 17.7515C182.53 17.7515 182.318 17.6333 182.228 17.3943C182.167 17.3352 182.091 17.32 182 17.3495C181.909 17.38 181.772 17.3047 181.591 17.1266C181.439 16.9476 181.332 16.799 181.273 16.6799L181.363 16.5904C181.393 16.5904 181.409 16.5761 181.409 16.5456C181.317 16.4275 181.212 16.4275 181.089 16.5456V16.6352C181.089 16.7247 181.075 16.7695 181.045 16.7695C180.983 16.7695 180.953 16.7095 180.953 16.5904C180.983 16.5009 180.908 16.3675 180.726 16.1885C180.695 16.1589 180.651 16.1589 180.589 16.1885C180.528 16.2189 180.483 16.2342 180.453 16.2342C180.423 16.1446 180.391 16.0846 180.362 16.0551L180.181 16.1446C180.089 16.2342 179.997 16.2037 179.907 16.0551C179.756 15.8465 179.589 15.7722 179.407 15.8313C179.315 15.8618 179.225 15.8313 179.134 15.7417C178.952 15.5941 178.709 15.4598 178.406 15.3408C177.981 15.1331 177.738 14.9988 177.678 14.9388C177.648 14.9093 177.542 14.8941 177.36 14.8941C177.147 14.8941 177.041 14.7902 177.041 14.5816C177.041 14.4026 176.95 14.374 176.768 14.4921C176.646 14.5816 176.556 14.5969 176.495 14.5369C176.405 14.4473 176.313 14.4026 176.222 14.4026C176.101 14.4026 176.025 14.3883 175.995 14.3588C175.905 14.2692 175.782 14.2692 175.631 14.3588C175.509 14.4473 175.418 14.4626 175.358 14.4026L175.266 14.3131C175.176 14.2245 175.13 14.2692 175.13 14.4473C175.13 14.775 175.085 15.0131 174.994 15.1617C175.055 15.2512 175.085 15.3408 175.085 15.4293V15.6084L175.039 15.697C175.009 15.697 174.994 15.7122 174.994 15.7417L174.858 15.876C174.827 15.9951 174.827 16.0846 174.858 16.1446C174.888 16.1742 174.903 16.278 174.903 16.4561V16.9476L174.994 17.3495L175.13 17.7515C174.796 18.2582 174.842 18.6449 175.266 18.9125C175.176 19.0316 175.16 19.1354 175.221 19.2249C175.283 19.3745 175.297 19.4926 175.266 19.5821C175.266 19.6116 175.297 19.6564 175.358 19.7164C175.418 19.7754 175.433 19.8354 175.403 19.8945C175.342 19.9545 175.313 20.0136 175.313 20.0726C175.313 20.1326 175.358 20.1326 175.449 20.0726C175.66 20.0136 175.797 20.044 175.858 20.1621C176.191 20.5193 176.525 20.6689 176.86 20.6088C176.889 20.5803 177.056 20.6384 177.36 20.787C177.207 20.966 177.238 21.0708 177.45 21.1003C177.966 21.1594 178.375 21.3832 178.678 21.7699C178.74 21.8299 178.83 21.8585 178.952 21.8585C179.042 21.8585 179.118 21.9032 179.179 21.9928C179.331 22.3214 179.498 22.4842 179.68 22.4842C179.71 22.5433 179.846 22.6252 180.089 22.729C180.331 22.8338 180.437 22.991 180.408 23.1986C180.437 23.2881 180.514 23.3177 180.636 23.2881C180.969 23.1386 181.165 23.1986 181.226 23.4662C181.287 23.5558 181.363 23.5996 181.454 23.5996C181.514 23.5996 181.728 23.6891 182.091 23.8682C182.12 23.8977 182.12 23.973 182.091 24.092C182.03 24.1511 181.984 24.2254 181.955 24.3139C181.924 24.4035 181.848 24.4787 181.728 24.5378C181.666 24.5978 181.423 24.7759 180.999 25.073C180.999 25.2826 180.892 25.3855 180.681 25.3855C180.499 25.3855 180.377 25.4159 180.317 25.475C180.287 25.3855 180.21 25.3712 180.089 25.4302C179.967 25.5493 179.816 25.6836 179.634 25.8331C179.301 26.1008 179.089 26.2493 178.997 26.2789C178.906 26.3389 178.634 26.5627 178.179 26.9485C177.784 27.2771 177.496 27.4694 177.314 27.5295L176.768 27.9304C176.434 28.139 176.313 28.4524 176.405 28.8686C176.405 28.9877 176.389 29.0467 176.358 29.0467C176.298 29.0772 176.268 29.1658 176.268 29.3153V29.6277C176.268 29.7163 176.282 29.7916 176.313 29.8506C176.343 29.9106 176.358 30.0144 176.358 30.163C176.358 30.2526 176.282 30.3268 176.132 30.3868C176.101 30.3868 176.086 30.424 176.086 30.4983C176.086 30.5726 176.101 30.6097 176.132 30.6097C176.222 30.6697 176.268 30.7593 176.268 30.8774C176.268 30.9964 176.282 31.0717 176.313 31.1012C176.465 31.1603 176.48 31.265 176.358 31.4136C176.268 31.5327 176.222 31.607 176.222 31.6365C176.222 31.6965 176.268 31.9784 176.358 32.4851C176.45 32.9614 176.419 33.229 176.268 33.2881C176.268 33.6167 176.313 33.8395 176.405 33.9576C176.434 34.0776 176.495 34.1072 176.586 34.0472C176.768 33.9576 176.874 33.9729 176.905 34.0919C177.026 34.331 176.996 34.4653 176.813 34.4939C176.662 34.4939 176.586 34.5539 176.586 34.672C176.617 34.7025 176.707 34.7472 176.86 34.8063H177.041H177.268C177.298 34.8063 177.344 34.8511 177.405 34.9396C177.435 35.1187 177.557 35.1349 177.769 34.9853L177.905 34.8511C178.026 34.7025 178.133 34.5682 178.223 34.4491C178.436 34.211 178.617 34.0186 178.77 33.8691C178.83 33.81 178.891 33.7652 178.952 33.7357C179.073 33.6757 179.148 33.6309 179.179 33.6014C179.239 33.5414 179.27 33.4824 179.27 33.4224C179.331 33.3042 179.391 33.2433 179.452 33.2433C179.544 33.2433 179.589 33.229 179.589 33.1985V33.1099C179.619 32.9909 179.695 32.9756 179.816 33.0652C179.846 33.0357 179.877 32.9756 179.907 32.8871C179.937 32.8271 179.953 32.768 179.953 32.708C179.953 32.6794 179.967 32.6632 179.997 32.6632C180.089 32.6928 180.181 32.708 180.271 32.708L180.225 32.5737V32.4404C180.317 32.2318 180.415 32.128 180.521 32.128C180.627 32.128 180.847 31.9641 181.181 31.6365C181.302 31.4288 181.423 31.3393 181.544 31.3688C181.575 31.3688 181.636 31.3241 181.728 31.2355C181.757 31.086 181.833 31.0269 181.955 31.0564C181.984 31.0269 182 30.9821 182 30.9221C182 30.8936 181.97 30.8774 181.909 30.8774H181.772C181.742 30.8478 181.757 30.8031 181.818 30.744L182.592 30.3868C182.683 30.3268 182.697 30.2678 182.636 30.2078C182.546 30.1183 182.53 30.0735 182.592 30.0735L182.864 29.9401L183.137 29.8506C182.955 29.7611 182.94 29.6877 183.091 29.6277C183.243 29.5677 183.32 29.5087 183.32 29.4487C183.289 29.3601 183.334 29.3001 183.455 29.2706L183.638 29.2258C183.698 29.1658 183.744 29.0915 183.774 29.002C183.804 28.8839 183.865 28.8239 183.956 28.8239C184.259 28.7943 184.487 28.6162 184.638 28.2886C184.73 28.1095 184.82 28.02 184.912 28.02C185.124 28.0495 185.267 28.02 185.344 27.9304C185.419 27.8419 185.427 27.7076 185.367 27.5295C185.367 27.3809 185.382 27.2771 185.412 27.217C185.442 27.1275 185.518 27.0685 185.639 27.038L185.821 26.9485H185.912L186.004 26.8589C186.004 26.7694 186.072 26.6741 186.208 26.5694C186.344 26.4656 186.413 26.3684 186.413 26.2789C186.413 25.9217 186.518 25.7283 186.731 25.6988V25.5645C186.61 25.4464 186.61 25.2378 186.731 24.9397C186.518 24.7321 186.474 24.4787 186.595 24.1806ZM175.585 15.0722L175.677 15.0284H175.721L175.768 15.0722L175.677 15.1169C175.677 15.1474 175.66 15.1617 175.631 15.1617L175.585 15.0722ZM175.585 14.8045L175.677 14.7598C175.677 14.7302 175.691 14.715 175.721 14.715L175.768 14.8045L175.677 14.8493H175.631L175.585 14.8045ZM178.087 15.9656C178.118 15.9951 178.133 16.0703 178.133 16.1885C178.133 16.2189 178.118 16.2485 178.087 16.278C178.026 16.2189 177.997 16.1589 177.997 16.0999C177.997 16.0703 178.026 16.0256 178.087 15.9656ZM178.087 16.6352C178.148 16.6352 178.179 16.6799 178.179 16.7695H177.997C177.997 16.6799 178.026 16.6352 178.087 16.6352ZM178.451 16.7695C178.481 16.7399 178.467 16.6504 178.406 16.5009C178.345 16.3828 178.315 16.3085 178.315 16.278C178.315 16.1885 178.36 16.1446 178.451 16.1446C178.603 16.1446 178.678 16.1742 178.678 16.2342V16.7695H178.451ZM180.271 17.8857H180.089V17.7515C179.997 17.7515 179.953 17.6619 179.953 17.4838C179.953 17.4543 179.937 17.4248 179.907 17.3943V17.3495V17.1704C179.907 17.1419 179.967 17.1266 180.089 17.1266C180.271 17.1266 180.377 17.2152 180.408 17.3943C180.408 17.4838 180.347 17.5438 180.225 17.5724C180.104 17.6029 180.059 17.6619 180.089 17.7515C180.21 17.7515 180.271 17.7962 180.271 17.8857ZM181.317 17.7962L181.363 17.7515L181.409 17.7962C181.377 17.7962 181.363 17.8115 181.363 17.841C181.363 17.8705 181.348 17.8857 181.317 17.8857L181.226 17.7962H181.317ZM181.636 18.3763C181.514 18.3477 181.439 18.361 181.409 18.421C181.348 18.481 181.363 18.5106 181.454 18.5106C181.575 18.5106 181.651 18.4953 181.681 18.4658C181.711 18.4658 181.697 18.4363 181.636 18.3763ZM181.728 17.8857C181.728 17.7962 181.757 17.7515 181.818 17.7515C181.848 17.7515 181.863 17.7962 181.863 17.8857C181.863 17.9753 181.833 18.0191 181.772 18.0191C181.742 18.0191 181.728 17.9753 181.728 17.8857ZM177.496 33.3328L177.45 33.2881C177.45 33.229 177.466 33.1985 177.496 33.1985C177.525 33.229 177.557 33.2433 177.587 33.2433L177.496 33.3328ZM180.908 30.565H180.999C181.029 30.5954 181.045 30.625 181.045 30.6545C181.045 30.744 181.014 30.7593 180.953 30.6993C180.923 30.6697 180.908 30.625 180.908 30.565ZM181.317 30.5202L181.273 30.4754L181.317 30.3868L181.363 30.4754V30.5202L181.317 30.565V30.5202ZM182.228 24.2692C182.257 24.2406 182.318 24.2254 182.409 24.2254C182.44 24.2254 182.455 24.2549 182.455 24.3139C182.455 24.3444 182.394 24.3587 182.273 24.3587C182.242 24.3587 182.228 24.3301 182.228 24.2692ZM182.864 24.3587V24.5378C182.712 24.5378 182.666 24.493 182.727 24.4035C182.727 24.3749 182.773 24.3587 182.864 24.3587ZM183.137 18.4658C183.137 18.4363 183.122 18.421 183.091 18.421V18.3763L183.047 18.421V18.4658L183.091 18.5106L183.137 18.4658Z" fill="#DE5935"/>
</svg>