<svg width="209" height="53" viewBox="0 0 209 53" fill="none" xmlns="http://www.w3.org/2000/svg">
    <path d="M199.017 10.5C213.017 18.1 208.85 32.6667 205.017 39C201.017 46.6 189.018 46.91 175.018 47.5C131.518 49.3333 41.0176 52.9 27.0176 52.5C9.51758 52 -0.482422 41 0.0175781 21C0.417572 5 16.5176 0.333333 24.5176 0C76.8508 0.333333 185.017 2.9 199.017 10.5Z" fill="#00AAE8"/>
    <path fill-rule="evenodd" clip-rule="evenodd" d="M27.4036 4.35547C38.0537 4.35547 52.7227 13.0962 52.7227 24.6777C52.7227 36.2592 38.0537 44.9999 27.4036 44.9999C16.7535 44.9999 8.1129 36.2592 8.1129 24.6777C8.1129 13.0962 16.7535 4.35547 27.4036 4.35547Z" fill="white"/>
    <path fill-rule="evenodd" clip-rule="evenodd" d="M22.1276 24.1806C22.0975 24.0615 22.0975 23.9129 22.1276 23.7339V23.4662C22.1276 23.3177 22.1577 23.2138 22.2189 23.1538C22.3101 23.0643 22.3101 23.0052 22.2189 22.9748C22.0675 22.8852 21.9918 22.8119 21.9918 22.7519C21.9918 22.7224 22.0228 22.6481 22.082 22.5281L22.1732 22.35L22.2189 22.2604C22.2489 22.2318 22.2635 22.1871 22.2635 22.1271V21.8585C22.2635 21.7994 22.2189 21.7251 22.1276 21.6356C22.0975 21.6356 22.082 21.6061 22.082 21.547C22.082 21.487 22.0975 21.4575 22.1276 21.4575C22.2489 21.3975 22.3411 21.2784 22.4003 21.1003C22.4625 20.8622 22.5071 20.7279 22.5372 20.6984C22.6284 20.6688 22.7041 20.5498 22.7653 20.3412C22.7954 20.2221 22.8555 20.1174 22.9468 20.0288L22.9924 19.8945C22.9924 19.805 23.0079 19.7754 23.038 19.805C23.1593 19.8945 23.235 19.924 23.2651 19.8945V19.6269L23.5388 19.4926C23.5689 19.463 23.6746 19.3887 23.8571 19.2697C23.8882 19.2402 23.9474 19.2106 24.0386 19.1801C24.1298 19.1506 24.191 19.1211 24.2211 19.0906L24.5394 18.7782C24.7519 18.5706 24.9024 18.481 24.9946 18.5106C25.2061 18.5706 25.374 18.4506 25.4944 18.1534C25.6467 17.8857 25.7681 17.7515 25.8583 17.7515C26.1922 17.7515 26.4047 17.6333 26.495 17.3943C26.5561 17.3352 26.6318 17.32 26.7231 17.3495C26.8133 17.38 26.9502 17.3047 27.1316 17.1266C27.284 16.9476 27.3908 16.799 27.45 16.6799L27.3597 16.5904C27.3296 16.5904 27.3141 16.5761 27.3141 16.5456C27.4053 16.4275 27.5111 16.4275 27.6334 16.5456V16.6352C27.6334 16.7247 27.648 16.7695 27.6781 16.7695C27.7392 16.7695 27.7693 16.7095 27.7693 16.5904C27.7392 16.5009 27.8149 16.3675 27.9964 16.1885C28.0274 16.1589 28.0721 16.1589 28.1332 16.1885C28.1944 16.2189 28.24 16.2342 28.2701 16.2342C28.3002 16.1446 28.3312 16.0846 28.3603 16.0551L28.5418 16.1446C28.634 16.2342 28.7252 16.2037 28.8155 16.0551C28.9669 15.8465 29.1338 15.7722 29.3153 15.8313C29.4075 15.8618 29.4978 15.8313 29.589 15.7417C29.7705 15.5941 30.0141 15.4598 30.3169 15.3408C30.742 15.1331 30.9846 14.9988 31.0448 14.9388C31.0749 14.9093 31.1807 14.8941 31.3631 14.8941C31.5757 14.8941 31.6815 14.7902 31.6815 14.5816C31.6815 14.4026 31.7727 14.374 31.9542 14.4921C32.0765 14.5816 32.1667 14.5969 32.2279 14.5369C32.3181 14.4473 32.4093 14.4026 32.5006 14.4026C32.6219 14.4026 32.6976 14.3883 32.7277 14.3588C32.8179 14.2692 32.9402 14.2692 33.0916 14.3588C33.2139 14.4473 33.3042 14.4626 33.3643 14.4026L33.4565 14.3131C33.5468 14.2245 33.5924 14.2692 33.5924 14.4473C33.5924 14.775 33.638 15.0131 33.7283 15.1617C33.6681 15.2512 33.638 15.3408 33.638 15.4293V15.6084L33.6836 15.697C33.7137 15.697 33.7283 15.7122 33.7283 15.7417L33.8651 15.876C33.8952 15.9951 33.8952 16.0846 33.8651 16.1446C33.835 16.1742 33.8195 16.278 33.8195 16.4561V16.9476L33.7283 17.3495L33.5924 17.7515C33.9263 18.2582 33.8807 18.6449 33.4565 18.9125C33.5468 19.0316 33.5623 19.1354 33.5012 19.2249C33.44 19.3745 33.4255 19.4926 33.4565 19.5821C33.4565 19.6116 33.4255 19.6564 33.3643 19.7164C33.3042 19.7754 33.2896 19.8354 33.3197 19.8945C33.3808 19.9545 33.41 20.0136 33.41 20.0726C33.41 20.1326 33.3643 20.1326 33.2741 20.0726C33.0625 20.0136 32.9257 20.044 32.8645 20.1621C32.5316 20.5193 32.1978 20.6689 31.8629 20.6088C31.8338 20.5803 31.6669 20.6384 31.3631 20.787C31.5155 20.966 31.4844 21.0708 31.2729 21.1003C30.7565 21.1594 30.348 21.3832 30.0442 21.7699C29.983 21.8299 29.8928 21.8585 29.7705 21.8585C29.6802 21.8585 29.6045 21.9032 29.5434 21.9928C29.392 22.3214 29.2251 22.4842 29.0426 22.4842C29.0125 22.5433 28.8766 22.6252 28.634 22.729C28.3914 22.8338 28.2856 22.991 28.3147 23.1986C28.2856 23.2881 28.2089 23.3177 28.0866 23.2881C27.7538 23.1386 27.5577 23.1986 27.4966 23.4662C27.4354 23.5558 27.3597 23.5996 27.2685 23.5996C27.2083 23.5996 26.9948 23.6891 26.6318 23.8682C26.6027 23.8977 26.6027 23.973 26.6318 24.092C26.693 24.1511 26.7386 24.2254 26.7677 24.3139C26.7988 24.4035 26.8745 24.4787 26.9948 24.5378C27.0569 24.5978 27.2995 24.7759 27.7237 25.073C27.7237 25.2826 27.8304 25.3855 28.042 25.3855C28.2235 25.3855 28.3458 25.4159 28.4059 25.475C28.436 25.3855 28.5127 25.3712 28.634 25.4302C28.7553 25.5493 28.9067 25.6836 29.0882 25.8331C29.4221 26.1008 29.6337 26.2493 29.7259 26.2789C29.8171 26.3389 30.0888 26.5627 30.544 26.9485C30.939 27.2771 31.2263 27.4694 31.4087 27.5295L31.9542 27.9304C32.289 28.139 32.4093 28.4524 32.3181 28.8686C32.3181 28.9877 32.3336 29.0467 32.3647 29.0467C32.4249 29.0772 32.455 29.1658 32.455 29.3153V29.6277C32.455 29.7163 32.4404 29.7916 32.4093 29.8506C32.3793 29.9106 32.3647 30.0144 32.3647 30.163C32.3647 30.2526 32.4404 30.3268 32.5908 30.3868C32.6219 30.3868 32.6364 30.424 32.6364 30.4983C32.6364 30.5726 32.6219 30.6097 32.5908 30.6097C32.5006 30.6697 32.455 30.7593 32.455 30.8774C32.455 30.9964 32.4404 31.0717 32.4093 31.1012C32.2579 31.1603 32.2424 31.265 32.3647 31.4136C32.455 31.5327 32.5006 31.607 32.5006 31.6365C32.5006 31.6965 32.455 31.9784 32.3647 32.4851C32.2725 32.9614 32.3036 33.229 32.455 33.2881C32.455 33.6167 32.4093 33.8395 32.3181 33.9576C32.289 34.0776 32.2279 34.1072 32.1366 34.0472C31.9542 33.9576 31.8484 33.9729 31.8173 34.0919C31.697 34.331 31.7271 34.4653 31.9095 34.4939C32.0609 34.4939 32.1366 34.5539 32.1366 34.672C32.1056 34.7025 32.0153 34.7472 31.8629 34.8063H31.6815H31.4544C31.4243 34.8063 31.3787 34.8511 31.3175 34.9396C31.2874 35.1187 31.1661 35.1349 30.9536 34.9853L30.8177 34.8511C30.6964 34.7025 30.5896 34.5682 30.4994 34.4491C30.2868 34.211 30.1053 34.0186 29.953 33.8691C29.8928 33.81 29.8316 33.7652 29.7705 33.7357C29.6502 33.6757 29.5745 33.6309 29.5434 33.6014C29.4832 33.5414 29.4522 33.4824 29.4522 33.4224C29.392 33.3042 29.3318 33.2433 29.2707 33.2433C29.1785 33.2433 29.1338 33.229 29.1338 33.1985V33.1099C29.1037 32.9909 29.028 32.9756 28.9067 33.0652C28.8766 33.0357 28.8456 32.9756 28.8155 32.8871C28.7854 32.8271 28.7699 32.768 28.7699 32.708C28.7699 32.6794 28.7553 32.6632 28.7252 32.6632C28.634 32.6928 28.5418 32.708 28.4516 32.708L28.4972 32.5737V32.4404C28.4059 32.2318 28.3079 32.128 28.2021 32.128C28.0954 32.128 27.876 31.9641 27.5412 31.6365C27.4209 31.4288 27.2995 31.3393 27.1782 31.3688C27.1481 31.3688 27.087 31.3241 26.9948 31.2355C26.9657 31.086 26.89 31.0269 26.7677 31.0564C26.7386 31.0269 26.7231 30.9821 26.7231 30.9221C26.7231 30.8936 26.7531 30.8774 26.8133 30.8774H26.9502C26.9802 30.8478 26.9657 30.8031 26.9045 30.744L26.131 30.3868C26.0398 30.3268 26.0253 30.2678 26.0864 30.2078C26.1767 30.1183 26.1922 30.0735 26.131 30.0735L25.8583 29.9401L25.5856 29.8506C25.7681 29.7611 25.7826 29.6877 25.6312 29.6277C25.4798 29.5677 25.4031 29.5087 25.4031 29.4487C25.4332 29.3601 25.3886 29.3001 25.2673 29.2706L25.0848 29.2258C25.0246 29.1658 24.979 29.0915 24.9489 29.002C24.9189 28.8839 24.8577 28.8239 24.7665 28.8239C24.4637 28.7943 24.2356 28.6162 24.0842 28.2886C23.993 28.1095 23.9027 28.02 23.8105 28.02C23.5989 28.0495 23.4553 28.02 23.3786 27.9304C23.3039 27.8419 23.2961 27.7076 23.3553 27.5295C23.3553 27.3809 23.3408 27.2771 23.3107 27.217C23.2806 27.1275 23.2049 27.0685 23.0836 27.038L22.9021 26.9485H22.8109L22.7187 26.8589C22.7187 26.7694 22.6507 26.6741 22.5149 26.5694C22.379 26.4656 22.3101 26.3684 22.3101 26.2789C22.3101 25.9217 22.2043 25.7283 21.9918 25.6988V25.5645C22.1131 25.4464 22.1131 25.2378 21.9918 24.9397C22.2043 24.7321 22.2489 24.4787 22.1276 24.1806ZM33.1372 15.0722L33.046 15.0284H33.0014L32.9548 15.0722L33.046 15.1169C33.046 15.1474 33.0625 15.1617 33.0916 15.1617L33.1372 15.0722ZM33.1372 14.8045L33.046 14.7598C33.046 14.7302 33.0315 14.715 33.0014 14.715L32.9548 14.8045L33.046 14.8493H33.0916L33.1372 14.8045ZM30.6352 15.9656C30.6051 15.9951 30.5896 16.0703 30.5896 16.1885C30.5896 16.2189 30.6051 16.2485 30.6352 16.278C30.6964 16.2189 30.7255 16.1589 30.7255 16.0999C30.7255 16.0703 30.6964 16.0256 30.6352 15.9656ZM30.6352 16.6352C30.5751 16.6352 30.544 16.6799 30.544 16.7695H30.7255C30.7255 16.6799 30.6964 16.6352 30.6352 16.6352ZM30.2713 16.7695C30.2412 16.7399 30.2558 16.6504 30.3169 16.5009C30.378 16.3828 30.4072 16.3085 30.4072 16.278C30.4072 16.1885 30.3625 16.1446 30.2713 16.1446C30.1199 16.1446 30.0442 16.1742 30.0442 16.2342V16.7695H30.2713ZM28.4516 17.8857H28.634V17.7515C28.7252 17.7515 28.7699 17.6619 28.7699 17.4838C28.7699 17.4543 28.7854 17.4248 28.8155 17.3943V17.3495V17.1704C28.8155 17.1419 28.7553 17.1266 28.634 17.1266C28.4516 17.1266 28.3458 17.2152 28.3147 17.3943C28.3147 17.4838 28.3759 17.5438 28.4972 17.5724C28.6185 17.6029 28.6641 17.6619 28.634 17.7515C28.5127 17.7515 28.4516 17.7962 28.4516 17.8857ZM27.4053 17.7962L27.3597 17.7515L27.3141 17.7962C27.3452 17.7962 27.3597 17.8115 27.3597 17.841C27.3597 17.8705 27.3743 17.8857 27.4053 17.8857L27.4966 17.7962H27.4053ZM27.087 18.3763C27.2083 18.3477 27.284 18.361 27.3141 18.421C27.3743 18.481 27.3597 18.5106 27.2685 18.5106C27.1481 18.5106 27.0715 18.4953 27.0414 18.4658C27.0113 18.4658 27.0259 18.4363 27.087 18.3763ZM26.9948 17.8857C26.9948 17.7962 26.9657 17.7515 26.9045 17.7515C26.8745 17.7515 26.8599 17.7962 26.8599 17.8857C26.8599 17.9753 26.89 18.0191 26.9502 18.0191C26.9802 18.0191 26.9948 17.9753 26.9948 17.8857ZM31.2263 33.3328L31.2729 33.2881C31.2729 33.229 31.2564 33.1985 31.2263 33.1985C31.1972 33.229 31.1661 33.2433 31.136 33.2433L31.2263 33.3328ZM27.8149 30.565H27.7237C27.6936 30.5954 27.6781 30.625 27.6781 30.6545C27.6781 30.744 27.7091 30.7593 27.7693 30.6993C27.7994 30.6697 27.8149 30.625 27.8149 30.565ZM27.4053 30.5202L27.45 30.4754L27.4053 30.3868L27.3597 30.4754V30.5202L27.4053 30.565V30.5202ZM26.495 24.2692C26.4659 24.2406 26.4047 24.2254 26.3135 24.2254C26.2824 24.2254 26.2679 24.2549 26.2679 24.3139C26.2679 24.3444 26.329 24.3587 26.4494 24.3587C26.4804 24.3587 26.495 24.3301 26.495 24.2692ZM25.8583 24.3587V24.5378C26.0107 24.5378 26.0563 24.493 25.9952 24.4035C25.9952 24.3749 25.9495 24.3587 25.8583 24.3587ZM25.5856 18.4658C25.5856 18.4363 25.6011 18.421 25.6312 18.421V18.3763L25.6759 18.421V18.4658L25.6312 18.5106L25.5856 18.4658Z" fill="#00AAE8"/>
</svg>