<svg width="60" height="60" viewBox="0 0 60 60" fill="none" xmlns="http://www.w3.org/2000/svg">
    <circle cx="30" cy="30" r="30" transform="rotate(90 30 30)" fill="#333333"/>
    <path fill-rule="evenodd" clip-rule="evenodd" d="M28.6211 28.1713C28.7698 28.1334 28.9553 28.1334 29.179 28.1713L29.5132 28.1713C29.6988 28.1713 29.8285 28.2093 29.9034 28.2864C30.0152 28.4014 30.089 28.4014 30.127 28.2864C30.2389 28.0955 30.3305 28 30.4054 28C30.4423 28 30.5351 28.0392 30.6849 28.1138L30.9074 28.2288L31.0192 28.2864C31.0549 28.3243 31.1108 28.3427 31.1857 28.3427L31.5212 28.3427C31.595 28.3427 31.6877 28.2864 31.7996 28.1713C31.7996 28.1334 31.8364 28.1138 31.9102 28.1138C31.9851 28.1138 32.022 28.1334 32.022 28.1713C32.0969 28.3243 32.2456 28.4406 32.4681 28.5152C32.7655 28.5935 32.9332 28.6498 32.9701 28.6878C33.007 28.8028 33.1557 28.8982 33.4162 28.9753C33.5649 29.0133 33.6957 29.0892 33.8063 29.2042L33.9741 29.2617C34.0859 29.2617 34.1228 29.2813 34.0859 29.3192C33.9741 29.4722 33.9372 29.5676 33.9741 29.6056L34.3083 29.6056L34.4761 29.9507C34.5129 29.9886 34.6057 30.122 34.7544 30.3521C34.7913 30.3912 34.8282 30.4659 34.8662 30.5809C34.9031 30.696 34.94 30.7731 34.9781 30.811L35.3682 31.2124C35.6276 31.4804 35.7394 31.6701 35.7025 31.7863C35.6276 32.0531 35.7774 32.2648 36.1486 32.4166C36.4829 32.6087 36.6506 32.7617 36.6506 32.8755C36.6506 33.2965 36.7981 33.5645 37.0967 33.6783C37.1704 33.7554 37.1894 33.8508 37.1526 33.9659C37.1145 34.0797 37.2085 34.2522 37.4309 34.4811C37.6546 34.6732 37.8401 34.8078 37.9888 34.8825L38.1006 34.7686C38.1006 34.7307 38.1185 34.7111 38.1566 34.7111C38.3041 34.8262 38.3041 34.9596 38.1566 35.1137L38.0447 35.1137C37.9329 35.1137 37.877 35.1321 37.877 35.17C37.877 35.2471 37.952 35.2851 38.1006 35.2851C38.2125 35.2471 38.379 35.3426 38.6026 35.5714C38.6395 35.6106 38.6395 35.6669 38.6026 35.744C38.5646 35.8211 38.5455 35.8786 38.5455 35.9165C38.6574 35.9545 38.7323 35.9936 38.7692 36.0303L38.6574 36.2592C38.5455 36.3755 38.5836 36.4905 38.7692 36.6043C39.0297 36.7952 39.1225 37.0057 39.0487 37.2345C39.0107 37.3508 39.0487 37.4646 39.1605 37.5796C39.3449 37.8085 39.5127 38.1156 39.6613 38.4975C39.9207 39.0335 40.0884 39.3394 40.1633 39.4153C40.2002 39.4532 40.2193 39.5866 40.2193 39.8167C40.2193 40.0847 40.3489 40.2181 40.6094 40.2181C40.8331 40.2181 40.8688 40.3331 40.7212 40.562C40.6094 40.7161 40.5904 40.83 40.6653 40.9071C40.7772 41.0209 40.8331 41.1359 40.8331 41.2509C40.8331 41.4039 40.8509 41.4994 40.8878 41.5373C40.9996 41.6511 40.9996 41.8053 40.8878 41.9962C40.7772 42.1504 40.7581 42.2642 40.8331 42.3401L40.9449 42.4563C41.0555 42.5702 40.9996 42.6277 40.7772 42.6277C40.3679 42.6277 40.0706 42.6852 39.885 42.799C39.7732 42.7231 39.6613 42.6852 39.5507 42.6852L39.3271 42.6852L39.2165 42.7427C39.2165 42.7806 39.1974 42.799 39.1605 42.799L38.9928 42.9715C38.8441 43.0095 38.7323 43.0095 38.6574 42.9715C38.6205 42.9336 38.4908 42.914 38.2684 42.914L37.6546 42.914L37.1526 42.799L36.6506 42.6277C36.0177 43.0486 35.5348 42.9911 35.2005 42.4563C35.0518 42.5702 34.9222 42.5897 34.8103 42.5126C34.6236 42.4355 34.4761 42.4172 34.3642 42.4563C34.3274 42.4563 34.2715 42.4172 34.1965 42.3401C34.1228 42.2642 34.0478 42.2459 33.9741 42.2838C33.8991 42.3609 33.8254 42.3976 33.7516 42.3976C33.6767 42.3976 33.6767 42.3401 33.7516 42.2263C33.8254 41.9595 33.7873 41.7869 33.6398 41.7098C33.1937 41.2901 33.007 40.8691 33.0819 40.4469C33.1176 40.4102 33.045 40.1997 32.8595 39.8167C32.6358 40.0088 32.505 39.9697 32.4681 39.7029C32.3943 39.0518 32.1148 38.5366 31.6318 38.1536C31.5569 38.0765 31.5212 37.9627 31.5212 37.8085C31.5212 37.6947 31.4653 37.5992 31.3535 37.5221C30.9431 37.3312 30.7397 37.1207 30.7397 36.8907C30.6659 36.8527 30.5636 36.6814 30.4339 36.3755C30.3031 36.0695 30.1068 35.9361 29.8475 35.9728C29.7357 35.9361 29.6988 35.8394 29.7357 35.6852C29.9224 35.2655 29.8475 35.0183 29.5132 34.9412C29.4014 34.8641 29.3467 34.7686 29.3467 34.6536C29.3467 34.5777 29.2349 34.3085 29.0112 33.8508C28.9744 33.8141 28.8804 33.8141 28.7317 33.8508C28.6579 33.9279 28.5652 33.9854 28.4545 34.0222C28.3427 34.0613 28.2487 34.1568 28.175 34.3085C28.1 34.3868 27.8776 34.6928 27.5064 35.2276C27.2447 35.2276 27.1163 35.3622 27.1163 35.629C27.1163 35.8578 27.0782 36.012 27.0045 36.0879C27.1163 36.1258 27.1341 36.2225 27.0604 36.3755C26.9117 36.5284 26.7439 36.7193 26.5572 36.9482C26.2229 37.3691 26.0373 37.6359 26.0005 37.7522C25.9255 37.8672 25.646 38.2099 25.1642 38.7838C24.7538 39.2819 24.5135 39.6441 24.4386 39.8742L23.9378 40.562C23.6773 40.9842 23.2859 41.1359 22.7661 41.0209C22.6174 41.0209 22.5436 41.0404 22.5436 41.0796C22.5055 41.1555 22.3949 41.1934 22.2082 41.1934L21.818 41.1934C21.7073 41.1934 21.6134 41.1751 21.5396 41.1359C21.4647 41.098 21.335 41.0796 21.1494 41.0796C21.0376 41.0796 20.9448 41.1751 20.8699 41.3647C20.8699 41.4039 20.8235 41.4223 20.7307 41.4223C20.6379 41.4223 20.5915 41.4039 20.5915 41.3647C20.5166 41.2509 20.4048 41.1934 20.2573 41.1934C20.1086 41.1934 20.0146 41.1751 19.9777 41.1359C19.904 40.945 19.7731 40.9254 19.5876 41.0796C19.4389 41.1934 19.3461 41.2509 19.3092 41.2509C19.2343 41.2509 18.8821 41.1934 18.2493 41.0796C17.6545 40.9633 17.3203 41.0025 17.2465 41.1934C16.8361 41.1934 16.5578 41.1359 16.4102 41.0209C16.2604 40.9842 16.2235 40.9071 16.2984 40.792C16.4102 40.562 16.3912 40.4286 16.2425 40.3894C15.9439 40.2377 15.7762 40.2756 15.7405 40.5057C15.7405 40.6966 15.6656 40.792 15.5181 40.792C15.48 40.7529 15.4241 40.6391 15.3503 40.4469L15.3503 40.2181L15.3503 39.9317C15.3503 39.8938 15.2944 39.8363 15.1838 39.7592C14.9602 39.7212 14.94 39.5683 15.1267 39.3003L15.2944 39.1289C15.48 38.976 15.6477 38.8413 15.7964 38.7275C16.0938 38.4595 16.3341 38.2307 16.5209 38.0385C16.5946 37.9627 16.6505 37.8856 16.6874 37.8085C16.7624 37.6567 16.8183 37.5613 16.8551 37.5221C16.9301 37.4462 17.0038 37.4071 17.0788 37.4071C17.2263 37.3312 17.3024 37.2553 17.3024 37.1782C17.3024 37.062 17.3203 37.0057 17.3583 37.0057L17.469 37.0057C17.6176 36.9678 17.6367 36.8723 17.5249 36.7193C17.5617 36.6814 17.6367 36.6422 17.7473 36.6043C17.8223 36.5664 17.896 36.5468 17.9709 36.5468C18.0066 36.5468 18.0269 36.5284 18.0269 36.4905C17.99 36.3755 17.9709 36.2592 17.9709 36.1454L18.1387 36.2029L18.3052 36.2029C18.5657 36.0879 18.6954 35.9643 18.6954 35.8309C18.6954 35.6963 18.9 35.4197 19.3092 34.9975C19.5685 34.8457 19.6803 34.6928 19.6435 34.5398C19.6435 34.5019 19.6994 34.4248 19.81 34.3085C19.9968 34.2718 20.0705 34.1763 20.0336 34.0222C20.0705 33.9854 20.1264 33.9659 20.2014 33.9659C20.2371 33.9659 20.2573 34.0038 20.2573 34.0797L20.2573 34.2522C20.2942 34.2902 20.3501 34.2718 20.4238 34.1947L20.8699 33.2194C20.9448 33.1043 21.0186 33.086 21.0935 33.1631C21.2054 33.2769 21.2613 33.2965 21.2613 33.2194L21.4278 32.8755L21.5396 32.5316C21.6514 32.7617 21.743 32.78 21.818 32.5891C21.8929 32.3982 21.9667 32.3015 22.0416 32.3015C22.1522 32.3395 22.2272 32.2832 22.2641 32.1302L22.32 31.9001C22.3949 31.8243 22.4877 31.7668 22.5995 31.7288C22.747 31.6909 22.822 31.6138 22.822 31.4987C22.8588 31.1169 23.0813 30.8293 23.4905 30.6384C23.7141 30.5234 23.826 30.4096 23.826 30.2933C23.7891 30.0266 23.826 29.8454 23.9378 29.7488C24.0484 29.6545 24.2161 29.6447 24.4386 29.7194C24.6241 29.7194 24.7538 29.701 24.8287 29.6631C24.9406 29.6252 25.0143 29.5297 25.0524 29.3767L25.1642 29.1479L25.1642 29.0329L25.276 28.9166C25.3878 28.9166 25.5068 28.8309 25.6376 28.6596C25.7673 28.4883 25.8886 28.4014 26.0005 28.4014C26.4465 28.4014 26.688 28.268 26.7249 28L26.8926 28C27.0401 28.153 27.3007 28.153 27.673 28C27.9323 28.268 28.2487 28.3243 28.6211 28.1713ZM39.9968 42.0537L40.0515 41.9387L40.0515 41.8824L39.9968 41.8237L39.9409 41.9387C39.9028 41.9387 39.885 41.9595 39.885 41.9962L39.9968 42.0537ZM40.3311 42.0537L40.387 41.9387C40.4239 41.9387 40.4429 41.9203 40.4429 41.8824L40.3311 41.8237L40.2752 41.9387L40.2752 41.9962L40.3311 42.0537ZM38.881 38.8989C38.8441 38.8609 38.7501 38.8413 38.6026 38.8413C38.5646 38.8413 38.5277 38.8609 38.4908 38.8989C38.5646 38.976 38.6395 39.0127 38.7133 39.0127C38.7501 39.0127 38.8061 38.976 38.881 38.8989ZM38.0447 38.8989C38.0447 38.823 37.9888 38.7838 37.877 38.7838L37.877 39.0127C37.9888 39.0127 38.0447 38.976 38.0447 38.8989ZM37.877 38.4399C37.9139 38.402 38.0257 38.4204 38.2125 38.4975C38.36 38.5746 38.4528 38.6113 38.4908 38.6113C38.6026 38.6113 38.6574 38.555 38.6574 38.4399C38.6574 38.249 38.6205 38.1536 38.5455 38.1536L37.877 38.1536L37.877 38.4399ZM36.4829 36.1454L36.4829 36.3755L36.6506 36.3755C36.6506 36.4905 36.7624 36.5468 36.9848 36.5468C37.0217 36.5468 37.0586 36.5664 37.0967 36.6043L37.1526 36.6043L37.3762 36.6043C37.4119 36.6043 37.4309 36.5284 37.4309 36.3755C37.4309 36.1454 37.3203 36.012 37.0967 35.9728C36.9848 35.9728 36.9099 36.0499 36.8742 36.2029C36.8361 36.3559 36.7624 36.4134 36.6506 36.3755C36.6506 36.2225 36.5947 36.1454 36.4829 36.1454ZM36.5947 34.8262L36.6506 34.7686L36.5947 34.7111C36.5947 34.7503 36.5756 34.7686 36.5388 34.7686C36.5019 34.7686 36.4829 34.787 36.4829 34.8262L36.5947 34.9412L36.5947 34.8262ZM35.8702 34.4248C35.9059 34.5777 35.8893 34.6732 35.8143 34.7111C35.7394 34.787 35.7025 34.7686 35.7025 34.6536C35.7025 34.5019 35.7215 34.4052 35.7584 34.3673C35.7584 34.3293 35.7953 34.3477 35.8702 34.4248ZM36.4829 34.3085C36.5947 34.3085 36.6506 34.2718 36.6506 34.1947C36.6506 34.1568 36.5947 34.1384 36.4829 34.1384C36.371 34.1384 36.3163 34.1763 36.3163 34.2522C36.3163 34.2902 36.371 34.3085 36.4829 34.3085ZM17.1906 39.6441L17.2465 39.7029C17.3203 39.7029 17.3583 39.6821 17.3583 39.6441C17.3203 39.6074 17.3024 39.5683 17.3024 39.5303L17.1906 39.6441ZM20.6475 35.3426L20.6475 35.2276C20.6094 35.1896 20.5725 35.17 20.5356 35.17C20.4238 35.17 20.4048 35.2092 20.4797 35.2851C20.5166 35.323 20.5725 35.3426 20.6475 35.3426ZM20.7034 34.8262L20.7593 34.8825L20.8699 34.8262L20.7593 34.7686L20.7034 34.7686L20.6475 34.8262L20.7034 34.8262ZM28.5104 33.6783C28.5461 33.6416 28.5652 33.5645 28.5652 33.4494C28.5652 33.4103 28.5283 33.3919 28.4545 33.3919C28.4165 33.3919 28.3986 33.469 28.3986 33.6208C28.3986 33.6599 28.4343 33.6783 28.5104 33.6783ZM28.3986 32.8755L28.175 32.8755C28.175 33.0676 28.2309 33.1251 28.3427 33.048C28.3784 33.048 28.3986 32.9905 28.3986 32.8755ZM35.7584 32.5316C35.7953 32.5316 35.8143 32.5512 35.8143 32.5891L35.8702 32.5891L35.8143 32.6454L35.7584 32.6454L35.7025 32.5891L35.7584 32.5316Z" fill="white"/>
    <path fill-rule="evenodd" clip-rule="evenodd" d="M29.3789 31.8287C29.2302 31.8666 29.0447 31.8666 28.821 31.8287L28.4868 31.8287C28.3012 31.8287 28.1715 31.7907 28.0966 31.7136C27.9848 31.5986 27.911 31.5986 27.873 31.7136C27.7611 31.9045 27.6695 32 27.5946 32C27.5577 32 27.4649 31.9608 27.3151 31.8862L27.0926 31.7712L26.9808 31.7136C26.9451 31.6757 26.8892 31.6573 26.8142 31.6573L26.4788 31.6573C26.405 31.6573 26.3123 31.7136 26.2004 31.8287C26.2004 31.8666 26.1636 31.8862 26.0898 31.8862C26.0149 31.8862 25.978 31.8666 25.978 31.8287C25.903 31.6757 25.7544 31.5594 25.5319 31.4848C25.2345 31.4065 25.0668 31.3502 25.0299 31.3122C24.993 31.1972 24.8443 31.1018 24.5838 31.0247C24.4351 30.9867 24.3043 30.9108 24.1937 30.7958L24.0259 30.7383C23.9141 30.7383 23.8772 30.7187 23.9141 30.6808C24.0259 30.5278 24.0628 30.4324 24.0259 30.3944L23.6917 30.3944L23.5239 30.0493C23.4871 30.0114 23.3943 29.878 23.2456 29.6479C23.2087 29.6088 23.1718 29.5341 23.1338 29.4191C23.0969 29.304 23.06 29.2269 23.0219 29.189L22.6318 28.7876C22.3724 28.5196 22.2606 28.3299 22.2975 28.2137C22.3724 27.9469 22.2226 27.7352 21.8514 27.5834C21.5171 27.3913 21.3494 27.2383 21.3494 27.1245C21.3494 26.7035 21.2019 26.4355 20.9033 26.3217C20.8296 26.2446 20.8106 26.1492 20.8474 26.0341C20.8855 25.9203 20.7915 25.7478 20.5691 25.5189C20.3454 25.3268 20.1599 25.1922 20.0112 25.1175L19.8993 25.2314C19.8993 25.2693 19.8815 25.2889 19.8434 25.2889C19.6959 25.1738 19.6959 25.0404 19.8434 24.8863L19.9553 24.8863C20.0671 24.8863 20.123 24.8679 20.123 24.83C20.123 24.7529 20.048 24.7149 19.8993 24.7149C19.7875 24.7529 19.621 24.6574 19.3974 24.4286C19.3605 24.3894 19.3605 24.3331 19.3974 24.256C19.4354 24.1789 19.4545 24.1214 19.4545 24.0835C19.3426 24.0455 19.2677 24.0064 19.2308 23.9697L19.3426 23.7408C19.4545 23.6245 19.4164 23.5095 19.2308 23.3957C18.9703 23.2048 18.8775 22.9943 18.9513 22.7655C18.9893 22.6492 18.9513 22.5354 18.8395 22.4204C18.6551 22.1915 18.4873 21.8844 18.3386 21.5025C18.0793 20.9665 17.9116 20.6606 17.8367 20.5847C17.7998 20.5468 17.7807 20.4134 17.7807 20.1833C17.7807 19.9153 17.6511 19.7819 17.3906 19.7819C17.1669 19.7819 17.1312 19.6669 17.2788 19.438C17.3906 19.2839 17.4096 19.17 17.3347 19.0929C17.2228 18.9791 17.1669 18.8641 17.1669 18.7491C17.1669 18.5961 17.1491 18.5006 17.1122 18.4627C17.0004 18.3489 17.0004 18.1947 17.1122 18.0038C17.2228 17.8496 17.2419 17.7358 17.1669 17.6599L17.0551 17.5437C16.9445 17.4298 17.0004 17.3723 17.2228 17.3723C17.6321 17.3723 17.9294 17.3148 18.115 17.201C18.2268 17.2769 18.3387 17.3148 18.4493 17.3148L18.6729 17.3148L18.7835 17.2573C18.7835 17.2194 18.8026 17.201 18.8395 17.201L19.0072 17.0285C19.1559 16.9905 19.2677 16.9905 19.3426 17.0285C19.3795 17.0664 19.5092 17.086 19.7316 17.086L20.3454 17.086L20.8474 17.201L21.3494 17.3723C21.9823 16.9514 22.4652 17.0089 22.7995 17.5437C22.9482 17.4298 23.0778 17.4103 23.1897 17.4874C23.3764 17.5645 23.5239 17.5828 23.6358 17.5437C23.6726 17.5437 23.7285 17.5828 23.8035 17.6599C23.8772 17.7358 23.9522 17.7541 24.0259 17.7162C24.1009 17.6391 24.1746 17.6024 24.2484 17.6024C24.3233 17.6024 24.3233 17.6599 24.2484 17.7737C24.1746 18.0405 24.2127 18.2131 24.3602 18.2902C24.8063 18.7099 24.993 19.1309 24.9181 19.5531C24.8824 19.5898 24.955 19.8003 25.1405 20.1833C25.3642 19.9912 25.495 20.0304 25.5319 20.2971C25.6057 20.9482 25.8852 21.4634 26.3682 21.8464C26.4431 21.9235 26.4788 22.0373 26.4788 22.1915C26.4788 22.3053 26.5347 22.4008 26.6465 22.4779C27.0569 22.6688 27.2603 22.8793 27.2603 23.1093C27.3341 23.1473 27.4364 23.3186 27.5661 23.6245C27.6969 23.9305 27.8932 24.0639 28.1525 24.0272C28.2643 24.0639 28.3012 24.1606 28.2643 24.3148C28.0776 24.7345 28.1525 24.9817 28.4868 25.0588C28.5986 25.1359 28.6533 25.2314 28.6533 25.3464C28.6533 25.4223 28.7651 25.6915 28.9888 26.1492C29.0256 26.1859 29.1196 26.1859 29.2683 26.1492C29.3421 26.0721 29.4348 26.0146 29.5455 25.9779C29.6573 25.9387 29.7513 25.8432 29.825 25.6915C29.9 25.6132 30.1224 25.3072 30.4936 24.7724C30.7553 24.7724 30.8837 24.6378 30.8837 24.371C30.8837 24.1422 30.9218 23.988 30.9955 23.9121C30.8837 23.8742 30.8659 23.7775 30.9396 23.6246C31.0883 23.4716 31.2561 23.2807 31.4428 23.0518C31.7771 22.6309 31.9627 22.3641 31.9995 22.2478C32.0745 22.1328 32.354 21.7901 32.8358 21.2162C33.2462 20.7181 33.4865 20.3559 33.5614 20.1258L34.0622 19.438C34.3227 19.0159 34.7141 18.8641 35.2339 18.9791C35.3826 18.9791 35.4564 18.9596 35.4564 18.9204C35.4945 18.8445 35.6051 18.8066 35.7918 18.8066L36.182 18.8066C36.2926 18.8066 36.3866 18.8249 36.4604 18.8641C36.5353 18.902 36.665 18.9204 36.8506 18.9204C36.9624 18.9204 37.0552 18.8249 37.1301 18.6353C37.1301 18.5961 37.1765 18.5777 37.2693 18.5777C37.3621 18.5777 37.4085 18.5961 37.4085 18.6353C37.4834 18.7491 37.5952 18.8066 37.7427 18.8066C37.8914 18.8066 37.9854 18.8249 38.0223 18.8641C38.096 19.055 38.2269 19.0746 38.4124 18.9204C38.5611 18.8066 38.6539 18.7491 38.6908 18.7491C38.7657 18.7491 39.1179 18.8066 39.7507 18.9204C40.3455 19.0367 40.6797 18.9975 40.7535 18.8066C41.1639 18.8066 41.4422 18.8641 41.5898 18.9791C41.7396 19.0159 41.7765 19.0929 41.7016 19.208C41.5898 19.4381 41.6088 19.5714 41.7575 19.6106C42.0561 19.7623 42.2238 19.7244 42.2595 19.4943C42.2595 19.3034 42.3344 19.208 42.4819 19.208C42.52 19.2471 42.5759 19.361 42.6497 19.5531L42.6497 19.7819L42.6497 20.0683C42.6497 20.1062 42.7056 20.1637 42.8162 20.2408C43.0398 20.2788 43.06 20.4317 42.8733 20.6998L42.7056 20.8711C42.52 21.0241 42.3523 21.1587 42.2036 21.2725C41.9062 21.5405 41.6659 21.7693 41.4791 21.9615C41.4054 22.0373 41.3495 22.1144 41.3126 22.1915C41.2376 22.3433 41.1817 22.4387 41.1449 22.4779C41.0699 22.5538 40.9962 22.5929 40.9212 22.5929C40.7737 22.6688 40.6976 22.7447 40.6976 22.8218C40.6976 22.938 40.6797 22.9943 40.6417 22.9943L40.531 22.9943C40.3824 23.0322 40.3633 23.1277 40.4751 23.2807C40.4383 23.3186 40.3633 23.3578 40.2527 23.3957C40.1777 23.4336 40.104 23.4532 40.0291 23.4532C39.9934 23.4532 39.9731 23.4716 39.9731 23.5095C40.01 23.6246 40.0291 23.7408 40.0291 23.8546L39.8613 23.7971L39.6948 23.7971C39.4343 23.9121 39.3046 24.0357 39.3046 24.1691C39.3046 24.3037 39.1 24.5803 38.6908 25.0025C38.4315 25.1543 38.3197 25.3072 38.3565 25.4602C38.3565 25.4981 38.3006 25.5752 38.19 25.6915C38.0032 25.7282 37.9295 25.8237 37.9664 25.9779C37.9295 26.0146 37.8736 26.0341 37.7986 26.0341C37.7629 26.0341 37.7427 25.9962 37.7427 25.9203L37.7427 25.7478C37.7058 25.7098 37.6499 25.7282 37.5762 25.8053L37.1301 26.7806C37.0552 26.8957 36.9814 26.914 36.9065 26.8369C36.7946 26.7231 36.7387 26.7035 36.7387 26.7806L36.5722 27.1245L36.4604 27.4684C36.3486 27.2383 36.257 27.22 36.182 27.4109C36.1071 27.6018 36.0333 27.6985 35.9584 27.6985C35.8478 27.6605 35.7728 27.7168 35.7359 27.8698L35.68 28.0999C35.6051 28.1757 35.5123 28.2333 35.4005 28.2712C35.253 28.3091 35.178 28.3862 35.178 28.5013C35.1412 28.8831 34.9187 29.1707 34.5095 29.3616C34.2859 29.4766 34.174 29.5904 34.174 29.7067C34.2109 29.9734 34.174 30.1546 34.0622 30.2512C33.9516 30.3455 33.7839 30.3553 33.5614 30.2806C33.3759 30.2806 33.2462 30.299 33.1712 30.3369C33.0594 30.3748 32.9857 30.4703 32.9476 30.6233L32.8358 30.8521L32.8358 30.9671L32.724 31.0834C32.6122 31.0834 32.4932 31.1691 32.3623 31.3404C32.2327 31.5117 32.1114 31.5986 31.9995 31.5986C31.5534 31.5986 31.312 31.732 31.2751 32L31.1074 32C30.9599 31.847 30.6993 31.847 30.327 32C30.0677 31.732 29.7513 31.6757 29.3789 31.8287ZM18.0032 17.9463L17.9485 18.0613L17.9485 18.1176L18.0032 18.1763L18.0591 18.0613C18.0972 18.0613 18.115 18.0405 18.115 18.0038L18.0032 17.9463ZM17.6689 17.9463L17.613 18.0613C17.5761 18.0613 17.5571 18.0797 17.5571 18.1176L17.6689 18.1763L17.7248 18.0613L17.7248 18.0038L17.6689 17.9463ZM19.119 21.1011C19.1559 21.1391 19.2499 21.1587 19.3974 21.1587C19.4354 21.1587 19.4723 21.1391 19.5092 21.1011C19.4354 21.024 19.3605 20.9873 19.2867 20.9873C19.2499 20.9873 19.1939 21.024 19.119 21.1011ZM19.9553 21.1011C19.9553 21.177 20.0112 21.2162 20.123 21.2162L20.123 20.9873C20.0112 20.9873 19.9553 21.024 19.9553 21.1011ZM20.123 21.5601C20.0861 21.598 19.9743 21.5796 19.7875 21.5025C19.64 21.4254 19.5472 21.3887 19.5092 21.3887C19.3974 21.3887 19.3426 21.445 19.3426 21.5601C19.3426 21.751 19.3795 21.8464 19.4545 21.8464L20.123 21.8464L20.123 21.5601ZM21.5171 23.8546L21.5171 23.6245L21.3494 23.6245C21.3494 23.5095 21.2376 23.4532 21.0152 23.4532C20.9783 23.4532 20.9414 23.4336 20.9033 23.3957L20.8474 23.3957L20.6238 23.3957C20.5881 23.3957 20.5691 23.4716 20.5691 23.6245C20.5691 23.8546 20.6797 23.988 20.9033 24.0272C21.0152 24.0272 21.0901 23.9501 21.1258 23.7971C21.1638 23.6441 21.2376 23.5866 21.3494 23.6245C21.3494 23.7775 21.4053 23.8546 21.5171 23.8546ZM21.4053 25.1738L21.3494 25.2314L21.4053 25.2889C21.4053 25.2497 21.4244 25.2314 21.4612 25.2314C21.4981 25.2314 21.5171 25.213 21.5171 25.1738L21.4053 25.0588L21.4053 25.1738ZM22.1298 25.5752C22.0941 25.4223 22.1107 25.3268 22.1857 25.2889C22.2606 25.213 22.2975 25.2314 22.2975 25.3464C22.2975 25.4981 22.2785 25.5948 22.2416 25.6327C22.2416 25.6707 22.2047 25.6523 22.1298 25.5752ZM21.5171 25.6915C21.4053 25.6915 21.3494 25.7282 21.3494 25.8053C21.3494 25.8432 21.4053 25.8616 21.5171 25.8616C21.629 25.8616 21.6837 25.8237 21.6837 25.7478C21.6837 25.7098 21.629 25.6915 21.5171 25.6915ZM40.8094 20.3559L40.7535 20.2971C40.6797 20.2971 40.6417 20.3179 40.6417 20.3559C40.6797 20.3926 40.6976 20.4317 40.6976 20.4697L40.8094 20.3559ZM37.3525 24.6574L37.3525 24.7724C37.3906 24.8104 37.4275 24.83 37.4644 24.83C37.5762 24.83 37.5952 24.7908 37.5203 24.7149C37.4834 24.677 37.4275 24.6574 37.3525 24.6574ZM37.2966 25.1738L37.2407 25.1175L37.1301 25.1738L37.2407 25.2314L37.2966 25.2314L37.3525 25.1738L37.2966 25.1738ZM29.4896 26.3217C29.4539 26.3584 29.4348 26.4355 29.4348 26.5506C29.4348 26.5897 29.4717 26.6081 29.5455 26.6081C29.5835 26.6081 29.6014 26.531 29.6014 26.3792C29.6014 26.3401 29.5657 26.3217 29.4896 26.3217ZM29.6014 27.1245L29.825 27.1245C29.825 26.9324 29.7691 26.8749 29.6573 26.952C29.6216 26.952 29.6014 27.0095 29.6014 27.1245ZM22.2416 27.4684C22.2047 27.4684 22.1857 27.4488 22.1857 27.4109L22.1298 27.4109L22.1857 27.3546L22.2416 27.3546L22.2975 27.4109L22.2416 27.4684Z" fill="white"/>
</svg>