<svg width="1280" height="109" viewBox="0 0 1280 109" fill="none" xmlns="http://www.w3.org/2000/svg">
    <path d="M1280 28.3894C1270 32.3797 1260.22 36.2531 1251.36 39.2058C1206.54 54.1474 1198.07 28.7466 1193.34 18.0384C1187.61 4.59096 1163.95 4.34194 1109.17 27.7505C1091.24 35.4703 1077.29 40.4509 1066.83 42.1941C1057.62 43.6883 1043.42 44.1863 1033.46 36.9645C1021.26 27.9995 1025.25 11.5637 1008.81 9.07345C990.88 6.33415 959.751 19.5326 935.098 29.2447C909.448 39.4548 897.494 45.1824 878.568 42.1941C859.642 39.2058 856.903 23.268 853.915 17.7894C849.93 10.3186 841.214 3.84388 807.098 14.303C767.751 26.5054 746.584 39.7038 724.919 42.6921C693.79 46.6766 687.813 30.9879 683.829 22.5209C679.347 12.5598 673.121 0.606523 627.051 16.5443C581.479 32.482 569.027 42.9412 545.37 43.1902C503.533 43.4392 521.712 11.8128 496.561 9.32248C475.642 7.33026 453.23 17.0423 427.082 27.7505C416.046 32.7029 404.639 36.7828 392.965 39.9528C355.362 49.4159 346.397 33.2291 341.167 21.7738C340.171 19.5326 338.179 13.5559 333.199 11.0657C322.988 6.08513 301.572 8.5754 285.634 15.7972C266.21 24.5131 239.813 43.6883 220.638 45.1824C207.938 46.1785 203.704 40.6999 202.957 35.9684C202.74 33.7353 203.173 31.487 204.202 29.4937C205.697 26.2563 207.938 20.2797 203.704 15.0501C198.475 8.32637 180.545 9.57151 180.545 9.57151C143.938 11.3147 128.249 23.019 100.856 35.7194C83.4242 43.6883 70.9728 46.1785 61.5097 44.1863C58.5636 43.4584 55.7774 42.192 53.2918 40.4509C49.8055 37.7116 45.572 31.984 48.3113 25.7583C49.4847 23.056 51.3804 20.7296 53.7899 19.0345C54.9947 17.9957 56.0804 16.8265 57.0273 15.5482C60.5136 10.8166 59.0195 2.84777 49.8055 0.606524C41.4713 -0.794315 32.9099 0.243432 25.1518 3.59485C15.9377 7.57929 8.46693 11.3147 0 15.5482V108.06H1280V28.3894Z" fill="#F3410E"/>
    <path d="M170.083 33.2293C167.858 32.6817 165.521 32.7901 163.356 33.5413C161.19 34.2925 159.289 35.6545 157.881 37.4627C155.201 40.8221 153.557 44.889 153.149 49.167C152.899 50.3157 152.899 51.5047 153.149 52.6534C153.365 53.707 153.789 54.7066 154.398 55.5934C155.006 56.4802 155.786 57.236 156.691 57.8164C157.596 58.3967 158.609 58.7898 159.669 58.9723C160.728 59.1548 161.814 59.1231 162.861 58.8791C169.336 57.883 173.569 49.6651 174.068 42.6923C174.566 34.7235 170.083 33.2293 170.083 33.2293Z" fill="white"/>
    <path d="M138.712 34.2257C136.47 35.2218 134.229 36.4669 131.988 37.712C124.177 43.2395 117.286 49.9626 111.568 57.6342C102.852 69.3385 100.859 79.2996 100.859 86.5214C101.059 91.3449 103.064 95.9172 106.478 99.3308C109.892 102.744 114.464 104.75 119.287 104.949C133.731 105.696 140.953 94.9883 140.953 83.7821C140.953 74.5681 137.217 67.0973 138.463 55.144C138.891 50.9313 139.984 46.8129 141.7 42.9416C142.198 42.1945 142.696 41.1984 143.194 40.4513C145.933 37.214 145.933 35.2218 144.439 33.9766C143.527 33.586 142.538 33.4055 141.547 33.4486C140.556 33.4917 139.586 33.7573 138.712 34.2257Z" fill="white"/>
</svg>