<svg width="141" height="147" viewBox="0 0 141 147" fill="none" xmlns="http://www.w3.org/2000/svg">
    <path d="M64.0408 77.4248L64.1186 77.4637C64.5075 77.6582 64.8576 77.7359 65.2076 77.7359C66.1799 77.7359 66.8021 76.997 67.3077 76.3358C67.5022 76.0636 67.7356 75.8302 67.93 75.6358C69.0968 74.5857 70.2246 73.4578 71.3136 72.3689C72.4415 71.241 73.6083 70.1131 74.775 69.0241C76.3696 67.5851 77.9253 66.0684 79.4421 64.5905C82.7479 61.3235 86.2092 57.9399 90.254 55.4508C90.6429 55.2175 90.9541 54.8286 91.1874 54.5174C91.3041 54.4007 91.343 54.2063 91.343 54.0507C91.343 53.9729 91.3819 53.934 91.3819 53.8562V53.8173V53.7785C91.2652 53.234 90.9152 52.8839 90.3707 52.845C88.8928 52.7284 87.6483 53.234 86.2871 54.5563C82.9812 57.7455 79.5976 60.9346 76.3307 64.0071L74.0749 66.1461C73.2193 66.9629 72.3637 67.7407 71.5081 68.5185C69.6802 70.2298 67.7745 71.9799 65.9854 73.769C65.791 73.9634 65.5965 74.119 65.3631 74.3135C64.5464 75.0135 63.5741 75.7914 64.0019 77.2693L64.0408 77.4248Z" fill="#00AAE8"/>
    <path d="M82.6697 91.5425C82.7475 91.5425 82.7864 91.5425 82.8252 91.5425C83.4475 91.5425 83.992 91.3092 84.4976 90.8036C85.1199 90.1813 85.7421 89.5202 86.3644 88.9368C87.609 87.6923 88.8924 86.4477 90.0203 85.0476C93.1316 81.2362 96.9431 78.0859 100.638 75.0134L101.104 74.6245C102.66 73.3411 103.866 71.941 104.877 70.3075C105.033 70.0742 105.071 69.763 105.033 69.5297C104.955 69.2963 104.838 69.1019 104.605 68.9852C104.333 68.8296 103.827 68.6741 103.555 68.8685L103.244 69.063C102.466 69.5686 101.61 70.0742 100.949 70.7353C95.3485 76.2191 89.7091 81.8584 84.2254 87.3033L82.9808 88.5479C82.4752 89.0535 81.9697 89.5591 81.7363 90.298C81.6585 90.6092 81.6974 90.9203 81.8918 91.1925C82.0474 91.387 82.3585 91.5425 82.6697 91.5425Z" fill="#00AAE8"/>
    <path d="M73.4913 85.0865C73.7636 85.3198 74.0358 85.3976 74.2692 85.3976C74.8526 85.3976 75.3582 84.9309 75.6304 84.6587C75.786 84.5031 75.9415 84.3086 76.0582 84.1531C79.2862 79.9138 83.0977 76.1413 86.8313 72.4855C87.7258 71.5909 88.6592 70.6964 89.5538 69.8019C90.915 68.4407 92.704 66.6906 94.7653 65.1738C95.3487 64.746 96.2043 64.1237 96.1265 62.6847C96.1265 62.568 96.0098 62.4124 95.8543 62.3346C95.5431 62.1402 95.0764 62.0624 94.6486 62.2958C92.8207 63.2292 91.3039 64.6293 89.8649 65.9905L89.3982 66.4183C86.3257 69.2185 83.4477 72.3299 80.6475 75.3635C78.6251 77.5414 76.5249 79.8361 74.347 81.9751C74.0747 82.2474 73.8025 82.5974 73.4913 82.9474C73.2191 83.2974 72.4801 84.3086 73.4913 85.0865Z" fill="#00AAE8"/>
    <path d="M65.1683 68.324C71.041 61.5179 77.0692 56.1508 83.6031 51.9116C84.1865 51.5615 84.7699 51.056 85.3144 50.4726C85.6644 50.1226 85.6644 49.5781 85.3533 49.1114C85.0421 48.6447 84.4587 48.4891 84.0309 48.7224C83.2142 49.1114 82.4363 49.617 81.853 50.0448C75.5525 54.3618 69.6798 59.4955 63.8849 65.6794C63.1848 66.4183 62.6792 67.0406 62.2514 67.6628C61.9791 68.0518 61.9403 68.5185 62.1347 68.8685C62.3292 69.2186 62.7181 69.4519 63.2237 69.4519C63.3404 69.4519 63.4182 69.4908 63.496 69.4908C64.2349 69.4908 64.6627 68.9852 65.0516 68.5185L65.1683 68.324Z" fill="#00AAE8"/>
    <path d="M47.3554 86.0587C47.511 86.0199 47.7054 85.9421 47.861 85.9032C48.4055 85.7476 48.9889 85.592 49.4167 85.0864C49.5722 84.892 49.65 84.6586 49.7278 84.5031C49.7667 84.4253 49.7667 84.3475 49.8056 84.3086L49.8445 84.2697V84.1919C49.689 83.6474 49.3 83.3363 48.6778 83.3363C47.5499 83.3363 46.3831 83.5697 44.9052 84.1141C37.788 86.9144 30.7874 90.3758 24.1369 94.3816C21.8811 95.7429 20.0921 97.1818 18.6531 98.7764C18.1864 99.3209 18.1475 99.9432 18.5753 100.449C18.8476 100.76 19.1587 100.915 19.5476 100.915C19.781 100.915 20.0143 100.838 20.2477 100.721C20.6366 100.488 20.9866 100.215 21.3367 99.9043C21.4922 99.7876 21.6478 99.6709 21.7645 99.5543C22.1145 99.282 22.5034 98.9709 22.8535 98.6987C24.2536 97.5319 25.7315 96.3651 27.3649 95.4317C34.1321 91.4258 40.7049 88.3923 47.3554 86.0587Z" fill="#00AAE8"/>
    <path d="M46.1899 100.954C49.1845 99.2043 52.8015 97.3375 56.9629 96.404C57.8574 96.2096 58.4797 95.8207 58.6742 95.3929C58.7909 95.1206 58.7909 94.8873 58.6353 94.615C58.0908 93.6427 57.2352 93.7983 56.4962 93.9539C56.4185 93.9928 56.3017 93.9928 56.224 93.9928C56.1462 93.9928 56.0684 94.0316 55.9906 94.0705L55.9129 94.1094C52.7626 95.0817 50.1179 95.9763 47.5511 97.2597C43.4285 99.3599 39.5782 101.927 35.8057 104.416C34.5222 105.271 33.1999 106.166 31.8776 107.022C31.372 107.333 30.8664 107.761 30.3608 108.188C29.933 108.577 29.583 108.966 29.3107 109.394C29.0774 109.705 29.0774 110.133 29.2329 110.522C29.3885 110.833 29.6996 111.066 30.0108 111.066C30.0886 111.066 30.1663 111.066 30.2441 111.066C31.2553 111.066 31.9165 110.522 32.5388 109.977L32.7332 109.822C36.778 106.438 41.4061 103.755 45.8787 101.149L46.1899 100.954Z" fill="#00AAE8"/>
    <path d="M34.29 100.021C40.3183 96.1704 46.0354 93.5257 51.7525 91.8534C52.2581 91.6978 52.7248 91.5033 53.2304 91.2311C53.4638 91.1144 53.6194 90.7255 53.5805 90.531C53.5416 90.3755 53.4249 89.9088 53.0749 89.6754C52.8804 89.5198 52.6471 89.4809 52.4137 89.442C52.297 89.442 52.2192 89.4031 52.1026 89.3643H52.0637H52.0248C51.8692 89.4031 51.7136 89.442 51.5581 89.442C51.208 89.5198 50.8191 89.5587 50.4691 89.6754C50.0024 89.831 49.5357 89.9865 49.069 90.1421C47.5522 90.6477 45.9965 91.1533 44.4797 91.7755C39.8516 93.6813 35.4568 96.2871 31.2176 98.815C29.8952 99.5929 28.4951 100.41 27.1339 101.226C26.395 101.654 25.6949 102.238 25.0726 102.743C24.5281 103.21 24.4115 103.871 24.7615 104.377C24.9949 104.727 25.3837 104.921 25.8504 104.921C26.006 104.921 26.2005 104.882 26.3949 104.843C26.8617 104.688 27.2506 104.493 27.5617 104.26C28.9229 103.21 30.4397 102.315 31.9176 101.421C32.7343 100.954 33.5511 100.487 34.29 100.021Z" fill="#00AAE8"/>
    <path d="M56.848 103.093C58.2481 102.471 59.6482 101.888 61.0095 101.343C61.6706 101.071 62.3318 100.799 62.9929 100.527C63.4596 100.332 64.0041 100.021 64.1208 99.3209V99.282V99.2432C64.0041 98.6987 63.693 98.3875 63.1874 98.2709C62.254 98.0764 61.3984 98.4264 60.6205 98.7375C53.97 101.538 48.3307 104.377 43.3136 107.41C42.0302 108.188 40.9412 109.161 39.8522 110.094C39.0355 110.794 38.2187 111.533 37.3631 112.155C36.7797 112.544 36.6241 113.244 36.9742 113.789C37.2464 114.255 37.6354 114.372 37.9854 114.372C38.3354 114.372 38.6854 114.217 38.841 114.178C39.7355 113.789 40.5522 113.167 41.4079 112.233C43.0024 110.522 44.9082 109.277 46.3861 108.383C49.4585 106.594 52.881 104.844 56.848 103.093Z" fill="#00AAE8"/>
    <path d="M64.1186 107.216C64.3519 107.099 64.5853 106.983 64.8186 106.866C65.1687 106.71 65.4798 106.555 65.8298 106.36C66.1798 106.166 67.1521 105.621 66.6465 104.649C66.3743 104.105 65.7909 103.949 65.052 104.221C64.5075 104.416 63.8852 104.649 63.2629 104.921C56.5735 108.033 50.3119 112.039 44.0114 117.172C43.7392 117.367 43.4669 117.639 43.3502 117.911C43.1946 118.222 43.1558 118.611 43.2724 118.922C43.428 119.467 43.9725 119.623 44.5558 119.778H44.5948C44.5948 119.778 44.5948 119.778 44.6337 119.778C45.217 119.778 45.7226 119.389 46.2282 118.922C46.4616 118.728 46.6949 118.495 46.9283 118.3C47.7061 117.6 48.5229 116.861 49.3396 116.239C54.0455 112.505 59.4515 109.627 64.1186 107.216Z" fill="#00AAE8"/>
    <path d="M50.2655 144.212C53.2991 140.789 57.4605 136.472 62.4386 133.088C67.2224 129.86 72.395 127.488 76.7898 125.621C81.8069 123.482 86.7462 121.46 92.0744 120.332C93.9023 119.943 94.9135 118.971 95.3413 117.104C95.6913 115.704 96.0414 114.731 96.547 113.876C100.358 107.186 104.87 101.508 109.887 96.9967C117.588 90.1128 126.299 86.2236 135.75 85.4069H135.906C136.178 85.368 136.45 85.368 136.684 85.2902C138.278 84.9401 138.861 84.1234 138.589 82.6455C138.395 81.5955 138.434 80.8176 138.745 79.962C139.095 78.9897 138.978 78.1341 138.511 77.5507C138.045 76.9673 137.228 76.7339 136.256 76.8506C135.244 77.0062 134.272 77.3173 133.455 77.6285C128.866 79.3786 125.094 81.0899 121.593 83.0733C114.515 87.1181 108.176 91.9796 102.147 97.969C102.031 98.0857 101.953 98.1634 101.875 98.2801C101.603 98.5913 101.37 98.9024 100.942 98.9413C100.864 98.6302 101.02 98.4357 101.292 98.1635C101.37 98.0857 101.447 97.969 101.525 97.8912C103.742 94.9743 106.387 92.3686 108.915 89.8406C109.342 89.4128 109.77 88.9849 110.198 88.596C112.298 86.4958 114.826 84.0845 117.821 82.4511L118.832 81.9066C123.888 79.1453 129.1 76.2672 135.05 75.3727C135.283 75.3338 135.517 75.2561 135.711 75.2172C136.567 74.9449 136.995 74.5949 137.111 74.1282C137.228 73.6615 136.956 73.0781 136.256 72.4558C135.867 72.0669 135.439 71.7169 135.011 71.3669C134.622 71.0557 134.233 70.7057 133.844 70.3557C129.255 66.0776 125.327 61.4494 122.06 57.4435C120.543 55.5767 119.221 53.8266 118.093 52.1153C117.626 51.4153 117.043 50.9874 116.46 50.9097C116.071 50.8708 115.721 50.9485 115.448 51.2208C114.632 51.9208 114.943 52.6987 115.215 53.3987C115.254 53.5154 115.293 53.5932 115.332 53.7099C115.799 54.9155 116.654 55.7711 117.471 56.6268C117.86 57.0546 118.288 57.4824 118.676 57.9491C123.149 63.6662 127.038 68.061 130.927 71.7947C131.316 72.1447 131.589 72.4947 131.394 72.9614C131.083 73.3892 130.616 73.5448 130.15 73.6615C130.033 73.7004 129.916 73.7393 129.8 73.7781C124.821 75.4505 120.271 78.0563 115.837 80.5843L115.215 80.9343C113.543 81.9066 112.104 82.9956 110.859 84.2012C109.887 85.1735 108.915 86.1458 107.903 87.0792C105.725 89.1794 103.47 91.3963 101.408 93.6909C96.4692 99.1747 93.28 104.775 91.3743 111.192C90.2076 109.676 89.1575 108.47 87.874 107.536C86.0461 106.175 84.4516 104.62 82.7403 102.831C81.068 101.119 79.2789 99.4858 77.6454 98.0079C74.573 95.2466 70.9949 92.0574 67.6891 88.6349C64.85 85.718 61.583 82.6844 57.3827 79.1453C56.7215 78.5619 56.1382 78.1341 55.7104 77.784C54.038 76.4617 54.038 76.4617 54.8547 74.0115C55.0103 73.5448 55.2047 72.9614 55.4381 72.2613L55.5159 72.0669C55.7881 71.1335 56.0992 70.1612 56.4493 69.2278C57.8494 65.5719 59.8718 62.0717 62.5942 58.5325C64.3055 56.3545 66.1723 54.2155 68.0002 52.1542L68.9725 51.0263C71.9672 47.6038 75.623 44.298 80.5234 40.6033C82.7014 38.9309 84.9183 38.3864 87.2518 38.8531C91.7244 39.7865 95.4191 42.3534 98.9971 44.8425C99.3472 45.0758 99.6972 45.3481 100.047 45.5814C100.514 45.8926 100.553 46.3593 100.242 47.0982C99.7361 48.3039 98.9972 49.354 98.1027 50.5985C97.1693 51.8819 96.3525 53.1654 96.4303 54.7599C96.5859 57.2879 96.7803 59.5437 97.0526 61.7605C97.2081 63.005 97.6748 63.8607 98.4527 64.2496C99.1916 64.6385 100.086 64.5219 101.097 63.9774C103.159 62.8884 105.259 61.8383 107.32 60.7882C107.903 60.516 108.487 60.2048 109.07 59.9326C109.731 59.5826 110.276 59.077 110.704 58.338C111.598 56.8212 112.532 55.3044 113.465 53.7876C114.515 52.0764 115.565 50.2874 116.615 48.5372C118.832 44.7647 121.243 40.9922 123.538 37.3363C127.272 31.4636 131.083 25.3576 134.428 19.096C135.828 16.4513 137.384 13.6122 139.328 10.1508C140.339 8.32288 140.223 6.68941 138.978 4.93927C136.761 1.82791 133.728 0.233352 129.644 0C129.566 0 129.489 0 129.411 0C128.205 0 127.349 0.505596 126.883 1.55568C126.027 3.38361 124.977 5.13375 123.966 6.8061C123.305 7.89508 122.644 8.98406 122.021 10.1119C121.438 11.162 120.893 12.2121 120.31 13.2622C117.16 19.1349 113.932 25.1631 109.887 30.608C109.654 30.8802 109.498 31.2303 109.342 31.5414C109.265 31.697 109.187 31.8525 109.07 32.0081L108.176 33.5249C106.542 36.3251 104.909 39.0865 103.236 41.8478L103.12 42.0034C102.847 42.4701 102.614 42.8979 101.914 43.0146C101.175 42.5479 100.436 42.12 99.6583 41.6533C97.8693 40.5644 96.0025 39.4754 94.2135 38.3086C91.9188 36.8696 89.3519 36.014 87.1351 35.3917C86.0072 35.0806 84.8794 35.1195 83.5959 35.5084C81.2235 36.2473 79.24 37.6864 77.2565 39.2421C72.395 43.0146 67.8447 47.4094 63.7221 52.2709C63.411 52.6598 63.0998 53.0098 62.7887 53.3987C61.0385 55.4211 59.2495 57.5213 57.8883 59.8548C55.5937 63.7051 53.2212 67.711 52.1323 72.2613C51.7433 73.8948 50.6932 74.7505 48.8653 74.9449C45.754 75.256 43.2649 75.7228 41.048 76.4617C40.7758 76.5395 40.4647 76.6561 40.1924 76.7339C39.1812 77.084 38.17 77.434 37.1199 77.5896C34.8642 77.9785 32.6085 78.7175 30.4694 79.8842L30.2361 80.0009C22.5744 84.0845 14.6404 88.2849 7.87317 94.1187C4.02286 97.4245 1.57264 101.469 0.36699 106.486C0.055854 107.809 -0.255273 109.325 0.328108 110.687C1.06706 112.515 1.3004 114.498 1.53375 116.365C1.61153 117.143 1.72823 117.959 1.84491 118.737C2.15604 120.604 2.81717 121.654 4.1395 122.393C4.37285 122.51 4.60622 122.665 4.83957 122.782C5.53963 123.171 6.23968 123.599 7.01752 123.832C9.46771 124.61 11.8012 125.932 14.407 127.994L14.6793 128.188C15.3404 128.694 16.0405 129.238 16.7794 129.666C22.9243 133.089 28.9915 136.861 34.9031 140.478L35.0976 140.595C37.6256 142.15 40.348 143.667 43.7316 145.417C44.7817 145.962 45.6762 146.234 46.5318 146.234C47.7763 146.467 48.9043 145.728 50.2655 144.212ZM82.6236 120.099C81.8847 120.449 81.1457 120.799 80.4457 121.11C78.54 122.004 76.712 122.86 74.8841 123.56C67.728 126.243 61.6997 129.666 56.4493 134.061C55.1269 135.189 53.8435 136.355 52.599 137.522C51.86 138.222 51.0822 138.922 50.3044 139.583C50.2266 139.661 50.1488 139.739 50.071 139.856C49.8766 140.089 49.6821 140.245 49.4487 140.322C54.9714 130.599 70.4504 121.226 82.6236 120.099ZM44.7039 140.517C44.6261 140.478 44.5872 140.439 44.5872 140.4C44.5483 140.322 44.665 140.128 44.7428 139.972C45.6373 138.339 45.6762 137.872 44.2372 137.017C43.3427 136.472 42.4093 135.966 41.5148 135.461C40.3091 134.8 39.0646 134.139 37.8978 133.361C30.7806 128.81 23.2355 123.949 15.7293 118.971L14.5626 118.193C11.1012 115.898 7.56201 113.565 4.45065 110.687C4.13952 110.414 3.71169 110.026 3.36166 109.559C3.32276 109.52 3.3228 109.287 3.40059 109.131C3.47837 108.898 3.67283 108.859 3.78951 108.859C3.86729 108.859 3.94508 108.859 3.98397 108.898C4.334 109.014 4.56735 109.131 4.76181 109.287C6.43416 110.648 8.33987 111.776 10.2067 112.826C12.0735 113.915 14.0181 115.043 15.6905 116.443C18.9185 119.126 22.4188 121.538 25.8024 123.832C28.9526 126.01 32.2195 128.227 35.2531 130.677C37.1199 132.194 39.259 133.477 41.3203 134.683C42.0593 135.15 42.8371 135.578 43.576 136.044L43.8094 136.2C44.9761 136.939 46.104 137.6 46.843 138.65C46.6874 139.7 46.0262 140.245 45.4429 140.556C45.2873 140.634 44.9372 140.634 44.7039 140.517ZM33.5808 125.816C30.3527 123.716 27.2025 121.382 24.1689 119.126C20.0074 116.054 15.7293 112.826 11.1401 110.181C9.35103 109.131 7.63979 107.925 5.6563 106.409C4.33397 105.397 4.2173 104.97 4.83957 103.297C5.65631 101.158 6.93975 99.2913 8.68989 97.619C13.0458 93.4575 18.1017 90.2684 22.0298 87.9349C24.6356 86.3792 27.4358 84.7457 30.3527 83.2678C32.6862 82.0622 35.5254 80.7398 38.5979 80.1176C39.7257 79.8842 40.8536 79.5342 41.9426 79.223C43.4594 78.7563 45.015 78.2896 46.5707 78.0952C46.8819 78.0563 47.1541 78.0174 47.4652 77.9785C48.0875 77.9007 48.7487 77.8229 49.4098 77.7452C49.5654 77.7452 49.7599 77.7062 49.9154 77.7062C51.16 77.7062 52.249 78.1341 53.6102 79.1841C58.1605 82.6066 62.2442 86.6514 66.1723 90.6184C68.6614 93.1075 71.1894 95.6744 73.8729 98.0468C75.5453 99.5247 77.1787 101.119 78.7344 102.675C81.1068 105.008 83.5959 107.42 86.2406 109.52C88.1074 110.998 91.1021 114.926 92.1133 117.221C91.9966 117.259 91.8799 117.259 91.7632 117.298C91.5299 117.376 91.3354 117.415 91.1799 117.376C84.646 116.52 77.9955 117.571 70.2949 120.682C64.9278 122.86 60.494 125.388 56.7993 128.46C55.3603 129.627 53.9991 130.949 52.6768 132.194L52.5601 132.311C51.7044 133.127 50.8877 133.944 50.071 134.761C49.721 135.111 49.4098 135.422 49.0598 135.772C47.9319 135.5 47.0763 134.916 46.2596 134.372C45.9873 134.177 45.6762 133.983 45.404 133.827C42.9927 132.35 40.6202 130.716 38.3645 129.16C36.8477 128.033 35.2142 126.905 33.5808 125.816ZM4.48953 114.226C4.52843 114.187 4.56734 114.148 4.60623 114.109C4.68401 114.07 4.76181 114.07 4.76181 114.109C9.85666 117.96 15.2626 121.538 20.4741 124.999C25.3356 128.227 30.3527 131.533 35.1365 135.111C34.6698 134.916 34.2031 134.683 33.7752 134.411C32.8029 133.789 31.7918 133.127 30.8195 132.544C28.8749 131.338 26.8914 130.055 24.9857 128.694C19.8908 124.999 14.3292 121.382 7.40644 117.221C6.66749 116.793 5.88967 116.287 4.99515 115.665C4.52845 115.354 4.2951 114.887 4.37289 114.304C4.41178 114.265 4.45064 114.265 4.48953 114.226ZM11.179 122.51C8.92325 122.043 7.40646 121.188 6.35637 119.787C8.06762 120.487 9.62331 121.46 11.179 122.51ZM18.6074 127.566C17.2072 126.905 15.9238 126.049 14.6403 124.96C16.6238 125.738 17.4406 126.282 18.6074 127.566ZM122.293 85.718C125.949 83.0734 130.033 81.2065 134.739 80.0009C134.933 81.0898 135.05 81.7121 134.856 81.9844C134.7 82.1788 134.389 82.2566 133.844 82.3344C129.683 82.9567 125.872 84.3568 122.371 85.7958C122.371 85.7958 122.371 85.7958 122.293 85.718C122.332 85.7569 122.332 85.7569 122.293 85.718ZM130.033 14.7401C130.072 14.7401 130.15 14.7401 130.189 14.7401C131.083 14.8568 131.783 15.2068 132.25 15.829C132.289 15.9068 132.328 16.0235 132.328 16.1791C132.328 16.2569 132.367 16.3735 132.367 16.4513C132.289 16.568 132.25 16.7236 132.172 16.8791C132.016 17.2292 131.822 17.6569 131.628 18.007C127.933 24.6964 124.394 30.6858 120.777 36.3252C118.443 39.9032 116.226 43.6757 114.087 47.2927C113.076 49.0039 112.065 50.6763 111.054 52.3875C110.587 53.1265 110.12 53.8654 109.692 54.5266C109.304 55.11 108.992 55.2656 108.604 55.0711C108.02 54.7989 107.709 54.2933 107.865 53.7099C107.981 53.2043 108.215 52.6598 108.565 51.9986C109.692 49.9762 110.898 47.915 112.026 45.9315C114.476 41.6922 117.004 37.2974 119.26 32.8638C120.543 30.3358 122.021 27.8856 123.46 25.4743C125.288 22.4018 127.155 19.2127 128.711 15.9068C129.061 15.0901 129.45 14.7401 130.033 14.7401ZM126.533 14.3512C125.638 16.218 124.666 18.1237 123.616 19.9905C118.91 28.3912 114.048 36.9085 109.381 45.1536L109.07 45.6981C108.215 47.176 107.242 48.9261 106.192 50.6374C105.103 52.3875 105.103 52.3875 103.081 52.0375C102.692 51.9597 102.303 51.8819 101.758 51.8042L100.981 51.6486C101.875 50.1318 102.731 48.6928 103.548 47.2538C105.57 43.7924 107.476 40.5255 109.459 37.2585C110.587 35.3917 111.793 33.5249 112.921 31.697C114.204 29.6357 115.565 27.5355 116.849 25.3965C118.21 23.1018 119.532 20.7294 120.777 18.3959C121.36 17.3069 121.982 16.218 122.566 15.129L122.799 14.7012C123.11 14.1178 123.46 13.5344 123.81 12.951C124.277 12.2121 124.938 12.0954 125.794 12.5621C126.766 13.0288 126.922 13.4955 126.533 14.3512ZM100.903 54.7989C100.981 54.7989 101.097 54.7989 101.175 54.7989C101.292 54.7989 101.37 54.7989 101.486 54.7989C103.12 54.7989 104.559 55.3433 105.725 56.3156C106.192 56.7045 106.426 57.1324 106.348 57.5602C106.309 57.9491 105.998 58.2991 105.492 58.5714C104.598 59.0381 103.82 59.2325 103.003 58.6491C102.459 58.2991 101.875 58.0269 101.292 57.7547C101.097 57.6769 100.942 57.5991 100.747 57.5213C100.242 57.288 99.8917 56.8601 99.7361 56.199C99.6194 55.8101 99.6583 55.46 99.8139 55.2267C99.9694 54.9933 100.203 54.8766 100.553 54.8377C100.67 54.7989 100.786 54.7989 100.903 54.7989ZM127.738 6.06715C128.127 5.25041 128.438 4.66703 128.75 4.12254C129.022 3.69473 129.45 3.22801 130.189 3.22801C130.266 3.22801 130.344 3.22801 130.422 3.22801C132.678 3.53915 134.544 4.55036 135.983 6.26161C136.333 6.68942 136.489 7.23393 136.45 7.93398C136.411 8.59515 136.178 9.2563 135.75 9.91747C135.4 10.462 134.933 10.6564 134.311 10.462C132.328 9.83969 130.227 9.13963 128.244 7.97286C127.505 7.54505 127.311 6.92277 127.738 6.06715Z" fill="#00AAE8"/>
</svg>