<svg width="82" height="75" viewBox="0 0 82 75" fill="none" xmlns="http://www.w3.org/2000/svg">
    <g filter="url(#filter0_d)">
        <path fill-rule="evenodd" clip-rule="evenodd" d="M45.8211 0C28.4863 0 4.61011 14.227 4.61011 33.0778C4.61011 51.9286 28.4863 66.1556 45.8211 66.1556C63.1558 66.1556 77.2199 51.9286 77.2199 33.0778C77.2199 14.227 63.1558 0 45.8211 0Z" fill="white"/>
        <path fill-rule="evenodd" clip-rule="evenodd" d="M54.4098 32.2676C54.4587 32.0739 54.4587 31.832 54.4098 31.5406V31.1049C54.4098 30.8631 54.3608 30.6941 54.2613 30.5964C54.1128 30.4507 54.1128 30.3546 54.2613 30.305C54.5077 30.1592 54.6309 30.0399 54.6309 29.9422C54.6309 29.8941 54.5804 29.7732 54.484 29.5779L54.3355 29.288L54.2613 29.1423C54.2123 29.0957 54.1886 29.0229 54.1886 28.9252V28.488C54.1886 28.3919 54.2613 28.271 54.4098 28.1253C54.4587 28.1253 54.484 28.0772 54.484 27.9811C54.484 27.8834 54.4587 27.8354 54.4098 27.8354C54.2123 27.7377 54.0622 27.5439 53.9659 27.254C53.8648 26.8664 53.7921 26.6478 53.7431 26.5998C53.5946 26.5517 53.4714 26.3579 53.3719 26.0184C53.3229 25.8246 53.225 25.6541 53.0765 25.5099L53.0023 25.2913C53.0023 25.1456 52.977 25.0975 52.928 25.1456C52.7306 25.2913 52.6073 25.3394 52.5584 25.2913V24.8557L52.1129 24.6371C52.0639 24.589 51.8917 24.4681 51.5948 24.2743C51.5442 24.2263 51.4478 24.1782 51.2994 24.1286C51.1509 24.0805 51.0513 24.0325 51.0024 23.9829L50.4842 23.4744C50.1383 23.1364 49.8934 22.9907 49.7434 23.0387C49.399 23.1364 49.1257 22.9411 48.9298 22.4574C48.6818 22.0217 48.4844 21.8032 48.3374 21.8032C47.794 21.8032 47.4481 21.6109 47.3012 21.2218C47.2017 21.1257 47.0784 21.1009 46.9299 21.1489C46.783 21.1985 46.5603 21.0761 46.2649 20.7862C46.0169 20.4947 45.8431 20.2529 45.7468 20.0591L45.8937 19.9134C45.9426 19.9134 45.9679 19.8901 45.9679 19.8405C45.8194 19.6482 45.6472 19.6482 45.4482 19.8405V19.9862C45.4482 20.1319 45.4245 20.2048 45.3755 20.2048C45.276 20.2048 45.227 20.1071 45.227 19.9134C45.276 19.7676 45.1528 19.5506 44.8574 19.2591C44.8068 19.2111 44.7342 19.2111 44.6347 19.2591C44.5351 19.3087 44.4609 19.3335 44.4119 19.3335C44.363 19.1878 44.3124 19.0901 44.265 19.0421L43.9696 19.1878C43.8195 19.3335 43.6711 19.2839 43.5241 19.0421C43.2777 18.7026 43.006 18.5816 42.7106 18.6778C42.5605 18.7274 42.4136 18.6778 42.2651 18.532C41.9697 18.2917 41.5732 18.0732 41.0804 17.8794C40.3885 17.5414 39.9935 17.3228 39.8956 17.2251C39.8466 17.1771 39.6744 17.1523 39.3775 17.1523C39.0315 17.1523 38.8593 16.9833 38.8593 16.6438C38.8593 16.3523 38.7108 16.3058 38.4154 16.4981C38.2164 16.6438 38.0695 16.6686 37.97 16.5709C37.8231 16.4252 37.6746 16.3523 37.5261 16.3523C37.3286 16.3523 37.2054 16.3291 37.1564 16.281C37.0095 16.1353 36.8105 16.1353 36.564 16.281C36.365 16.4252 36.2181 16.45 36.1202 16.3523L35.9701 16.2066C35.8232 16.0624 35.7489 16.1353 35.7489 16.4252C35.7489 16.9585 35.6747 17.3461 35.5278 17.5879C35.6257 17.7336 35.6747 17.8794 35.6747 18.0235V18.315L35.6004 18.4592C35.5515 18.4592 35.5278 18.484 35.5278 18.532L35.305 18.7506C35.2561 18.9444 35.2561 19.0901 35.305 19.1878C35.354 19.2359 35.3793 19.4049 35.3793 19.6948V20.4947L35.5278 21.1489L35.7489 21.8032C35.2055 22.6279 35.2798 23.2573 35.9701 23.693C35.8232 23.8868 35.7979 24.0557 35.8974 24.2015C35.9969 24.4449 36.0206 24.6371 35.9701 24.7828C35.9701 24.8309 36.0206 24.9037 36.1202 25.0014C36.2181 25.0975 36.2418 25.1952 36.1928 25.2913C36.0933 25.389 36.0459 25.4851 36.0459 25.5812C36.0459 25.6789 36.1202 25.6789 36.2671 25.5812C36.6114 25.4851 36.8342 25.5347 36.9337 25.727C37.4755 26.3083 38.0189 26.5517 38.5639 26.454C38.6113 26.4075 38.883 26.5021 39.3775 26.7439C39.1295 27.0354 39.18 27.2059 39.5244 27.254C40.3648 27.3501 41.0298 27.7144 41.5243 28.3438C41.6238 28.4415 41.7707 28.488 41.9697 28.488C42.1166 28.488 42.2399 28.5609 42.3394 28.7066C42.5858 29.2415 42.8575 29.5066 43.1545 29.5066C43.2035 29.6027 43.4246 29.736 43.8195 29.905C44.2145 30.0755 44.3867 30.3313 44.3393 30.6693C44.3867 30.815 44.5114 30.8631 44.7105 30.815C45.2523 30.5716 45.5714 30.6693 45.6709 31.1049C45.7705 31.2507 45.8937 31.322 46.0422 31.322C46.1401 31.322 46.4876 31.4677 47.0784 31.7591C47.1258 31.8072 47.1258 31.9297 47.0784 32.1235C46.9789 32.2196 46.9047 32.3405 46.8573 32.4847C46.8067 32.6304 46.6835 32.7529 46.4876 32.849C46.3865 32.9467 45.9916 33.2366 45.3013 33.7203C45.3013 34.0613 45.1275 34.2288 44.7832 34.2288C44.4878 34.2288 44.2887 34.2784 44.1908 34.3745C44.1418 34.2288 44.017 34.2055 43.8195 34.3016C43.6221 34.4954 43.3757 34.714 43.0803 34.9574C42.5368 35.393 42.1925 35.6349 42.0424 35.6829C41.8939 35.7806 41.4516 36.1449 40.7107 36.7728C40.0678 37.3076 39.6002 37.6208 39.3032 37.7185L38.4154 38.3712C37.8704 38.7107 37.6746 39.2207 37.8231 39.8982C37.8231 40.092 37.7978 40.1881 37.7472 40.1881C37.6493 40.2377 37.6003 40.3819 37.6003 40.6253V41.1338C37.6003 41.278 37.624 41.4004 37.6746 41.4965C37.7235 41.5942 37.7472 41.7632 37.7472 42.005C37.7472 42.1508 37.624 42.2717 37.3792 42.3694C37.3286 42.3694 37.3049 42.4298 37.3049 42.5507C37.3049 42.6717 37.3286 42.7321 37.3792 42.7321C37.5261 42.8298 37.6003 42.9755 37.6003 43.1678C37.6003 43.3615 37.624 43.484 37.6746 43.5321C37.921 43.6282 37.9463 43.7987 37.7472 44.0406C37.6003 44.2344 37.5261 44.3553 37.5261 44.4033C37.5261 44.501 37.6003 44.9599 37.7472 45.7847C37.8973 46.5598 37.8468 46.9954 37.6003 47.0916C37.6003 47.6264 37.6746 47.9892 37.8231 48.1814C37.8704 48.3767 37.97 48.4248 38.1185 48.3271C38.4154 48.1814 38.5876 48.2062 38.6382 48.4C38.8341 48.7891 38.7851 49.0077 38.4881 49.0542C38.2417 49.0542 38.1185 49.1519 38.1185 49.3441C38.169 49.3937 38.3159 49.4666 38.5639 49.5627H38.8593H39.229C39.2779 49.5627 39.3522 49.6356 39.4517 49.7798C39.5007 50.0712 39.6981 50.0976 40.0441 49.8542L40.2653 49.6356C40.4627 49.3937 40.6365 49.1752 40.7834 48.9814C41.1293 48.5938 41.4247 48.2806 41.6728 48.0372C41.7707 47.9411 41.8702 47.8683 41.9697 47.8202C42.1656 47.7225 42.2888 47.6497 42.3394 47.6016C42.4373 47.5039 42.4879 47.4078 42.4879 47.3101C42.5858 47.1179 42.6838 47.0187 42.7833 47.0187C42.9333 47.0187 43.006 46.9954 43.006 46.9458V46.8016C43.055 46.6079 43.1782 46.5831 43.3757 46.7288C43.4246 46.6807 43.4752 46.5831 43.5241 46.4389C43.5731 46.3412 43.5984 46.2451 43.5984 46.1474C43.5984 46.1009 43.6221 46.0746 43.6711 46.0746C43.8195 46.1226 43.9696 46.1474 44.1165 46.1474L44.0423 45.9288V45.7118C44.1908 45.3723 44.3503 45.2033 44.5225 45.2033C44.6963 45.2033 45.0533 44.9366 45.5983 44.4033C45.7942 44.0654 45.9916 43.9197 46.1891 43.9677C46.238 43.9677 46.3376 43.8948 46.4876 43.7507C46.535 43.5073 46.6582 43.4112 46.8573 43.4592C46.9047 43.4112 46.9299 43.3383 46.9299 43.2406C46.9299 43.1941 46.881 43.1678 46.783 43.1678H46.5603C46.5113 43.1197 46.535 43.0468 46.6345 42.9507L47.8936 42.3694C48.042 42.2717 48.0657 42.1756 47.9662 42.0779C47.8193 41.9322 47.794 41.8593 47.8936 41.8593L48.3374 41.6423L48.7813 41.4965C48.4844 41.3508 48.4607 41.2314 48.7071 41.1338C48.9535 41.0361 49.0783 40.94 49.0783 40.8423C49.0293 40.6981 49.102 40.6005 49.2995 40.5524L49.5965 40.4796C49.6944 40.3819 49.7686 40.261 49.8176 40.1152C49.8666 39.923 49.9661 39.8253 50.1146 39.8253C50.6075 39.7773 50.9787 39.4874 51.2251 38.9541C51.3736 38.6626 51.5205 38.5169 51.6706 38.5169C52.015 38.5649 52.2487 38.5169 52.3735 38.3712C52.4952 38.227 52.5078 38.0084 52.4115 37.7185C52.4115 37.4766 52.4352 37.3076 52.4841 37.21C52.5331 37.0643 52.6563 36.9681 52.8538 36.9185L53.1492 36.7728H53.2977L53.4477 36.6271C53.4477 36.4813 53.5583 36.3263 53.7795 36.1558C54.0006 35.9868 54.1128 35.8287 54.1128 35.6829C54.1128 35.1016 54.285 34.7869 54.6309 34.7388V34.5202C54.4335 34.328 54.4335 33.9885 54.6309 33.5032C54.285 33.1653 54.2123 32.7529 54.4098 32.2676ZM36.4898 17.4422L36.6383 17.3709H36.711L36.7868 17.4422L36.6383 17.515C36.6383 17.5647 36.6114 17.5879 36.564 17.5879L36.4898 17.4422ZM36.4898 17.0065L36.6383 16.9337C36.6383 16.8856 36.662 16.8608 36.711 16.8608L36.7868 17.0065L36.6383 17.0794H36.564L36.4898 17.0065ZM40.5622 18.8964C40.6112 18.9444 40.6365 19.0669 40.6365 19.2591C40.6365 19.3087 40.6112 19.3568 40.5622 19.4049C40.4627 19.3087 40.4153 19.2111 40.4153 19.1149C40.4153 19.0669 40.4627 18.994 40.5622 18.8964ZM40.5622 19.9862C40.6602 19.9862 40.7107 20.0591 40.7107 20.2048H40.4153C40.4153 20.0591 40.4627 19.9862 40.5622 19.9862ZM41.1546 20.2048C41.2036 20.1567 41.1799 20.011 41.0804 19.7676C40.9808 19.5754 40.9335 19.4545 40.9335 19.4049C40.9335 19.2591 41.0061 19.1878 41.1546 19.1878C41.401 19.1878 41.5243 19.2359 41.5243 19.3335V20.2048H41.1546ZM44.1165 22.0217H43.8195V21.8032C43.6711 21.8032 43.5984 21.6574 43.5984 21.3675C43.5984 21.3195 43.5731 21.2714 43.5241 21.2218V21.1489V20.8575C43.5241 20.811 43.6221 20.7862 43.8195 20.7862C44.1165 20.7862 44.2887 20.9303 44.3393 21.2218C44.3393 21.3675 44.2397 21.4652 44.0423 21.5117C43.8448 21.5613 43.7706 21.6574 43.8195 21.8032C44.017 21.8032 44.1165 21.876 44.1165 22.0217ZM45.8194 21.876L45.8937 21.8032L45.9679 21.876C45.9174 21.876 45.8937 21.9008 45.8937 21.9489C45.8937 21.9969 45.87 22.0217 45.8194 22.0217L45.6709 21.876H45.8194ZM46.3376 22.8202C46.1401 22.7736 46.0169 22.7953 45.9679 22.893C45.87 22.9907 45.8937 23.0387 46.0422 23.0387C46.238 23.0387 46.3628 23.0139 46.4118 22.9659C46.4608 22.9659 46.4371 22.9178 46.3376 22.8202ZM46.4876 22.0217C46.4876 21.876 46.535 21.8032 46.6345 21.8032C46.6835 21.8032 46.7072 21.876 46.7072 22.0217C46.7072 22.1675 46.6582 22.2388 46.5603 22.2388C46.5113 22.2388 46.4876 22.1675 46.4876 22.0217ZM39.6002 47.1644L39.5244 47.0916C39.5244 46.9954 39.5512 46.9458 39.6002 46.9458C39.6476 46.9954 39.6981 47.0187 39.7471 47.0187L39.6002 47.1644ZM45.1528 42.6593H45.3013C45.3503 42.7089 45.3755 42.7569 45.3755 42.805C45.3755 42.9507 45.325 42.9755 45.227 42.8779C45.1781 42.8298 45.1528 42.7569 45.1528 42.6593ZM45.8194 42.5864L45.7468 42.5135L45.8194 42.3694L45.8937 42.5135V42.5864L45.8194 42.6593V42.5864ZM47.3012 32.4118C47.3486 32.3653 47.4481 32.3405 47.5966 32.3405C47.6471 32.3405 47.6708 32.3886 47.6708 32.4847C47.6708 32.5343 47.5713 32.5575 47.3754 32.5575C47.3249 32.5575 47.3012 32.511 47.3012 32.4118ZM48.3374 32.5575V32.849C48.0894 32.849 48.0152 32.7761 48.1147 32.6304C48.1147 32.5839 48.189 32.5575 48.3374 32.5575ZM48.7813 22.9659C48.7813 22.9178 48.7561 22.893 48.7071 22.893V22.8202L48.6344 22.893V22.9659L48.7071 23.0387L48.7813 22.9659Z" fill="#00AAE8"/>
    </g>
    <defs>
        <filter id="filter0_d" x="0.610107" y="0" width="80.6098" height="74.1556" filterUnits="userSpaceOnUse" color-interpolation-filters="sRGB">
            <feFlood flood-opacity="0" result="BackgroundImageFix"/>
            <feColorMatrix in="SourceAlpha" type="matrix" values="0 0 0 0 0 0 0 0 0 0 0 0 0 0 0 0 0 0 127 0"/>
            <feOffset dy="4"/>
            <feGaussianBlur stdDeviation="2"/>
            <feColorMatrix type="matrix" values="0 0 0 0 0 0 0 0 0 0 0 0 0 0 0 0 0 0 0.25 0"/>
            <feBlend mode="normal" in2="BackgroundImageFix" result="effect1_dropShadow"/>
            <feBlend mode="normal" in="SourceGraphic" in2="effect1_dropShadow" result="shape"/>
        </filter>
    </defs>
</svg>