<svg width="81" height="75" viewBox="0 0 81 75" fill="none" xmlns="http://www.w3.org/2000/svg">
    <g filter="url(#filter0_d)">
        <path fill-rule="evenodd" clip-rule="evenodd" d="M35.3988 0C52.7336 0 76.6097 14.227 76.6097 33.0778C76.6097 51.9286 52.7336 66.1556 35.3988 66.1556C18.064 66.1556 3.99998 51.9286 3.99998 33.0778C3.99998 14.227 18.064 0 35.3988 0Z" fill="white"/>
        <path fill-rule="evenodd" clip-rule="evenodd" d="M26.8097 32.268C26.7608 32.0742 26.7608 31.8324 26.8097 31.5409V31.1053C26.8097 30.8634 26.8587 30.6945 26.9582 30.5968C27.1067 30.4511 27.1067 30.3549 26.9582 30.3053C26.7118 30.1596 26.5886 30.0402 26.5886 29.9426C26.5886 29.8945 26.6391 29.7736 26.7355 29.5782L26.884 29.2883L26.9582 29.1426C27.0072 29.0961 27.0309 29.0232 27.0309 28.9256V28.4884C27.0309 28.3923 26.9582 28.2714 26.8097 28.1256C26.7608 28.1256 26.7355 28.0776 26.7355 27.9814C26.7355 27.8838 26.7608 27.8357 26.8097 27.8357C27.0072 27.7381 27.1573 27.5443 27.2536 27.2544C27.3547 26.8668 27.4274 26.6482 27.4764 26.6001C27.6248 26.5521 27.7481 26.3583 27.8476 26.0188C27.8965 25.825 27.9945 25.6545 28.143 25.5103L28.2172 25.2917C28.2172 25.146 28.2425 25.0979 28.2915 25.146C28.4889 25.2917 28.6121 25.3397 28.6611 25.2917V24.8561L29.1066 24.6375C29.1556 24.5894 29.3277 24.4685 29.6247 24.2747C29.6753 24.2266 29.7716 24.1786 29.9201 24.129C30.0686 24.0809 30.1681 24.0328 30.2171 23.9832L30.7352 23.4747C31.0812 23.1368 31.326 22.991 31.4761 23.0391C31.8205 23.1368 32.0938 22.9414 32.2897 22.4577C32.5377 22.0221 32.7351 21.8035 32.882 21.8035C33.4254 21.8035 33.7714 21.6113 33.9183 21.2222C34.0178 21.126 34.141 21.1012 34.2895 21.1493C34.4364 21.1989 34.6592 21.0764 34.9546 20.7865C35.2026 20.4951 35.3764 20.2532 35.4727 20.0594L35.3258 19.9137C35.2768 19.9137 35.2516 19.8905 35.2516 19.8409C35.4001 19.6486 35.5722 19.6486 35.7713 19.8409V19.9866C35.7713 20.1323 35.795 20.2052 35.8439 20.2052C35.9435 20.2052 35.9924 20.1075 35.9924 19.9137C35.9435 19.768 36.0667 19.5509 36.3621 19.2595C36.4126 19.2114 36.4853 19.2114 36.5848 19.2595C36.6843 19.3091 36.7586 19.3339 36.8076 19.3339C36.8565 19.1882 36.9071 19.0905 36.9545 19.0425L37.2499 19.1882C37.3999 19.3339 37.5484 19.2843 37.6953 19.0425C37.9418 18.7029 38.2135 18.582 38.5089 18.6781C38.6589 18.7277 38.8059 18.6781 38.9543 18.5324C39.2497 18.2921 39.6463 18.0735 40.1391 17.8797C40.831 17.5418 41.2259 17.3232 41.3239 17.2255C41.3728 17.1774 41.545 17.1526 41.842 17.1526C42.188 17.1526 42.3602 16.9837 42.3602 16.6441C42.3602 16.3527 42.5086 16.3062 42.804 16.4984C43.0031 16.6441 43.15 16.669 43.2495 16.5713C43.3964 16.4256 43.5449 16.3527 43.6934 16.3527C43.8909 16.3527 44.0141 16.3294 44.0631 16.2814C44.21 16.1356 44.409 16.1356 44.6554 16.2814C44.8545 16.4256 45.0014 16.4504 45.0993 16.3527L45.2494 16.207C45.3963 16.0628 45.4706 16.1356 45.4706 16.4256C45.4706 16.9589 45.5448 17.3464 45.6917 17.5883C45.5938 17.734 45.5448 17.8797 45.5448 18.0239V18.3154L45.619 18.4595C45.668 18.4595 45.6917 18.4843 45.6917 18.5324L45.9144 18.751C45.9634 18.9448 45.9634 19.0905 45.9144 19.1882C45.8655 19.2362 45.8402 19.4052 45.8402 19.6951V20.4951L45.6917 21.1493L45.4706 21.8035C46.014 22.6283 45.9397 23.2577 45.2494 23.6933C45.3963 23.8871 45.4216 24.0561 45.3221 24.2018C45.2225 24.4452 45.1988 24.6375 45.2494 24.7832C45.2494 24.8312 45.1988 24.9041 45.0993 25.0018C45.0014 25.0979 44.9777 25.1956 45.0267 25.2917C45.1262 25.3894 45.1736 25.4855 45.1736 25.5816C45.1736 25.6793 45.0993 25.6793 44.9524 25.5816C44.608 25.4855 44.3853 25.5351 44.2858 25.7273C43.744 26.3087 43.2005 26.5521 42.6556 26.4544C42.6082 26.4079 42.3365 26.5025 41.842 26.7443C42.09 27.0358 42.0395 27.2063 41.6951 27.2544C40.8547 27.3505 40.1897 27.7148 39.6952 28.3442C39.5957 28.4419 39.4488 28.4884 39.2498 28.4884C39.1028 28.4884 38.9796 28.5613 38.8801 28.707C38.6337 29.2418 38.362 29.5069 38.065 29.5069C38.016 29.6031 37.7949 29.7364 37.3999 29.9054C37.005 30.0759 36.8328 30.3317 36.8802 30.6697C36.8328 30.8154 36.708 30.8634 36.509 30.8154C35.9672 30.572 35.6481 30.6697 35.5485 31.1053C35.449 31.251 35.3258 31.3223 35.1773 31.3223C35.0794 31.3223 34.7318 31.4681 34.141 31.7595C34.0937 31.8076 34.0937 31.93 34.141 32.1238C34.2406 32.22 34.3148 32.3409 34.3622 32.4851C34.4128 32.6308 34.536 32.7533 34.7318 32.8494C34.8329 32.947 35.2279 33.2369 35.9182 33.7206C35.9182 34.0617 36.092 34.2291 36.4363 34.2291C36.7317 34.2291 36.9308 34.2787 37.0287 34.3749C37.0777 34.2291 37.2025 34.2059 37.3999 34.302C37.5974 34.4958 37.8438 34.7144 38.1392 34.9578C38.6826 35.3934 39.027 35.6352 39.1771 35.6833C39.3256 35.781 39.7679 36.1453 40.5088 36.7732C41.1517 37.308 41.6193 37.6212 41.9163 37.7188L42.804 38.3715C43.349 38.711 43.5449 39.2211 43.3964 39.8986C43.3964 40.0923 43.4217 40.1885 43.4723 40.1885C43.5702 40.2381 43.6192 40.3822 43.6192 40.6256V41.1341C43.6192 41.2783 43.5955 41.4008 43.5449 41.4969C43.4959 41.5946 43.4723 41.7636 43.4723 42.0054C43.4723 42.1511 43.5955 42.2721 43.8403 42.3697C43.8909 42.3697 43.9146 42.4302 43.9146 42.5511C43.9146 42.672 43.8909 42.7325 43.8403 42.7325C43.6934 42.8302 43.6192 42.9759 43.6192 43.1681C43.6192 43.3619 43.5955 43.4844 43.5449 43.5324C43.2985 43.6286 43.2732 43.7991 43.4723 44.0409C43.6192 44.2347 43.6934 44.3557 43.6934 44.4037C43.6934 44.5014 43.6192 44.9603 43.4723 45.785C43.3222 46.5602 43.3727 46.9958 43.6192 47.0919C43.6192 47.6268 43.5449 47.9895 43.3964 48.1818C43.349 48.3771 43.2495 48.4252 43.101 48.3275C42.804 48.1818 42.6319 48.2066 42.5813 48.4004C42.3854 48.7895 42.4344 49.0081 42.7314 49.0546C42.9778 49.0546 43.101 49.1523 43.101 49.3445C43.0505 49.3941 42.9036 49.467 42.6556 49.5631H42.3602H41.9905C41.9415 49.5631 41.8673 49.636 41.7678 49.7801C41.7188 50.0716 41.5213 50.0979 41.1754 49.8545L40.9542 49.636C40.7568 49.3941 40.583 49.1755 40.4361 48.9817C40.0901 48.5942 39.7947 48.281 39.5467 48.0376C39.4488 47.9415 39.3493 47.8686 39.2498 47.8206C39.0539 47.7229 38.9307 47.65 38.8801 47.602C38.7822 47.5043 38.7316 47.4082 38.7316 47.3105C38.6337 47.1183 38.5357 47.0191 38.4362 47.0191C38.2861 47.0191 38.2135 46.9958 38.2135 46.9462V46.802C38.1645 46.6082 38.0413 46.5834 37.8438 46.7292C37.7949 46.6811 37.7443 46.5834 37.6953 46.4392C37.6464 46.3416 37.6211 46.2455 37.6211 46.1478C37.6211 46.1013 37.5974 46.0749 37.5484 46.0749C37.3999 46.123 37.2499 46.1478 37.103 46.1478L37.1772 45.9292V45.7122C37.0287 45.3726 36.8692 45.2037 36.697 45.2037C36.5232 45.2037 36.1662 44.937 35.6212 44.4037C35.4253 44.0657 35.2279 43.92 35.0304 43.9681C34.9814 43.9681 34.8819 43.8952 34.7318 43.751C34.6845 43.5076 34.5612 43.4115 34.3622 43.4596C34.3148 43.4115 34.2895 43.3387 34.2895 43.241C34.2895 43.1945 34.3385 43.1681 34.4364 43.1681H34.6592C34.7082 43.1201 34.6845 43.0472 34.5849 42.9511L33.3259 42.3697C33.1774 42.2721 33.1537 42.1759 33.2533 42.0783C33.4002 41.9325 33.4254 41.8597 33.3259 41.8597L32.882 41.6426L32.4381 41.4969C32.7351 41.3512 32.7588 41.2318 32.5124 41.1341C32.266 41.0365 32.1412 40.9404 32.1412 40.8427C32.1901 40.6985 32.1175 40.6008 31.92 40.5528L31.623 40.4799C31.5251 40.3822 31.4508 40.2613 31.4019 40.1156C31.3529 39.9234 31.2534 39.8257 31.1049 39.8257C30.612 39.7776 30.2408 39.4877 29.9944 38.9544C29.8459 38.663 29.699 38.5172 29.5489 38.5172C29.2045 38.5653 28.9707 38.5172 28.8459 38.3715C28.7243 38.2273 28.7117 38.0087 28.808 37.7188C28.808 37.477 28.7843 37.308 28.7354 37.2103C28.6864 37.0646 28.5632 36.9685 28.3657 36.9189L28.0703 36.7732H27.9218L27.7718 36.6274C27.7718 36.4817 27.6612 36.3267 27.44 36.1561C27.2189 35.9872 27.1067 35.829 27.1067 35.6833C27.1067 35.1019 26.9345 34.7872 26.5886 34.7392V34.5206C26.786 34.3284 26.786 33.9888 26.5886 33.5036C26.9345 33.1656 27.0072 32.7533 26.8097 32.268ZM44.7297 17.4425L44.5812 17.3712H44.5085L44.4327 17.4425L44.5812 17.5154C44.5812 17.565 44.608 17.5883 44.6554 17.5883L44.7297 17.4425ZM44.7297 17.0069L44.5812 16.9341C44.5812 16.886 44.5575 16.8612 44.5085 16.8612L44.4327 17.0069L44.5812 17.0798H44.6554L44.7297 17.0069ZM40.6573 18.8967C40.6083 18.9448 40.583 19.0673 40.583 19.2595C40.583 19.3091 40.6083 19.3572 40.6573 19.4052C40.7568 19.3091 40.8042 19.2114 40.8042 19.1153C40.8042 19.0673 40.7568 18.9944 40.6573 18.8967ZM40.6573 19.9866C40.5593 19.9866 40.5088 20.0594 40.5088 20.2052H40.8042C40.8042 20.0594 40.7568 19.9866 40.6573 19.9866ZM40.0649 20.2052C40.0159 20.1571 40.0396 20.0114 40.1391 19.768C40.2386 19.5758 40.286 19.4548 40.286 19.4052C40.286 19.2595 40.2134 19.1882 40.0649 19.1882C39.8184 19.1882 39.6952 19.2362 39.6952 19.3339V20.2052H40.0649ZM37.103 22.0221H37.3999V21.8035C37.5484 21.8035 37.6211 21.6578 37.6211 21.3679C37.6211 21.3198 37.6464 21.2718 37.6953 21.2222V21.1493V20.8578C37.6953 20.8113 37.5974 20.7865 37.3999 20.7865C37.103 20.7865 36.9308 20.9307 36.8802 21.2222C36.8802 21.3679 36.9797 21.4656 37.1772 21.5121C37.3747 21.5617 37.4489 21.6578 37.3999 21.8035C37.2025 21.8035 37.103 21.8764 37.103 22.0221ZM35.4001 21.8764L35.3258 21.8035L35.2516 21.8764C35.3021 21.8764 35.3258 21.9012 35.3258 21.9493C35.3258 21.9973 35.3495 22.0221 35.4001 22.0221L35.5485 21.8764H35.4001ZM34.8819 22.8205C35.0794 22.774 35.2026 22.7957 35.2516 22.8934C35.3495 22.991 35.3258 23.0391 35.1773 23.0391C34.9814 23.0391 34.8566 23.0143 34.8077 22.9662C34.7587 22.9662 34.7824 22.9182 34.8819 22.8205ZM34.7318 22.0221C34.7318 21.8764 34.6845 21.8035 34.5849 21.8035C34.536 21.8035 34.5123 21.8764 34.5123 22.0221C34.5123 22.1678 34.5612 22.2392 34.6592 22.2392C34.7082 22.2392 34.7318 22.1678 34.7318 22.0221ZM41.6193 47.1648L41.6951 47.0919C41.6951 46.9958 41.6682 46.9462 41.6193 46.9462C41.5719 46.9958 41.5213 47.0191 41.4724 47.0191L41.6193 47.1648ZM36.0667 42.6596H35.9182C35.8692 42.7092 35.8439 42.7573 35.8439 42.8054C35.8439 42.9511 35.8945 42.9759 35.9924 42.8782C36.0414 42.8302 36.0667 42.7573 36.0667 42.6596ZM35.4001 42.5868L35.4727 42.5139L35.4001 42.3697L35.3258 42.5139V42.5868L35.4001 42.6596V42.5868ZM33.9183 32.4122C33.8709 32.3657 33.7714 32.3409 33.6229 32.3409C33.5724 32.3409 33.5487 32.3889 33.5487 32.4851C33.5487 32.5347 33.6482 32.5579 33.8441 32.5579C33.8946 32.5579 33.9183 32.5114 33.9183 32.4122ZM32.882 32.5579V32.8494C33.13 32.8494 33.2043 32.7765 33.1048 32.6308C33.1048 32.5843 33.0305 32.5579 32.882 32.5579ZM32.4381 22.9662C32.4381 22.9182 32.4634 22.8934 32.5124 22.8934V22.8205L32.5851 22.8934V22.9662L32.5124 23.0391L32.4381 22.9662Z" fill="#00AAE8"/>
    </g>
    <defs>
        <filter id="filter0_d" x="0" y="0" width="80.6098" height="74.1556" filterUnits="userSpaceOnUse" color-interpolation-filters="sRGB">
            <feFlood flood-opacity="0" result="BackgroundImageFix"/>
            <feColorMatrix in="SourceAlpha" type="matrix" values="0 0 0 0 0 0 0 0 0 0 0 0 0 0 0 0 0 0 127 0"/>
            <feOffset dy="4"/>
            <feGaussianBlur stdDeviation="2"/>
            <feColorMatrix type="matrix" values="0 0 0 0 0 0 0 0 0 0 0 0 0 0 0 0 0 0 0.25 0"/>
            <feBlend mode="normal" in2="BackgroundImageFix" result="effect1_dropShadow"/>
            <feBlend mode="normal" in="SourceGraphic" in2="effect1_dropShadow" result="shape"/>
        </filter>
    </defs>
</svg>