<svg width="93" height="93" viewBox="0 0 93 93" fill="none" xmlns="http://www.w3.org/2000/svg">
    <path d="M66.2321 44.2693L38.7782 25.3948C37.0624 24.3653 34.6602 25.3948 34.6602 27.4538V65.2029C34.6602 67.6051 37.0624 68.2915 38.7782 67.262L66.2321 48.7306C67.948 47.7011 67.948 45.2989 66.2321 44.2693Z" fill="white"/>
    <path d="M46.3284 0C72.0664 0 93 20.9336 93 46.3284C93 72.0664 72.0664 93 46.3284 93C20.9336 93 0 72.0664 0 46.3284C0 20.9336 20.9336 0 46.3284 0ZM46.3284 6.17712C24.0221 6.17712 6.17712 24.0221 6.17712 46.3284C6.17712 68.6347 24.0221 86.8229 46.3284 86.8229C68.6347 86.8229 86.8229 68.6347 86.8229 46.3284C86.8229 24.0221 68.6347 6.17712 46.3284 6.17712Z" fill="white"/>
</svg>