<svg width="24" height="25" viewBox="0 0 24 25" fill="none" xmlns="http://www.w3.org/2000/svg">
    <path d="M2.02222 10.1L2.02193 10.1C2.04688 10.9734 2.05936 11.8465 2.0718 12.7176L2.07181 12.7185C2.08426 13.5899 2.09669 14.4593 2.1215 15.3284C2.14463 15.9001 2.31969 16.2997 2.58098 16.591C2.8464 16.8869 3.21869 17.0908 3.66741 17.2355C4.1165 17.3803 4.62592 17.4606 5.15063 17.52C5.36571 17.5444 5.58923 17.5657 5.81116 17.5868C6.11428 17.6157 6.41442 17.6443 6.68601 17.68M2.02222 10.1L6.65423 17.927M2.02222 10.1L2.0213 10.088C1.97339 9.46517 2.02155 8.84462 2.16402 8.27476L2.16606 8.26662L2.16754 8.25835C2.31517 7.43582 2.95939 7.04225 3.81936 6.85114C4.49048 6.70201 5.22828 6.69081 5.85198 6.68135C6.03408 6.67859 6.20645 6.67598 6.36459 6.67012L6.36459 6.67015L6.36813 6.66996C8.3112 6.57032 10.2505 6.47088 12.1894 6.42117L12.1908 6.42113C12.9854 6.3963 13.7928 6.38387 14.6025 6.37141L14.6035 6.3714C15.4109 6.35897 16.2206 6.34652 17.0183 6.32163C17.1961 6.32161 17.3724 6.32025 17.5473 6.3189C18.4173 6.31218 19.2513 6.30574 20.0537 6.46622L20.0537 6.46631L20.0602 6.46744C20.6273 6.56521 20.9622 7.08725 21.1637 7.81966C21.3214 8.39311 21.3756 9.01588 21.4174 9.49558C21.4281 9.61906 21.4381 9.73306 21.4487 9.8343L21.4488 9.83476C21.5977 11.2243 21.697 12.6145 21.7967 14.0099L21.7967 14.0105C21.8124 14.2221 21.8388 14.4398 21.8638 14.6449C21.8786 14.7666 21.8928 14.8838 21.9039 14.9926C21.9353 15.2994 21.9463 15.5694 21.9053 15.8124C21.8654 16.0494 21.776 16.2601 21.6019 16.4509C21.4252 16.6446 21.1486 16.8314 20.7127 16.9964C20.2726 17.1584 19.765 17.2309 19.2385 17.2677C18.9256 17.2895 18.6282 17.298 18.3363 17.3063C18.124 17.3124 17.9146 17.3184 17.7044 17.3294C17.5332 17.3314 17.3906 17.4051 17.2951 17.5216C17.203 17.6337 17.1638 17.7732 17.1638 17.9021C17.1638 18.031 17.203 18.1705 17.2951 18.2827C17.392 18.4008 17.5373 18.4749 17.7117 18.4749C17.7939 18.4749 17.8826 18.4754 17.977 18.4759C18.5868 18.479 19.4303 18.4834 20.236 18.373C21.15 18.2478 22.1078 17.9646 22.597 17.274L22.5972 17.2737C22.9299 16.8024 23.0936 16.2106 23.1582 15.5779C23.223 14.9438 23.1901 14.2504 23.1145 13.5603C23.0388 12.8696 22.9191 12.1728 22.8071 11.5327C22.8007 11.496 22.7943 11.4595 22.788 11.4232C22.6829 10.8234 22.5881 10.2821 22.5421 9.83495C22.5324 9.71871 22.5236 9.58935 22.5142 9.45028C22.4766 8.89766 22.4285 8.19173 22.2749 7.54652C22.084 6.74475 21.7075 5.93396 20.8853 5.63941C19.5696 5.14962 18.0368 5.06386 16.5164 5.1014C15.7594 5.12009 14.9987 5.16969 14.2643 5.21757L14.2486 5.21859C13.5073 5.26692 12.7941 5.31318 12.1286 5.32548L12.1254 5.32558L11.9832 5.33002C10.4354 5.37835 8.83882 5.42819 7.28858 5.52503C6.95957 5.53923 6.60665 5.53283 6.23191 5.52602C5.95403 5.52098 5.66416 5.51572 5.36315 5.51848C4.68202 5.52473 3.97506 5.57384 3.38561 5.78719M2.02222 10.1L3.46648 6.02278M6.68601 17.68C6.68625 17.68 6.68648 17.6801 6.68672 17.6801L6.65423 17.927M6.68601 17.68C6.68571 17.68 6.68542 17.6799 6.68512 17.6799L6.65423 17.927M6.68601 17.68C7.03249 17.7238 7.20212 18.0133 7.20212 18.2695C7.20212 18.3981 7.16113 18.5356 7.06563 18.6445C6.96595 18.7582 6.82155 18.8236 6.65423 18.8236H6.63805L6.62202 18.8215C6.38726 18.7909 6.04895 18.78 5.63999 18.7668C5.5769 18.7647 5.51213 18.7626 5.4458 18.7604C4.95815 18.744 4.40054 18.7205 3.85932 18.6536C3.32033 18.587 2.78148 18.4758 2.33596 18.2766C1.89033 18.0773 1.5094 17.7764 1.34035 17.3166M6.65423 17.927C7.05269 17.9768 7.05269 18.5745 6.65423 18.5745C6.40634 18.5422 6.05351 18.5309 5.6472 18.5178C4.17579 18.4705 2.00309 18.4006 1.57375 17.2297M1.34035 17.3166C1.34049 17.317 1.34064 17.3173 1.34078 17.3177L1.57375 17.2297M1.34035 17.3166C1.34021 17.3162 1.34007 17.3158 1.33993 17.3154L1.57375 17.2297M1.34035 17.3166C0.90182 16.1551 0.764461 14.7511 0.751923 13.3718C0.741107 12.1821 0.823436 10.9922 0.893995 9.9725C0.905348 9.80842 0.916396 9.64874 0.926703 9.49418M1.57375 17.2297C0.785928 15.1443 0.989816 12.1965 1.14236 9.99107C1.15377 9.82613 1.16489 9.66534 1.17529 9.50938M1.17529 9.50938L0.926626 9.49556C0.926652 9.4951 0.926677 9.49464 0.926703 9.49418M1.17529 9.50938C1.2749 7.71627 1.77299 6.57067 3.46648 6.02278M1.17529 9.50938L0.926794 9.49281C0.926764 9.49327 0.926733 9.49372 0.926703 9.49418M0.926703 9.49418C0.977417 8.58333 1.1303 7.80094 1.50983 7.17066C1.89457 6.53171 2.49549 6.07599 3.38561 5.78719M3.46648 6.02278L3.38137 5.78873C3.38278 5.78822 3.3842 5.78771 3.38561 5.78719M3.46648 6.02278L3.38982 5.78583C3.38841 5.78628 3.38701 5.78674 3.38561 5.78719" fill="white" stroke="white" stroke-width="0.498086"/>
    <path d="M6.0567 15.2875V15.2786L6.05607 15.2698C6.01214 14.6548 6.04812 14.036 6.12922 13.4111C6.96582 13.2721 7.78934 13.1412 8.61075 13.0956L8.61076 13.0956L8.6168 13.0951C9.8492 12.9965 11.0839 12.9964 12.2724 13.0459L12.276 13.046C12.5385 13.0531 12.8522 13.0507 13.1982 13.0481C14.1121 13.041 15.251 13.0323 16.266 13.1925C16.9628 13.3025 17.5601 13.4878 17.9634 13.7826C18.3486 14.0642 18.5625 14.4475 18.5102 15.0119C18.49 15.1835 18.5452 15.3387 18.663 15.4464C18.7735 15.5474 18.9164 15.5864 19.0443 15.5864C19.2931 15.5864 19.6077 15.4281 19.6525 15.0694C19.66 15.0099 19.6775 14.923 19.7009 14.8075C19.7122 14.7513 19.725 14.6882 19.7386 14.6183C19.778 14.4158 19.8206 14.1731 19.8404 13.9319C19.8599 13.6943 19.8593 13.4384 19.8002 13.2163C19.7401 12.9908 19.6089 12.7664 19.3471 12.6649C18.3117 12.2511 17.0706 12.1004 15.838 12.0378C15.2195 12.0064 14.5972 11.9971 13.999 11.9893C13.9613 11.9888 13.9237 11.9883 13.8862 11.9878C13.327 11.9806 12.7914 11.9737 12.2943 11.9506L12.2941 11.9506C10.0837 11.8501 7.87307 12.0008 5.7123 12.4028L5.7123 12.4028L5.70901 12.4035C5.36616 12.472 5.14959 12.6925 5.02543 12.9645C4.9065 13.225 4.86785 13.5389 4.86136 13.8376C4.85478 14.1401 4.88107 14.4516 4.90767 14.7177C4.91365 14.7775 4.91953 14.8342 4.92507 14.8876C4.94523 15.0818 4.96092 15.233 4.96092 15.3373C4.96092 15.5042 5.03612 15.6419 5.15217 15.7306C5.26166 15.8142 5.39608 15.8465 5.51918 15.8414C5.64304 15.8363 5.77584 15.7924 5.88115 15.6973C5.99131 15.5978 6.0567 15.4551 6.0567 15.2875Z" fill="white" stroke="white" stroke-width="0.498086"/>
    <path d="M5.35335 24.3024C4.98493 24.2985 4.73274 23.9388 4.81883 23.5945L4.82143 23.5841L4.82165 23.5841C5.22002 22.2396 5.6184 20.8827 6.01688 19.5253L6.01693 19.5252C6.41492 18.1695 6.81301 16.8135 7.21112 15.4699C7.25337 15.3072 7.35224 15.1849 7.48335 15.1148C7.59106 15.0573 7.70939 15.0408 7.81823 15.0528C7.85968 15.0431 7.9035 15.038 7.94933 15.038V15.0822C8.04682 15.1158 8.14051 15.1759 8.20919 15.2654C8.21152 15.2685 8.21381 15.2715 8.21607 15.2746C10.2191 15.1833 12.2222 15.1376 14.2252 15.1376C14.444 15.1376 14.7191 15.1151 15.0176 15.0906C15.8062 15.0261 16.7577 14.9482 17.2635 15.2372C17.6985 15.491 17.7642 16.7209 17.8061 17.5061C17.8218 17.7998 17.8341 18.0312 17.8612 18.1261C18.3095 19.969 18.957 21.6127 19.9034 23.2564C20.0528 23.4556 19.9034 23.7047 19.6543 23.7047C14.8727 24.153 10.1409 24.2526 5.35929 24.0533L5.35335 24.3024ZM5.35335 24.3024C10.1405 24.5016 14.8788 24.402 19.6675 23.9536M5.35335 24.3024L19.6675 23.9536M19.6675 23.9536C19.8719 23.9492 20.0504 23.8435 20.1445 23.6788C20.2408 23.5104 20.2376 23.2978 20.1127 23.1209C19.1821 21.5021 18.5451 19.8839 18.1032 18.0673L18.1034 18.0672L18.1007 18.0577C18.0958 18.0405 18.0877 17.9909 18.0796 17.8951C18.072 17.8056 18.0656 17.6937 18.0585 17.5633C18.0573 17.5402 18.056 17.5166 18.0548 17.4924C18.0417 17.2473 18.026 16.9525 17.997 16.6574C17.9654 16.3348 17.9169 15.999 17.834 15.7166C17.756 15.4505 17.6283 15.1617 17.389 15.0221L17.389 15.0221L17.3871 15.021C17.1703 14.8971 16.9044 14.8357 16.6339 14.806C16.3605 14.776 16.0629 14.7765 15.7709 14.7892C15.5076 14.8006 15.242 14.8224 14.9975 14.8424C14.9707 14.8446 14.9442 14.8468 14.9179 14.8489C14.6481 14.8709 14.4125 14.8886 14.2252 14.8886C12.1293 14.8886 10.0334 14.9385 7.93748 15.0383L7.93942 15.0789L19.6675 23.9536ZM8.14659 16.1729C8.1721 16.0878 8.19771 16.0028 8.22341 15.9179C8.40106 15.905 8.62629 15.8864 8.88829 15.8646C11.3225 15.6627 16.9297 15.1977 17.0145 16.6817C17.1141 17.7775 17.3631 18.8234 17.662 19.8694M8.14659 16.1729C8.07386 16.1777 8.01106 16.1813 7.95928 16.1834L7.94933 16.1838V16.1836C7.92723 16.1836 7.90559 16.1824 7.88446 16.1801C7.66942 16.8993 7.46072 17.6248 7.25201 18.3503C6.99052 19.2593 6.72902 20.1683 6.45507 21.0648M8.14659 16.1729C8.34061 16.1599 8.60524 16.138 8.91955 16.1119C9.20847 16.088 9.53937 16.0606 9.89596 16.0335C10.7945 15.9651 11.8732 15.8971 12.9145 15.8847C13.9595 15.8723 14.9509 15.9164 15.681 16.0664C16.0476 16.1418 16.3284 16.2401 16.5145 16.3576C16.6966 16.4726 16.7595 16.5856 16.7659 16.6959L16.7657 16.6959L16.7665 16.7042C16.8679 17.8203 17.1209 18.8814 17.4207 19.9315M8.14659 16.1729C7.92373 16.9161 7.70776 17.6668 7.49135 18.4191L7.49105 18.4201C7.22986 19.3281 6.968 20.2384 6.69358 21.1365M6.45507 21.0648C5.80756 23.2564 5.90718 23.4556 8.19837 23.5055C11.685 23.6051 15.1716 23.5055 18.6582 23.1568C19.0099 23.1216 18.4177 21.7201 18.0042 20.7417C17.8323 20.3348 17.6913 20.0011 17.662 19.8694M6.45507 21.0648L6.69391 21.1354C6.6938 21.1358 6.69369 21.1361 6.69358 21.1365M6.45507 21.0648L6.69325 21.1376C6.69336 21.1372 6.69347 21.1369 6.69358 21.1365M17.662 19.8694L17.4225 19.9378C17.4219 19.9357 17.4213 19.9336 17.4207 19.9315M17.662 19.8694L17.4189 19.9235C17.4195 19.9261 17.4201 19.9288 17.4207 19.9315M17.4207 19.9315C17.4389 20.0086 17.4776 20.115 17.5219 20.2281C17.5699 20.3507 17.6317 20.4992 17.7002 20.6618C17.7244 20.7194 17.7495 20.7788 17.7753 20.8397C17.896 21.1253 18.0305 21.4436 18.1525 21.7537C18.3016 22.1326 18.426 22.4847 18.4837 22.7401C18.5012 22.8172 18.5104 22.8768 18.5142 22.9208M18.5142 22.9208C15.079 23.2587 11.6429 23.3547 8.20549 23.2565L8.20379 23.2565C7.62915 23.244 7.21267 23.2221 6.91397 23.1665C6.61141 23.11 6.48671 23.0285 6.42891 22.9457C6.36965 22.8609 6.33506 22.7099 6.37873 22.3983C6.42166 22.092 6.53117 21.6863 6.69358 21.1365M18.5142 22.9208C18.5169 22.9521 18.5168 22.9754 18.515 22.9914C18.5146 22.9947 18.5143 22.9969 18.514 22.9982M18.5142 22.9208C18.5539 22.9169 18.5937 22.913 18.6334 22.909C18.596 22.9127 18.5551 22.9342 18.5296 22.969C18.519 22.9833 18.5151 22.9945 18.514 22.9982M18.514 22.9982C18.5138 22.9991 18.5137 22.9995 18.5137 22.9995L18.514 22.9982Z" fill="white" stroke="white" stroke-width="0.498086"/>
    <path d="M8.65713 18.7664L8.65713 18.7664L8.65959 18.7657C9.77663 18.4743 10.9113 18.4 12.0713 18.369C12.3479 18.3616 12.6266 18.3567 12.9068 18.3518C13.794 18.3361 14.6968 18.3202 15.5963 18.2245L15.5963 18.2245L15.6008 18.224C15.9479 18.1806 16.1178 17.8908 16.1178 17.6344C16.1178 17.5057 16.0768 17.3683 15.9813 17.2593C15.8816 17.1456 15.7372 17.0803 15.5699 17.0803H15.557L15.5441 17.0816C14.6495 17.1748 13.7583 17.1903 12.8572 17.2059C12.5671 17.2109 12.276 17.2159 11.9834 17.2236C10.79 17.2548 9.58421 17.3299 8.38569 17.6359L8.37255 17.6393L8.35986 17.6441C8.02456 17.7698 7.91912 18.0947 7.981 18.3525C8.01177 18.4807 8.08599 18.6069 8.20709 18.6911C8.33332 18.7788 8.49193 18.8077 8.65713 18.7664Z" fill="white" stroke="white" stroke-width="0.498086"/>
    <path d="M16.1168 20.4182V20.418L16.1073 20.4184C13.5235 20.5178 10.9914 20.5177 8.41085 20.3688L8.40369 20.3684H8.39651C8.22204 20.3684 8.07678 20.4425 7.97984 20.5606C7.8878 20.6728 7.84861 20.8123 7.84861 20.9412C7.84861 21.0701 7.8878 21.2096 7.97984 21.3217C8.07577 21.4387 8.21904 21.5124 8.3911 21.514C10.9811 21.6135 13.5258 21.6635 16.1222 21.5638C16.2943 21.5623 16.4376 21.4885 16.5335 21.3716C16.6255 21.2594 16.6647 21.1199 16.6647 20.991C16.6647 20.8621 16.6255 20.7226 16.5335 20.6104C16.4366 20.4923 16.2913 20.4182 16.1168 20.4182Z" fill="white" stroke="white" stroke-width="0.498086"/>
    <path d="M4.91116 9.95783H4.91466H4.91816H4.92167H4.92517H4.92868H4.93219H4.9357H4.93921H4.94272H4.94623H4.94975H4.95326H4.95678H4.9603H4.96381H4.96733H4.97085H4.97438H4.9779H4.98142H4.98495H4.98847H4.992H4.99553H4.99905H5.00258H5.00612H5.00965H5.01318H5.01671H5.02025H5.02378H5.02732H5.03086H5.0344H5.03794H5.04148H5.04502H5.04856H5.05211H5.05565H5.0592H5.06274H5.06629H5.06984H5.07339H5.07694H5.08049H5.08404H5.0876H5.09115H5.09471H5.09826H5.10182H5.10538H5.10893H5.11249H5.11605H5.11962H5.12318H5.12674H5.1303H5.13387H5.13743H5.141H5.14457H5.14814H5.15171H5.15528H5.15885H5.16242H5.16599H5.16956H5.17314H5.17671H5.18029H5.18386H5.18744H5.19102H5.1946H5.19818H5.20176H5.20534H5.20892H5.2125H5.21609H5.21967H5.22325H5.22684H5.23043H5.23401H5.2376H5.24119H5.24478H5.24837H5.25196H5.25555H5.25914H5.26274H5.26633H5.26992H5.27352H5.27712H5.28071H5.28431H5.28791H5.2915H5.2951H5.2987H5.3023H5.3059H5.30951H5.31311H5.31671H5.32031H5.32392H5.32752H5.33113H5.33473H5.33834H5.34195H5.34556H5.34916H5.35277H5.35638H5.35999H5.3636H5.36722H5.37083H5.37444H5.37805H5.38167H5.38528H5.3889H5.39251H5.39613H5.39974H5.40336H5.40698H5.41059H5.41421H5.41783H5.42145H5.42507H5.42869H5.43231H5.43593H5.43956H5.44318H5.4468H5.45042H5.45405H5.45767H5.4613H5.46492H5.46855H5.47217H5.4758H5.47943H5.48305H5.48668H5.49031H5.49394H5.49757H5.5012H5.50483H5.50846H5.51209H5.51572H5.51935H5.52298H5.52661H5.53025H5.53388H5.53751H5.54115H5.54478H5.54842H5.55205H5.55569H5.55932H5.56296H5.56659H5.57023H5.57387H5.5775H5.58114H5.58478H5.58842H5.59205H5.59569H5.59933H5.60297H5.60661H5.61025H5.61389H5.61753H5.62117H5.62481H5.62845H5.63209H5.63573H5.63938H5.64302H5.64666H5.6503H5.65395H5.65759H5.66123H5.66487H5.66852H5.67216H5.67581H5.67945H5.68309H5.68674H5.69038H5.69403H5.69767H5.70132H5.70496H5.70861H5.71225H5.7159H5.71955H5.72319H5.72684H5.73048H5.73413H5.73778H5.74142H5.74507H5.74872H5.75236H5.75601H5.75966H5.76331H5.76695H5.7706H5.77425H5.7779H5.78154H5.78519H5.78884H5.79249H5.79613H5.79978H5.80343H5.80708H5.81073H5.81437H5.81802H5.82167H5.82532H5.82897H5.83261H5.83626H5.83991H5.84356H5.84721H5.85085H5.8545H5.85815H5.8618H5.86545H5.86909H5.87274H5.87639H5.88004H5.88369H5.88733H5.89098H5.89463H5.89828H5.90192H5.90557H5.90922H5.91286H5.91651H5.92016H5.9238H5.92745H5.9311H5.93474H5.93839H5.94204H5.94568H5.94933H5.95297H5.95662H5.96027H5.96391H5.96756H5.9712H5.97485H5.97849H5.98213H5.98578H5.98942H5.99307H5.99671H6.00035H6.004H6.00764H6.01128H6.01493H6.01857H6.02221H6.02585H6.02949H6.03314H6.03678H6.04042H6.04406H6.0477H6.05134H6.05498H6.05862H6.06226H6.0659H6.06954H6.07317H6.07681H6.08045H6.08409H6.08773H6.09136H6.095H6.09864H6.10227H6.10591H6.10954H6.11318H6.11681H6.12045H6.12408H6.12771H6.13135H6.13498H6.13861H6.14225H6.14588H6.14951H6.15314H6.15677H6.1604H6.16403H6.16766H6.17129H6.17492H6.17855H6.18217H6.1858H6.18943H6.19305H6.19668H6.20031H6.20393H6.20756H6.21118H6.2148H6.21843H6.22205H6.22567H6.22929H6.23292H6.23654H6.24016H6.24378H6.2474H6.25102H6.25463H6.25825H6.26187H6.26549H6.2691H6.27272H6.27633H6.27995H6.28356H6.28718H6.29079H6.2944H6.29801H6.30162H6.30523H6.30885H6.31245H6.31606H6.31967H6.32328H6.32689H6.33049H6.3341H6.33771H6.34131H6.34491H6.34852H6.35212H6.35572H6.35932H6.36293H6.36653H6.37013H6.37372H6.37732H6.38092H6.38452H6.38811H6.39171H6.3953H6.3989H6.40249H6.40608H6.40968H6.41327H6.41686H6.42045H6.42404H6.42763H6.43121H6.4348H6.43839H6.44197H6.44556H6.44914H6.45273H6.45631H6.45989H6.46347H6.46705H6.47063H6.47421H6.47779H6.48137H6.48494H6.48852H6.49209H6.49567H6.49924H6.50281H6.50638H6.50995H6.51352H6.51709H6.52066H6.52423H6.52779H6.53136H6.53492H6.53849H6.54205H6.54561H6.54917H6.55273H6.55629H6.55985H6.56341H6.56697H6.57052H6.57408H6.57763H6.58119H6.58474H6.58829H6.59184H6.59539H6.59894H6.60248H6.60603H6.60958H6.61312H6.61667H6.62021H6.62375H6.62729H6.63083H6.63437H6.63791H6.64144H6.64498H6.64851H6.65205H6.65558H6.65911H6.66264H6.66617H6.6697H6.67323H6.67676H6.68028H6.68381H6.68733H6.69085H6.69437H6.69789H6.70141H6.70493H6.70845H6.71197H6.71548H6.71899H6.72251H6.72602H6.72953H6.73304H6.73655H6.74005H6.74356H6.74707H6.75057H6.75407C6.92854 9.95783 7.0738 9.88373 7.17074 9.76559C7.26278 9.65341 7.30197 9.51392 7.30197 9.38504C7.30197 9.25615 7.26278 9.11666 7.17074 9.00448C7.0738 8.88634 6.92854 8.81224 6.75407 8.81224H6.75057H6.74707H6.74356H6.74005H6.73655H6.73304H6.72953H6.72602H6.72251H6.71899H6.71548H6.71197H6.70845H6.70493H6.70141H6.69789H6.69437H6.69085H6.68733H6.68381H6.68028H6.67676H6.67323H6.6697H6.66617H6.66264H6.65911H6.65558H6.65205H6.64851H6.64498H6.64144H6.63791H6.63437H6.63083H6.62729H6.62375H6.62021H6.61667H6.61312H6.60958H6.60603H6.60248H6.59894H6.59539H6.59184H6.58829H6.58474H6.58119H6.57763H6.57408H6.57052H6.56697H6.56341H6.55985H6.55629H6.55273H6.54917H6.54561H6.54205H6.53849H6.53492H6.53136H6.52779H6.52423H6.52066H6.51709H6.51352H6.50995H6.50638H6.50281H6.49924H6.49567H6.49209H6.48852H6.48494H6.48137H6.47779H6.47421H6.47063H6.46705H6.46347H6.45989H6.45631H6.45273H6.44914H6.44556H6.44197H6.43839H6.4348H6.43121H6.42763H6.42404H6.42045H6.41686H6.41327H6.40968H6.40608H6.40249H6.3989H6.3953H6.39171H6.38811H6.38452H6.38092H6.37732H6.37372H6.37013H6.36653H6.36293H6.35932H6.35572H6.35212H6.34852H6.34491H6.34131H6.33771H6.3341H6.33049H6.32689H6.32328H6.31967H6.31606H6.31245H6.30885H6.30523H6.30162H6.29801H6.2944H6.29079H6.28718H6.28356H6.27995H6.27633H6.27272H6.2691H6.26549H6.26187H6.25825H6.25463H6.25102H6.2474H6.24378H6.24016H6.23654H6.23292H6.22929H6.22567H6.22205H6.21843H6.2148H6.21118H6.20756H6.20393H6.20031H6.19668H6.19305H6.18943H6.1858H6.18217H6.17855H6.17492H6.17129H6.16766H6.16403H6.1604H6.15677H6.15314H6.14951H6.14588H6.14225H6.13861H6.13498H6.13135H6.12771H6.12408H6.12045H6.11681H6.11318H6.10954H6.10591H6.10227H6.09864H6.095H6.09136H6.08773H6.08409H6.08045H6.07681H6.07317H6.06954H6.0659H6.06226H6.05862H6.05498H6.05134H6.0477H6.04406H6.04042H6.03678H6.03314H6.02949H6.02585H6.02221H6.01857H6.01493H6.01128H6.00764H6.004H6.00035H5.99671H5.99307H5.98942H5.98578H5.98213H5.97849H5.97485H5.9712H5.96756H5.96391H5.96027H5.95662H5.95297H5.94933H5.94568H5.94204H5.93839H5.93474H5.9311H5.92745H5.9238H5.92016H5.91651H5.91286H5.90922H5.90557H5.90192H5.89828H5.89463H5.89098H5.88733H5.88369H5.88004H5.87639H5.87274H5.86909H5.86545H5.8618H5.85815H5.8545H5.85085H5.84721H5.84356H5.83991H5.83626H5.83261H5.82897H5.82532H5.82167H5.81802H5.81437H5.81073H5.80708H5.80343H5.79978H5.79613H5.79249H5.78884H5.78519H5.78154H5.7779H5.77425H5.7706H5.76695H5.76331H5.75966H5.75601H5.75236H5.74872H5.74507H5.74142H5.73778H5.73413H5.73048H5.72684H5.72319H5.71955H5.7159H5.71225H5.70861H5.70496H5.70132H5.69767H5.69403H5.69038H5.68674H5.68309H5.67945H5.67581H5.67216H5.66852H5.66487H5.66123H5.65759H5.65395H5.6503H5.64666H5.64302H5.63938H5.63573H5.63209H5.62845H5.62481H5.62117H5.61753H5.61389H5.61025H5.60661H5.60297H5.59933H5.59569H5.59205H5.58842H5.58478H5.58114H5.5775H5.57387H5.57023H5.56659H5.56296H5.55932H5.55569H5.55205H5.54842H5.54478H5.54115H5.53751H5.53388H5.53025H5.52661H5.52298H5.51935H5.51572H5.51209H5.50846H5.50483H5.5012H5.49757H5.49394H5.49031H5.48668H5.48305H5.47943H5.4758H5.47217H5.46855H5.46492H5.4613H5.45767H5.45405H5.45042H5.4468H5.44318H5.43956H5.43593H5.43231H5.42869H5.42507H5.42145H5.41783H5.41421H5.41059H5.40698H5.40336H5.39974H5.39613H5.39251H5.3889H5.38528H5.38167H5.37805H5.37444H5.37083H5.36722H5.3636H5.35999H5.35638H5.35277H5.34916H5.34556H5.34195H5.33834H5.33473H5.33113H5.32752H5.32392H5.32031H5.31671H5.31311H5.30951H5.3059H5.3023H5.2987H5.2951H5.2915H5.28791H5.28431H5.28071H5.27712H5.27352H5.26992H5.26633H5.26274H5.25914H5.25555H5.25196H5.24837H5.24478H5.24119H5.2376H5.23401H5.23043H5.22684H5.22325H5.21967H5.21609H5.2125H5.20892H5.20534H5.20176H5.19818H5.1946H5.19102H5.18744H5.18386H5.18029H5.17671H5.17314H5.16956H5.16599H5.16242H5.15885H5.15528H5.15171H5.14814H5.14457H5.141H5.13743H5.13387H5.1303H5.12674H5.12318H5.11962H5.11605H5.11249H5.10893H5.10538H5.10182H5.09826H5.09471H5.09115H5.0876H5.08404H5.08049H5.07694H5.07339H5.06984H5.06629H5.06274H5.0592H5.05565H5.05211H5.04856H5.04502H5.04148H5.03794H5.0344H5.03086H5.02732H5.02378H5.02025H5.01671H5.01318H5.00965H5.00612H5.00258H4.99905H4.99553H4.992H4.98847H4.98495H4.98142H4.9779H4.97438H4.97085H4.96733H4.96381H4.9603H4.95678H4.95326H4.94975H4.94623H4.94272H4.93921H4.9357H4.93219H4.92868H4.92517H4.92167H4.91816H4.91466H4.91116C4.73668 8.81224 4.59142 8.88634 4.49449 9.00448C4.40244 9.11666 4.36326 9.25615 4.36326 9.38504C4.36326 9.51392 4.40244 9.65341 4.49449 9.76559C4.59142 9.88373 4.73668 9.95783 4.91116 9.95783Z" fill="white" stroke="white" stroke-width="0.498086"/>
    <path d="M6.80306 2.54711L6.80329 2.54712V2.5363C6.80329 2.50943 6.81146 2.47719 6.86704 2.4318C6.92921 2.38103 7.03533 2.32874 7.19342 2.28281C7.50791 2.19144 7.94927 2.14688 8.43005 2.13147C8.90647 2.1162 9.40359 2.12991 9.82168 2.14772C9.97878 2.15441 10.1276 2.16186 10.2601 2.1685C10.4719 2.17911 10.6421 2.18764 10.7382 2.18764V2.18778L10.7465 2.1875C11.4912 2.16268 12.2362 2.15025 12.9899 2.13779L13.0096 2.13747C13.7557 2.12514 14.5102 2.11267 15.2773 2.08794C15.8546 2.07635 16.2347 2.18622 16.4925 2.35765C16.7477 2.52738 16.9116 2.77644 17.0208 3.10129C17.1317 3.43116 17.1815 3.82515 17.2148 4.26713C17.2261 4.41822 17.2356 4.57686 17.2453 4.73928C17.2632 5.03837 17.2818 5.35024 17.3143 5.6512L17.3143 5.6512L17.3148 5.65532C17.3582 6.00239 17.648 6.17232 17.9044 6.17232C18.0331 6.17232 18.1705 6.13133 18.2795 6.03583C18.3932 5.93615 18.4585 5.79175 18.4585 5.62443V5.61313L18.4575 5.60188C18.4361 5.36633 18.4415 5.03223 18.4481 4.6327C18.4487 4.59624 18.4493 4.55923 18.4499 4.5217C18.4569 4.08154 18.4618 3.58265 18.4267 3.10333C18.3918 2.62683 18.3161 2.14995 18.1518 1.75952C17.9862 1.36576 17.7169 1.03112 17.284 0.902876L17.2841 0.902801L17.278 0.901178C16.5861 0.714894 15.7395 0.731297 14.9218 0.79372C14.5762 0.820103 14.2396 0.854133 13.9165 0.886801C13.4534 0.933624 13.018 0.977648 12.6233 0.992342C11.5779 1.01723 10.5201 1.04212 9.46225 1.06701L9.46219 1.06701L9.46203 1.06702C8.40448 1.0919 7.34689 1.11679 6.30171 1.14167C6.14748 1.14279 6.01395 1.21769 5.92365 1.30799C5.83266 1.39898 5.75731 1.53384 5.75731 1.68955H5.75715L5.75747 1.69844C5.80646 3.07017 5.75799 4.28799 5.51809 5.5982C5.45667 5.74008 5.44884 5.88932 5.50883 6.0239C5.57114 6.16367 5.69041 6.25066 5.80931 6.29029C5.92699 6.32952 6.06806 6.33064 6.19438 6.26994C6.32904 6.20523 6.42604 6.07943 6.45134 5.91405C6.65271 4.80517 6.75299 3.69875 6.80306 2.54711Z" fill="white" stroke="white" stroke-width="0.498086"/>
    <path d="M8.40129 4.73171L8.40121 4.73182L8.4079 4.73628C8.84459 5.02741 9.37974 5.08941 9.88465 5.08941C10.1397 5.08941 10.398 5.07327 10.6421 5.05778L10.655 5.05695C10.8975 5.04156 11.1244 5.02715 11.3353 5.02715H11.3432H11.3511H11.359H11.3669H11.3747H11.3826H11.3905H11.3984H11.4063H11.4142H11.4221H11.43H11.4379H11.4457H11.4536H11.4615H11.4694H11.4773H11.4852H11.4931H11.501H11.5089H11.5169H11.5248H11.5327H11.5406H11.5485H11.5564H11.5643H11.5722H11.5801H11.588H11.596H11.6039H11.6118H11.6197H11.6276H11.6355H11.6435H11.6514H11.6593H11.6672H11.6752H11.6831H11.691H11.6989H11.7069H11.7148H11.7227H11.7306H11.7386H11.7465H11.7544H11.7624H11.7703H11.7783H11.7862H11.7941H11.8021H11.81H11.8179H11.8259H11.8338H11.8418H11.8497H11.8577H11.8656H11.8736H11.8815H11.8895H11.8974H11.9054H11.9133H11.9213H11.9292H11.9372H11.9451H11.9531H11.961H11.969H11.9769H11.9849H11.9929H12.0008H12.0088H12.0167H12.0247H12.0327H12.0406H12.0486H12.0566H12.0645H12.0725H12.0804H12.0884H12.0964H12.1044H12.1123H12.1203H12.1283H12.1362H12.1442H12.1522H12.1602H12.1681H12.1761H12.1841H12.1921H12.2H12.208H12.216H12.224H12.232H12.2399H12.2479H12.2559H12.2639H12.2719H12.2798H12.2878H12.2958H12.3038H12.3118H12.3198H12.3278H12.3358H12.3437H12.3517H12.3597H12.3677H12.3757H12.3837H12.3917H12.3997H12.4077H12.4157H12.4237H12.4316H12.4396H12.4476H12.4556H12.4636H12.4716H12.4796H12.4876H12.4956H12.5036H12.5116H12.5196H12.5276H12.5356H12.5436H12.5516H12.5596H12.5676H12.5756H12.5836H12.5916H12.5996H12.6077H12.6157H12.6237H12.6317H12.6397H12.6477H12.6557H12.6637H12.6717H12.6797H12.6877H12.6957H12.7037H12.7118H12.7198H12.7278H12.7358H12.7438H12.7518H12.7598H12.7678H12.7759H12.7839H12.7919H12.7999H12.8079H12.8159H12.8239H12.832H12.84H12.848H12.856H12.864H12.872H12.8801H12.8881H12.8961H12.9041H12.9121H12.9201H12.9282H12.9362H12.9442H12.9522H12.9602H12.9683H12.9763H12.9843H12.9923H13.0003H13.0084H13.0164H13.0244H13.0324H13.0404H13.0485H13.0565H13.0645H13.0725H13.0806H13.0886H13.0966H13.1046H13.1126H13.1207H13.1287H13.1367H13.1447H13.1528H13.1608H13.1688H13.1768H13.1849H13.1929H13.2009H13.2089H13.217H13.225H13.233H13.241H13.2491H13.2571H13.2651H13.2731H13.2812H13.2892H13.2972H13.3052H13.3133H13.3213H13.3293H13.3373H13.3454H13.3534H13.3614H13.3694H13.3775H13.3855H13.3935H13.4015H13.4096H13.4176H13.4256H13.4337H13.4417H13.4497H13.4577H13.4658H13.4738H13.4818H13.4898H13.4979H13.5059H13.5139H13.5219H13.53H13.538H13.546H13.554H13.5621H13.5701H13.5781H13.5861H13.5942H13.6022H13.6102H13.6182H13.6262H13.6343H13.6423H13.6503H13.6583H13.6664H13.6744H13.6824H13.6904H13.6985H13.7065H13.7145H13.7225H13.7305H13.7386H13.7466H13.7546H13.7626H13.7706H13.7787H13.7867H13.7947H13.8027H13.8107H13.8188H13.8268H13.8348H13.8428H13.8508H13.8589H13.8669H13.8749H13.8829H13.8909H13.8989H13.907H13.915H13.923H13.931H13.939H13.947H13.9551H13.9631H13.9711H13.9791H13.9871H13.9951H14.0031H14.0111H14.0192H14.0272H14.0352H14.0432H14.0512H14.0592H14.0672H14.0752H14.0832H14.0912H14.0993H14.1073H14.1153H14.1233H14.1313H14.1393H14.1473H14.1553H14.1633H14.1713H14.1793H14.1873H14.1953H14.2033H14.2113H14.2193H14.2273H14.2353H14.2433H14.2513H14.2593H14.2673H14.2753H14.2833H14.2913H14.2993H14.3073H14.3153H14.3233H14.3313H14.3393H14.3473H14.3553H14.3633H14.3713H14.3792H14.3872H14.3952H14.4032H14.4112H14.4192H14.4272H14.4352H14.4432H14.4511H14.4591H14.4671H14.4751H14.4831H14.4911H14.499H14.507H14.515H14.523H14.531H14.5389H14.5469H14.5549H14.5629H14.5709H14.5788H14.5868H14.5948H14.6028H14.6107H14.6187H14.6267H14.6346H14.6426H14.6506H14.6586H14.6665H14.6745H14.6825H14.6904H14.6984H14.7064H14.7143H14.7223H14.7302H14.7382H14.7462H14.7541H14.7621H14.7701H14.778H14.786H14.7939H14.8019H14.8098H14.8178H14.8257H14.8337H14.8416H14.8496H14.8575H14.8655H14.8734H14.8814H14.8893H14.8973H14.9052H14.9132H14.9211H14.9291H14.937H14.9449H14.9529H14.9608H14.9688H14.9767H14.9846H14.9926H15.0005H15.0084H15.0164H15.0243H15.0322H15.0402H15.0481H15.056H15.0639H15.0719H15.0798H15.0877H15.0956H15.1036H15.1115H15.1194H15.1273H15.1352H15.1432H15.1511H15.159H15.1669H15.1748H15.1827H15.1906H15.1986H15.2065H15.2144H15.2223H15.2302H15.2381H15.246H15.2539H15.2618H15.2697H15.2776H15.2855H15.2934H15.3013H15.3092H15.3171H15.325H15.3329H15.3408H15.3487H15.3565H15.3644H15.3723H15.3802H15.3881H15.396H15.4039H15.4117H15.4196C15.5869 5.02715 15.7313 4.96181 15.831 4.84811C15.9265 4.73918 15.9675 4.60171 15.9675 4.47303C15.9675 4.21666 15.7976 3.92686 15.4505 3.88347L15.4351 3.88155H15.4196H15.4135H15.4074H15.4012H15.3951H15.389H15.3829H15.3767H15.3706H15.3645H15.3584H15.3523H15.3462H15.34H15.3339H15.3278H15.3217H15.3156H15.3095H15.3034H15.2973H15.2912H15.2851H15.279H15.2729H15.2667H15.2606H15.2545H15.2484H15.2423H15.2363H15.2302H15.2241H15.218H15.2119H15.2058H15.1997H15.1936H15.1875H15.1814H15.1753H15.1692H15.1632H15.1571H15.151H15.1449H15.1388H15.1328H15.1267H15.1206H15.1145H15.1084H15.1024H15.0963H15.0902H15.0841H15.0781H15.072H15.0659H15.0599H15.0538H15.0477H15.0417H15.0356H15.0295H15.0235H15.0174H15.0113H15.0053H14.9992H14.9931H14.9871H14.981H14.975H14.9689H14.9629H14.9568H14.9507H14.9447H14.9386H14.9326H14.9265H14.9205H14.9144H14.9084H14.9023H14.8963H14.8902H14.8842H14.8782H14.8721H14.8661H14.86H14.854H14.8479H14.8419H14.8359H14.8298H14.8238H14.8177H14.8117H14.8057H14.7996H14.7936H14.7876H14.7815H14.7755H14.7695H14.7634H14.7574H14.7514H14.7453H14.7393H14.7333H14.7272H14.7212H14.7152H14.7092H14.7031H14.6971H14.6911H14.6851H14.679H14.673H14.667H14.661H14.655H14.6489H14.6429H14.6369H14.6309H14.6249H14.6188H14.6128H14.6068H14.6008H14.5948H14.5888H14.5828H14.5767H14.5707H14.5647H14.5587H14.5527H14.5467H14.5407H14.5347H14.5287H14.5226H14.5166H14.5106H14.5046H14.4986H14.4926H14.4866H14.4806H14.4746H14.4686H14.4626H14.4566H14.4506H14.4446H14.4386H14.4326H14.4266H14.4206H14.4146H14.4086H14.4026H14.3966H14.3906H14.3846H14.3786H14.3726H14.3666H14.3606H14.3546H14.3486H14.3426H14.3366H14.3306H14.3246H14.3186H14.3126H14.3066H14.3006H14.2946H14.2886H14.2826H14.2766H14.2706H14.2646H14.2587H14.2527H14.2467H14.2407H14.2347H14.2287H14.2227H14.2167H14.2107H14.2047H14.1987H14.1928H14.1868H14.1808H14.1748H14.1688H14.1628H14.1568H14.1508H14.1449H14.1389H14.1329H14.1269H14.1209H14.1149H14.1089H14.1029H14.097H14.091H14.085H14.079H14.073H14.067H14.061H14.0551H14.0491H14.0431H14.0371H14.0311H14.0251H14.0192H14.0132H14.0072H14.0012H13.9952H13.9892H13.9833H13.9773H13.9713H13.9653H13.9593H13.9533H13.9474H13.9414H13.9354H13.9294H13.9234H13.9174H13.9115H13.9055H13.8995H13.8935H13.8875H13.8815H13.8756H13.8696H13.8636H13.8576H13.8516H13.8456H13.8397H13.8337H13.8277H13.8217H13.8157H13.8097H13.8038H13.7978H13.7918H13.7858H13.7798H13.7738H13.7679H13.7619H13.7559H13.7499H13.7439H13.7379H13.732H13.726H13.72H13.714H13.708H13.702H13.6961H13.6901H13.6841H13.6781H13.6721H13.6661H13.6601H13.6542H13.6482H13.6422H13.6362H13.6302H13.6242H13.6182H13.6122H13.6063H13.6003H13.5943H13.5883H13.5823H13.5763H13.5703H13.5643H13.5584H13.5524H13.5464H13.5404H13.5344H13.5284H13.5224H13.5164H13.5104H13.5044H13.4985H13.4925H13.4865H13.4805H13.4745H13.4685H13.4625H13.4565H13.4505H13.4445H13.4385H13.4325H13.4265H13.4205H13.4145H13.4085H13.4025H13.3965H13.3906H13.3846H13.3786H13.3726H13.3666H13.3606H13.3546H13.3486H13.3426H13.3366H13.3306H13.3246H13.3186H13.3126H13.3065H13.3005H13.2945H13.2885H13.2825H13.2765H13.2705H13.2645H13.2585H13.2525H13.2465H13.2405H13.2345H13.2285H13.2225H13.2165H13.2104H13.2044H13.1984H13.1924H13.1864H13.1804H13.1744H13.1684H13.1623H13.1563H13.1503H13.1443H13.1383H13.1323H13.1263H13.1202H13.1142H13.1082H13.1022H13.0962H13.0901H13.0841H13.0781H13.0721H13.066H13.06H13.054H13.048H13.0419H13.0359H13.0299H13.0239H13.0178H13.0118H13.0058H12.9998H12.9937H12.9877H12.9817H12.9756H12.9696H12.9636H12.9575H12.9515H12.9455H12.9394H12.9334H12.9273H12.9213H12.9153H12.9092H12.9032H12.8971H12.8911H12.8851H12.879H12.873H12.8669H12.8609H12.8548H12.8488H12.8427H12.8367H12.8306H12.8246H12.8185H12.8125H12.8064H12.8004H12.7943H12.7883H12.7822H12.7761H12.7701H12.764H12.758H12.7519H12.7458H12.7398H12.7337H12.7277H12.7216H12.7155H12.7095H12.7034H12.6973H12.6913H12.6852H12.6791H12.673H12.667H12.6609H12.6548H12.6488H12.6427H12.6366H12.6305H12.6244H12.6184H12.6123H12.6062H12.6001H12.594H12.588H12.5819H12.5758H12.5697H12.5636H12.5575H12.5514H12.5453H12.5392H12.5331H12.5271H12.521H12.5149H12.5088H12.5027H12.4966H12.4905H12.4844H12.4783H12.4722H12.4661H12.46H12.4538H12.4477H12.4416H12.4355H12.4294H12.4233H12.4172H12.4111H12.405H12.3988H12.3927H12.3866H12.3805H12.3744H12.3682H12.3621H12.356H12.3499H12.3437H12.3376H12.3315C12.0954 3.88155 11.8014 3.90436 11.4936 3.92904C11.4762 3.93044 11.4587 3.93184 11.4412 3.93325C11.1445 3.95709 10.8313 3.98226 10.5229 3.99379C10.1957 4.00602 9.88271 4.00247 9.61041 3.96762C9.33442 3.93229 9.12334 3.86748 8.98304 3.77395L8.9759 3.76919L8.96845 3.76494C8.82546 3.68323 8.66977 3.66524 8.52721 3.71018C8.38933 3.75364 8.28265 3.84987 8.21774 3.96345C8.08416 4.19723 8.11568 4.52771 8.40129 4.73171Z" fill="white" stroke="white" stroke-width="0.498086"/>
</svg>