<svg width="209" height="53" viewBox="0 0 209 53" fill="none" xmlns="http://www.w3.org/2000/svg">
    <path d="M9.7055 10.5C-4.2945 18.1 -0.127836 32.6667 3.7055 39C7.70583 46.6 19.7051 46.91 33.7051 47.5C77.2051 49.3333 167.705 52.9 181.705 52.5C199.205 52 209.205 41 208.705 21C208.305 5 192.205 0.333333 184.205 0C131.872 0.333333 23.7055 2.9 9.7055 10.5Z" fill="#DE5935"/>
    <path fill-rule="evenodd" clip-rule="evenodd" d="M181.319 4.35547C170.669 4.35547 156 13.0962 156 24.6777C156 36.2592 170.669 44.9999 181.319 44.9999C191.969 44.9999 200.61 36.2592 200.61 24.6777C200.61 13.0962 191.969 4.35547 181.319 4.35547Z" fill="white"/>
    <path fill-rule="evenodd" clip-rule="evenodd" d="M186.596 24.1805C186.626 24.0615 186.626 23.9129 186.596 23.7338V23.4662C186.596 23.3176 186.566 23.2138 186.505 23.1538C186.413 23.0642 186.413 23.0052 186.505 22.9747C186.656 22.8852 186.732 22.8118 186.732 22.7518C186.732 22.7223 186.701 22.648 186.641 22.528L186.55 22.3499L186.505 22.2604C186.474 22.2318 186.46 22.187 186.46 22.127V21.8584C186.46 21.7994 186.505 21.7251 186.596 21.6355C186.626 21.6355 186.641 21.606 186.641 21.547C186.641 21.487 186.626 21.4574 186.596 21.4574C186.474 21.3974 186.382 21.2784 186.323 21.1003C186.261 20.8621 186.216 20.7278 186.186 20.6983C186.095 20.6688 186.019 20.5497 185.958 20.3411C185.928 20.2221 185.868 20.1173 185.777 20.0287L185.731 19.8944C185.731 19.8049 185.715 19.7754 185.685 19.8049C185.564 19.8944 185.488 19.924 185.458 19.8944V19.6268L185.185 19.4925C185.155 19.463 185.049 19.3887 184.866 19.2696C184.835 19.2401 184.776 19.2106 184.685 19.1801C184.594 19.1506 184.532 19.121 184.502 19.0906L184.184 18.7781C183.971 18.5705 183.821 18.481 183.729 18.5105C183.517 18.5705 183.349 18.4505 183.229 18.1533C183.077 17.8857 182.955 17.7514 182.865 17.7514C182.531 17.7514 182.319 17.6333 182.228 17.3942C182.167 17.3352 182.092 17.3199 182 17.3494C181.91 17.3799 181.773 17.3047 181.592 17.1266C181.439 16.9475 181.333 16.7989 181.273 16.6799L181.364 16.5903C181.394 16.5903 181.409 16.576 181.409 16.5456C181.318 16.4275 181.212 16.4275 181.09 16.5456V16.6351C181.09 16.7246 181.075 16.7694 181.045 16.7694C180.984 16.7694 180.954 16.7094 180.954 16.5903C180.984 16.5008 180.908 16.3675 180.727 16.1884C180.696 16.1589 180.651 16.1589 180.59 16.1884C180.529 16.2189 180.483 16.2341 180.453 16.2341C180.423 16.1446 180.392 16.0846 180.363 16.055L180.182 16.1446C180.089 16.2341 179.998 16.2036 179.908 16.055C179.756 15.8465 179.59 15.7722 179.408 15.8312C179.316 15.8617 179.226 15.8312 179.134 15.7417C178.953 15.5941 178.709 15.4598 178.406 15.3407C177.981 15.1331 177.739 14.9988 177.679 14.9388C177.649 14.9092 177.543 14.894 177.36 14.894C177.148 14.894 177.042 14.7902 177.042 14.5816C177.042 14.4025 176.951 14.3739 176.769 14.4921C176.647 14.5816 176.557 14.5968 176.496 14.5368C176.405 14.4473 176.314 14.4025 176.223 14.4025C176.101 14.4025 176.026 14.3882 175.996 14.3587C175.905 14.2692 175.783 14.2692 175.632 14.3587C175.509 14.4473 175.419 14.4625 175.359 14.4025L175.267 14.313C175.177 14.2244 175.131 14.2692 175.131 14.4473C175.131 14.7749 175.085 15.0131 174.995 15.1616C175.055 15.2512 175.085 15.3407 175.085 15.4293V15.6083L175.04 15.6969C175.01 15.6969 174.995 15.7122 174.995 15.7417L174.858 15.876C174.828 15.995 174.828 16.0846 174.858 16.1446C174.888 16.1741 174.904 16.2779 174.904 16.456V16.9475L174.995 17.3494L175.131 17.7514C174.797 18.2581 174.843 18.6448 175.267 18.9124C175.177 19.0315 175.161 19.1353 175.222 19.2249C175.283 19.3744 175.298 19.4925 175.267 19.582C175.267 19.6116 175.298 19.6563 175.359 19.7163C175.419 19.7754 175.434 19.8354 175.404 19.8944C175.343 19.9544 175.313 20.0135 175.313 20.0725C175.313 20.1326 175.359 20.1326 175.449 20.0725C175.661 20.0135 175.798 20.044 175.859 20.1621C176.192 20.5193 176.526 20.6688 176.86 20.6088C176.89 20.5802 177.056 20.6383 177.36 20.7869C177.208 20.966 177.239 21.0707 177.451 21.1003C177.967 21.1593 178.375 21.3831 178.679 21.7698C178.74 21.8298 178.831 21.8584 178.953 21.8584C179.043 21.8584 179.119 21.9032 179.18 21.9927C179.331 22.3213 179.498 22.4842 179.681 22.4842C179.711 22.5432 179.847 22.6252 180.089 22.729C180.332 22.8337 180.438 22.9909 180.409 23.1985C180.438 23.2881 180.514 23.3176 180.637 23.2881C180.97 23.1385 181.166 23.1985 181.227 23.4662C181.288 23.5557 181.364 23.5995 181.455 23.5995C181.515 23.5995 181.729 23.6891 182.092 23.8681C182.121 23.8976 182.121 23.9729 182.092 24.0919C182.03 24.151 181.985 24.2253 181.956 24.3139C181.925 24.4034 181.849 24.4786 181.729 24.5377C181.666 24.5977 181.424 24.7758 181 25.073C181 25.2825 180.893 25.3854 180.681 25.3854C180.5 25.3854 180.378 25.4159 180.317 25.4749C180.287 25.3854 180.211 25.3711 180.089 25.4302C179.968 25.5492 179.817 25.6835 179.635 25.8331C179.301 26.1007 179.09 26.2493 178.998 26.2788C178.906 26.3388 178.635 26.5626 178.179 26.9484C177.784 27.277 177.497 27.4694 177.315 27.5294L176.769 27.9304C176.434 28.139 176.314 28.4523 176.405 28.8686C176.405 28.9876 176.39 29.0467 176.359 29.0467C176.299 29.0771 176.268 29.1657 176.268 29.3153V29.6277C176.268 29.7163 176.283 29.7915 176.314 29.8506C176.344 29.9106 176.359 30.0144 176.359 30.163C176.359 30.2525 176.283 30.3268 176.133 30.3868C176.101 30.3868 176.087 30.4239 176.087 30.4982C176.087 30.5725 176.101 30.6097 176.133 30.6097C176.223 30.6697 176.268 30.7592 176.268 30.8773C176.268 30.9964 176.283 31.0716 176.314 31.1011C176.465 31.1602 176.481 31.265 176.359 31.4135C176.268 31.5326 176.223 31.6069 176.223 31.6364C176.223 31.6964 176.268 31.9784 176.359 32.4851C176.451 32.9613 176.42 33.2289 176.268 33.288C176.268 33.6166 176.314 33.8395 176.405 33.9576C176.434 34.0776 176.496 34.1071 176.587 34.0471C176.769 33.9576 176.875 33.9728 176.906 34.0919C177.026 34.3309 176.996 34.4652 176.814 34.4938C176.662 34.4938 176.587 34.5538 176.587 34.6719C176.618 34.7024 176.708 34.7472 176.86 34.8062H177.042H177.269C177.299 34.8062 177.345 34.851 177.406 34.9396C177.436 35.1186 177.557 35.1348 177.77 34.9853L177.906 34.851C178.027 34.7024 178.134 34.5681 178.224 34.4491C178.437 34.2109 178.618 34.0185 178.77 33.869C178.831 33.8099 178.892 33.7652 178.953 33.7357C179.073 33.6756 179.149 33.6309 179.18 33.6014C179.24 33.5414 179.271 33.4823 179.271 33.4223C179.331 33.3042 179.392 33.2432 179.453 33.2432C179.545 33.2432 179.59 33.2289 179.59 33.1985V33.1099C179.62 32.9908 179.695 32.9756 179.817 33.0651C179.847 33.0356 179.878 32.9756 179.908 32.887C179.938 32.827 179.954 32.768 179.954 32.7079C179.954 32.6794 179.968 32.6632 179.998 32.6632C180.089 32.6927 180.182 32.7079 180.272 32.7079L180.226 32.5736V32.4403C180.317 32.2317 180.415 32.1279 180.521 32.1279C180.628 32.1279 180.847 31.9641 181.182 31.6364C181.303 31.4288 181.424 31.3393 181.545 31.3688C181.575 31.3688 181.636 31.324 181.729 31.2354C181.758 31.0859 181.833 31.0268 181.956 31.0564C181.985 31.0268 182 30.9821 182 30.9221C182 30.8935 181.97 30.8773 181.91 30.8773H181.773C181.743 30.8478 181.758 30.803 181.819 30.744L182.592 30.3868C182.684 30.3268 182.698 30.2677 182.637 30.2077C182.547 30.1182 182.531 30.0734 182.592 30.0734L182.865 29.9401L183.138 29.8506C182.955 29.761 182.941 29.6877 183.092 29.6277C183.244 29.5677 183.32 29.5086 183.32 29.4486C183.29 29.36 183.335 29.3 183.456 29.2705L183.639 29.2257C183.699 29.1657 183.744 29.0914 183.774 29.0019C183.805 28.8838 183.866 28.8238 183.957 28.8238C184.26 28.7943 184.488 28.6162 184.639 28.2885C184.73 28.1094 184.821 28.0199 184.913 28.0199C185.124 28.0494 185.268 28.0199 185.345 27.9304C185.419 27.8418 185.427 27.7075 185.368 27.5294C185.368 27.3808 185.383 27.277 185.413 27.217C185.443 27.1275 185.518 27.0684 185.64 27.0379L185.821 26.9484H185.913L186.005 26.8589C186.005 26.7693 186.073 26.6741 186.209 26.5693C186.344 26.4655 186.413 26.3683 186.413 26.2788C186.413 25.9216 186.519 25.7283 186.732 25.6988V25.5645C186.61 25.4464 186.61 25.2378 186.732 24.9396C186.519 24.732 186.474 24.4786 186.596 24.1805ZM175.586 15.0721L175.677 15.0283H175.722L175.769 15.0721L175.677 15.1169C175.677 15.1474 175.661 15.1616 175.632 15.1616L175.586 15.0721ZM175.586 14.8045L175.677 14.7597C175.677 14.7302 175.692 14.7149 175.722 14.7149L175.769 14.8045L175.677 14.8492H175.632L175.586 14.8045ZM178.088 15.9655C178.118 15.995 178.134 16.0703 178.134 16.1884C178.134 16.2189 178.118 16.2484 178.088 16.2779C178.027 16.2189 177.998 16.1589 177.998 16.0998C177.998 16.0703 178.027 16.0255 178.088 15.9655ZM178.088 16.6351C178.148 16.6351 178.179 16.6799 178.179 16.7694H177.998C177.998 16.6799 178.027 16.6351 178.088 16.6351ZM178.452 16.7694C178.482 16.7399 178.468 16.6503 178.406 16.5008C178.345 16.3827 178.316 16.3084 178.316 16.2779C178.316 16.1884 178.361 16.1446 178.452 16.1446C178.604 16.1446 178.679 16.1741 178.679 16.2341V16.7694H178.452ZM180.272 17.8857H180.089V17.7514C179.998 17.7514 179.954 17.6619 179.954 17.4837C179.954 17.4542 179.938 17.4247 179.908 17.3942V17.3494V17.1704C179.908 17.1418 179.968 17.1266 180.089 17.1266C180.272 17.1266 180.378 17.2152 180.409 17.3942C180.409 17.4837 180.348 17.5438 180.226 17.5723C180.105 17.6028 180.059 17.6619 180.089 17.7514C180.211 17.7514 180.272 17.7962 180.272 17.8857ZM181.318 17.7962L181.364 17.7514L181.409 17.7962C181.378 17.7962 181.364 17.8114 181.364 17.8409C181.364 17.8704 181.349 17.8857 181.318 17.8857L181.227 17.7962H181.318ZM181.636 18.3762C181.515 18.3476 181.439 18.361 181.409 18.421C181.349 18.481 181.364 18.5105 181.455 18.5105C181.575 18.5105 181.652 18.4953 181.682 18.4657C181.712 18.4657 181.698 18.4362 181.636 18.3762ZM181.729 17.8857C181.729 17.7962 181.758 17.7514 181.819 17.7514C181.849 17.7514 181.863 17.7962 181.863 17.8857C181.863 17.9752 181.833 18.019 181.773 18.019C181.743 18.019 181.729 17.9752 181.729 17.8857ZM177.497 33.3328L177.451 33.288C177.451 33.2289 177.467 33.1985 177.497 33.1985C177.526 33.2289 177.557 33.2432 177.587 33.2432L177.497 33.3328ZM180.908 30.5649H181C181.03 30.5954 181.045 30.6249 181.045 30.6544C181.045 30.744 181.014 30.7592 180.954 30.6992C180.924 30.6697 180.908 30.6249 180.908 30.5649ZM181.318 30.5201L181.273 30.4754L181.318 30.3868L181.364 30.4754V30.5201L181.318 30.5649V30.5201ZM182.228 24.2691C182.258 24.2405 182.319 24.2253 182.41 24.2253C182.441 24.2253 182.456 24.2548 182.456 24.3139C182.456 24.3444 182.394 24.3586 182.274 24.3586C182.243 24.3586 182.228 24.3301 182.228 24.2691ZM182.865 24.3586V24.5377C182.713 24.5377 182.667 24.4929 182.728 24.4034C182.728 24.3748 182.774 24.3586 182.865 24.3586ZM183.138 18.4657C183.138 18.4362 183.122 18.421 183.092 18.421V18.3762L183.048 18.421V18.4657L183.092 18.5105L183.138 18.4657Z" fill="#DE5935"/>
</svg>