<svg width="69" height="77" viewBox="0 0 69 77" fill="none" xmlns="http://www.w3.org/2000/svg">
    <path d="M59.254 7.42002C60.589 8.14596 62.6199 8.6801 64.6169 9.28241C66.3477 9.80349 67.5998 9.31082 67.9234 8.17461C68.3076 6.82626 67.4989 5.63405 65.6029 5.20162C62.0398 4.38998 58.8176 2.72156 55.4293 1.48151C50.0142 -0.500262 43.7593 -0.249548 38.54 5.30035C37.7946 6.09121 37.1593 6.99297 36.5366 7.88732C35.2977 9.6695 33.6767 10.8427 31.5301 11.3499C22.731 13.4259 17.4369 19.3821 14.1175 27.3165C12.9835 30.0277 12.7447 33.0416 12.7244 35.9987C12.716 37.372 12.2958 38.272 10.982 38.7978C2.33147 42.2637 -0.324413 49.2855 0.0804485 57.8133C0.405936 64.7088 3.61591 70.3513 8.80972 74.9075C9.40396 75.4302 10.0196 75.8389 10.7688 76.0737C11.5324 76.3132 12.3118 76.5132 12.8311 75.696C13.3296 74.9066 13.4786 74.0519 12.7649 73.2783C12.1684 72.6338 11.5197 72.0385 10.9128 71.4036C6.39383 66.6847 3.6781 61.2412 4.13606 54.5601C4.48441 49.5043 6.59584 45.545 11.3881 43.3365C13.4899 42.368 13.532 42.4121 14.7234 44.3042C15.5993 45.6942 16.48 47.0828 17.436 48.4183C20.411 52.5676 24.7783 54.204 29.5941 54.8762C32.5944 55.295 35.263 54.1573 37.5783 52.4157C41.0901 49.7757 41.3578 45.7958 38.3396 42.4349C34.5022 38.1621 29.489 36.5422 23.9152 36.3053C22.3802 36.2401 20.8395 36.1745 19.305 36.2233C17.7721 36.2712 17.1691 35.6779 17.112 34.1104C17.0215 31.643 17.3439 29.2558 18.476 27.1087C21.4103 21.5496 25.8995 17.7148 31.9335 15.7681C34.5933 14.91 35.0432 15.1694 36.238 17.6765C38.4775 22.3736 41.9926 25.6506 47.0851 27.05C48.7938 27.5192 50.5916 27.7423 52.1627 26.6061C54.3249 25.0407 54.8435 22.696 53.58 20.1996C51.5295 16.1479 47.9541 13.8179 43.9232 12.1675C39.8133 10.4841 39.6017 9.73494 42.9635 6.83122C46.1138 4.11341 49.816 3.97636 53.4947 5.21911C55.2378 5.80904 57.0091 6.44131 59.254 7.42002ZM17.7379 40.7784C18.8719 40.0843 19.8958 40.0328 20.8571 39.9912C26.2872 39.7547 31.388 40.6497 35.3391 44.8227C37.054 46.6339 36.7997 48.4094 34.7119 49.721C31.6491 51.6433 28.4604 51.5304 25.3018 49.9822C21.4621 48.1018 19.0073 45.0388 17.7379 40.7784ZM49.5992 22.8693C46.8019 22.8094 44.5154 22.2147 42.6557 20.3145C41.867 19.5092 41.3836 18.5631 41.166 17.4776C40.8859 16.0692 41.3067 15.5886 42.6332 15.9545C46.103 16.9099 48.5241 18.9678 49.5992 22.8693Z" fill="#099FE9"/>
</svg>