<svg width="69" height="76" viewBox="0 0 69 76" fill="none" xmlns="http://www.w3.org/2000/svg">
    <path d="M9.44518 7.0919C8.11024 7.81784 6.07936 8.35198 4.08236 8.95429C2.35152 9.47536 1.09938 8.9827 0.775818 7.84649C0.39161 6.49813 1.2003 5.30593 3.09633 4.8735C6.65944 4.06186 9.88162 2.39343 13.2699 1.15338C18.685 -0.828387 24.9399 -0.577673 30.1592 4.97222C30.9046 5.76308 31.5399 6.66485 32.1626 7.5592C33.4016 9.34137 35.0225 10.5146 37.1691 11.0218C45.9682 13.0977 51.2623 19.054 54.5817 26.9884C55.7157 29.6996 55.9546 32.7135 55.9749 35.6706C55.9832 37.0438 56.4035 37.9439 57.7172 38.4697C66.3677 41.9356 69.0236 48.9573 68.6188 57.4852C68.2933 64.3806 65.0833 70.0231 59.8895 74.5793C59.2953 75.1021 58.6797 75.5108 57.9304 75.7456C57.1668 75.9851 56.3874 76.1851 55.8682 75.3678C55.3696 74.5784 55.2207 73.7237 55.9343 72.9502C56.5308 72.3057 57.1796 71.7104 57.7864 71.0755C62.3054 66.3566 65.0211 60.9131 64.5632 54.232C64.2148 49.1762 62.1034 45.2169 57.3111 43.0084C55.2093 42.0399 55.1672 42.0839 53.9758 43.9761C53.0999 45.3661 52.2192 46.7547 51.2632 48.0901C48.2882 52.2395 43.9209 53.8759 39.1052 54.5481C36.1048 54.9668 33.4362 53.8292 31.1209 52.0876C27.6091 49.4476 27.3414 45.4677 30.3596 42.1068C34.197 37.834 39.2102 36.2141 44.784 35.9771C46.319 35.912 47.8597 35.8464 49.3942 35.8952C50.9271 35.9431 51.5301 35.3498 51.5872 33.7823C51.6777 31.3149 51.3553 28.9276 50.2232 26.7806C47.2889 21.2215 42.7997 17.3867 36.7657 15.44C34.1059 14.5819 33.656 14.8413 32.4613 17.3484C30.2217 22.0454 26.7066 25.3225 21.6141 26.7219C19.9055 27.1911 18.1077 27.4141 16.5365 26.278C14.3743 24.7126 13.8558 22.3679 15.1192 19.8715C17.1697 15.8197 20.7451 13.4898 24.776 11.8394C28.8859 10.156 29.0975 9.40681 25.7357 6.5031C22.5854 3.78528 18.8832 3.64823 15.2045 4.89099C13.4614 5.48091 11.6901 6.11319 9.44518 7.0919ZM50.9613 40.4503C49.8274 39.7562 48.8034 39.7047 47.8421 39.663C42.412 39.4266 37.3112 40.3216 33.3601 44.4946C31.6452 46.3058 31.8995 48.0813 33.9874 49.3929C37.0501 51.3152 40.2388 51.2023 43.3974 49.654C47.2372 47.7737 49.692 44.7107 50.9613 40.4503ZM19.1 22.5412C21.8974 22.4812 24.1838 21.8866 26.0435 19.9864C26.8323 19.181 27.3157 18.2349 27.5332 17.1495C27.8133 15.741 27.3925 15.2605 26.066 15.6264C22.5962 16.5818 20.1751 18.6396 19.1 22.5412Z" fill="#099FE9"/>
</svg>