<svg width="92" height="106" viewBox="0 0 92 106" fill="none" xmlns="http://www.w3.org/2000/svg">
    <path d="M34.9194 78.5939C44.2997 84.6253 45.6921 87.2116 45.5637 98.3632C45.5527 99.2557 46.135 100.046 46.9884 100.303C47.8419 100.559 48.7633 100.219 49.2455 99.468C55.2769 90.0877 57.8632 88.6953 69.0155 88.8249C69.9064 88.8344 70.6977 88.2533 70.9538 87.3999C71.2099 86.5465 70.8694 85.6247 70.1203 85.1431C60.739 79.1114 59.3456 76.5248 59.4759 65.3738C59.4866 64.4823 58.9056 63.6909 58.0512 63.4345C57.1968 63.1781 56.2763 63.5179 55.7944 64.2681C49.7627 73.6493 47.1754 75.0415 36.0244 74.9111C35.1336 74.9017 34.3422 75.4828 34.0861 76.3362C33.83 77.1896 34.1702 78.1123 34.9194 78.5939ZM55.6603 71.4025C56.2204 77.5802 58.1362 81.1399 62.9858 85.009C56.8082 85.5691 53.2481 87.4858 49.3794 92.3345C48.8182 86.1566 46.9025 82.5968 42.0538 78.728C48.2315 78.1679 51.7915 76.2512 55.6603 71.4025Z" fill="#009FE4"/>
    <path d="M49.333 40.7235C49.5894 39.8692 49.2486 38.9484 48.4995 38.4668C40.3923 33.2548 39.188 31.0194 39.3005 21.3821C39.3112 20.4906 38.7301 19.6992 37.8758 19.4428C37.0214 19.1865 36.1009 19.5263 35.6187 20.2774C30.4068 28.3845 28.1707 29.5876 18.5325 29.4748C17.6416 29.4653 16.8502 30.0464 16.5941 30.8998C16.3381 31.7532 16.6785 32.6749 17.4277 33.1566C25.5358 38.3688 26.7401 40.6042 26.6276 50.2415C26.6169 51.133 27.198 51.9244 28.0523 52.1808C28.9067 52.4371 29.8272 52.0974 30.3094 51.3463C35.5213 43.2391 37.7574 42.036 47.3947 42.1486C48.2853 42.159 49.0767 41.5779 49.333 40.7235ZM30.4064 44.3354C29.8648 39.4182 28.2471 36.4135 24.4405 33.2542C29.3586 32.7128 32.3633 31.0951 35.5217 27.2883C36.0633 32.2054 37.681 35.2101 41.4866 38.3691C36.5705 38.9111 33.5658 40.5288 30.4064 44.3354Z" fill="#009FE4"/>
    <path d="M85.7494 27.052C81.3717 24.237 80.8264 23.2256 80.8867 18.0214C80.8967 17.1286 80.3153 16.3382 79.4619 16.0821C78.6085 15.826 77.6871 16.1655 77.2049 16.9166C74.3902 21.2933 73.3779 21.8384 68.1736 21.7781C67.2828 21.7687 66.4914 22.3497 66.2353 23.2031C65.9792 24.0566 66.3197 24.9783 67.0688 25.4599C71.4465 28.2749 71.9919 29.2863 71.9316 34.4905C71.9209 35.3821 72.502 36.1734 73.3563 36.4298C74.2107 36.6862 75.1312 36.3464 75.6134 35.5953C78.428 31.2186 79.4404 30.6735 84.6446 30.7338C85.5355 30.7432 86.3269 30.1622 86.583 29.3088C86.8391 28.4553 86.4986 27.5336 85.7494 27.052ZM75.49 29.319C75.1051 27.7627 74.434 26.5163 73.347 25.3371C74.9033 24.9522 76.1498 24.2811 77.3283 23.1929C77.7132 24.7492 78.3843 25.9956 79.4713 27.1748C77.915 27.5597 76.6685 28.2308 75.49 29.319Z" fill="#009FE4"/>
</svg>