<svg width="1349" height="63" viewBox="0 0 1349 63" fill="none" xmlns="http://www.w3.org/2000/svg">
    <path d="M1348.47 28.9986C1337.94 33.0042 1327.64 36.8926 1318.31 39.8565C1271.11 54.8556 1262.19 29.3572 1257.21 18.6078C1251.17 5.10861 1226.26 4.85863 1168.56 28.3572C1149.68 36.1068 1134.99 41.1065 1123.98 42.8563C1114.28 44.3563 1099.33 44.8562 1088.84 37.6067C1075.99 28.6072 1080.18 12.1082 1062.87 9.60835C1043.99 6.85851 1011.21 20.1077 985.245 29.8571C958.233 40.1065 945.645 45.8562 925.713 42.8563C905.782 39.8565 902.897 23.8575 899.75 18.3578C895.554 10.8583 886.375 4.35866 850.445 14.858C809.009 27.1073 786.717 40.3565 763.901 43.3563C731.118 47.3561 724.824 31.607 720.628 23.1075C715.908 13.1081 709.351 1.10885 660.834 17.1079C612.841 33.1069 599.728 43.6063 574.813 43.8563C530.754 44.1063 549.899 12.3582 523.411 9.85833C501.381 7.85845 477.778 17.6079 450.241 28.3572C438.619 33.3287 426.606 37.4243 414.312 40.6065C374.711 50.1059 365.27 33.8569 359.763 22.3576C358.714 20.1077 356.616 14.1081 351.37 11.6082C340.618 6.60853 318.064 9.10838 301.279 16.3579C280.823 25.1074 253.024 44.3563 232.83 45.8562C219.455 46.8561 214.997 41.3564 214.21 36.6067C213.981 34.365 214.437 32.1081 215.521 30.1071C217.095 26.8573 219.455 20.8577 214.997 15.608C209.489 8.85839 190.607 10.1083 190.607 10.1083C152.055 11.8582 135.533 23.6075 106.685 36.3567C88.3268 44.3563 75.2139 46.8561 65.2482 44.8562C62.1455 44.1256 59.2113 42.8543 56.5937 41.1065C52.9221 38.3566 48.4637 32.607 51.3485 26.3573C52.5843 23.6447 54.5806 21.3093 57.1182 19.6077C58.3869 18.5649 59.5304 17.3912 60.5275 16.108C64.1991 11.3582 62.6256 3.35872 52.9221 1.10886C44.1452 -0.29737 35.1289 0.744368 26.9586 4.10868C17.2551 8.10844 9.38744 11.8582 0.470703 16.108V62.5H1348.47V28.9986Z" fill="#F9F5EE"/>
</svg>